<svg width="30" height="30" viewBox="0 0 30 30" fill="none" xmlns="http://www.w3.org/2000/svg">
<path fill-rule="evenodd" clip-rule="evenodd" d="M15 4.25C12.3767 4.25 10.25 6.37665 10.25 9C10.25 11.6234 12.3767 13.75 15 13.75C17.6234 13.75 19.75 11.6234 19.75 9C19.75 6.37665 17.6234 4.25 15 4.25ZM11.75 9C11.75 7.20507 13.2051 5.75 15 5.75C16.7949 5.75 18.25 7.20507 18.25 9C18.25 10.7949 16.7949 12.25 15 12.25C13.2051 12.25 11.75 10.7949 11.75 9Z" fill="#0D0F2B" fill-opacity="0.8"/>
<path fill-rule="evenodd" clip-rule="evenodd" d="M15 15.25C12.6865 15.25 10.5549 15.7759 8.97546 16.6643C7.4195 17.5396 6.25001 18.8661 6.25001 20.5L6.24995 20.602C6.24882 21.7638 6.2474 23.222 7.52642 24.2635C8.15589 24.7761 9.03649 25.1406 10.2262 25.3815C11.4193 25.6229 12.9742 25.75 15 25.75C17.0258 25.75 18.5808 25.6229 19.7738 25.3815C20.9635 25.1406 21.8441 24.7761 22.4736 24.2635C23.7526 23.222 23.7512 21.7638 23.7501 20.602L23.75 20.5C23.75 18.8661 22.5805 17.5396 21.0246 16.6643C19.4451 15.7759 17.3136 15.25 15 15.25ZM7.75001 20.5C7.75001 19.6487 8.37139 18.7252 9.71085 17.9717C11.0268 17.2315 12.8953 16.75 15 16.75C17.1047 16.75 18.9732 17.2315 20.2892 17.9717C21.6286 18.7252 22.25 19.6487 22.25 20.5C22.25 21.8078 22.2097 22.544 21.5264 23.1004C21.1559 23.4022 20.5365 23.6967 19.4762 23.9113C18.4193 24.1252 16.9742 24.25 15 24.25C13.0258 24.25 11.5808 24.1252 10.5238 23.9113C9.46354 23.6967 8.84413 23.4022 8.4736 23.1004C7.79033 22.544 7.75001 21.8078 7.75001 20.5Z" fill="#0D0F2B" fill-opacity="0.8"/>
</svg>
