<svg version="1.2" xmlns="http://www.w3.org/2000/svg" viewBox="0 0 3024 4032" width="3024" height="4032">
	<title>door_details_reference</title>
	<style>
		.s0 { fill: #00ff00 } 
	</style>
	<path id="Color Fill 2" fill-rule="evenodd" class="s0" d="m2323.5 200.06c1.78-0.08 4.18 0.8 5.89 2.16 2.52 1.99 2.82 2.78 2.41 6.28-0.26 2.2-3.77 11.2-7.79 20-4.02 8.8-8.14 19.15-9.15 23-1.5 5.76-1.82 10.82-1.8 28.5 0.02 16.54 0.37 22.42 1.52 25.5 0.84 2.24 1.71 9.05 2 15.5 0.28 6.32 0.71 13.41 0.96 15.75 0.34 3.16 1.45 5.34 4.33 8.5 2.13 2.34 4.92 6.27 6.2 8.75 1.89 3.64 2.29 5.83 2.11 11.5-0.12 3.85-0.31 7.68-0.43 8.5-0.11 0.82 0.19 12.98 0.67 27 0.84 24.49 0.97 25.64 3.26 29 1.56 2.3 2.37 4.87 2.33 7.5-0.02 2.2-0.69 6.7-1.49 10-0.8 3.3-1.48 8.25-1.51 11-0.03 2.75-0.88 8.6-1.87 13-1.66 7.35-1.75 11.44-1.07 50 0.41 23.1 1.24 56.85 1.85 75 0.61 18.15 1.6 45.83 2.21 61.5 0.6 15.67 1.45 38.63 1.89 51 0.44 12.37 1.61 49.27 2.6 82 0.99 32.73 1.83 70.98 1.87 85 0.04 14.02 0.39 44.4 0.78 67.5 0.38 23.1 0.94 61.8 1.23 86 0.29 24.2 1.19 65.38 2.01 91.5 0.82 26.12 1.95 55.6 3.52 83.5l3.12 3.5c2.9 3.25 3.07 3.85 2.42 8.5-0.38 2.75-0.73 5.9-0.77 7-0.05 1.1 0.25 17.08 0.65 35.5 0.53 24.56 1.12 34.97 2.21 39 0.82 3.03 1.19 6.62 0.82 8-0.37 1.37-1.6 3.85-2.75 5.5-1.9 2.74-2 3.7-1.18 11 0.49 4.4 0.94 49.63 1 100.5 0.05 50.88 0.41 111.17 0.78 134 0.37 22.86 1.62 56.1 4.89 106.5l3.08 4c2.98 3.88 3.04 4.13 1.8 8.5-0.7 2.47-1.02 5.4-0.72 6.5 0.31 1.1 1.01 12.58 1.56 25.5 0.56 12.92 1.13 31.69 1.56 59.89l-3.5 3.68c-1.93 2.02-4.96 4.29-6.75 5.05-1.79 0.76-3.7 2.28-4.25 3.38-0.61 1.21-0.99 14.53-0.97 33.75 0.01 17.46 0.67 43.67 1.47 58.25 0.8 14.58 1.47 40.9 1.5 58.5 0.02 17.6 0.51 37.63 1.08 44.5 0.57 6.87 1.47 30.72 2.01 53 0.54 22.28 1.37 51.75 1.84 65.5 0.48 13.75 0.91 30.18 0.95 36.5 0.06 8.33 0.48 12.05 1.53 13.5 1.12 1.55 2.86 2.08 7.77 2.37 3.47 0.2 6.9 0.88 7.61 1.5 0.99 0.86 1.3 6.39 1.32 23.13 0.01 12.1 0.38 32.8 0.82 46 0.62 18.22 1.21 25.02 2.44 28.25 1.52 3.97 1.52 4.43-0.12 7-1.51 2.38-1.75 5.39-1.75 22.25 0 10.72-0.4 24.45-0.89 30.5-0.77 9.43-0.66 11.47 0.75 14.25 0.9 1.79 1.86 6.06 2.13 9.5 0.27 3.44 1.44 11.2 2.59 17.25 1.43 7.47 2.4 18.21 3.02 33.5 0.51 12.37 1.3 52.43 1.77 89 0.47 36.57 1.42 77.07 2.11 90 0.92 17.36 0.96 24.09 0.14 25.75-0.82 1.65-1.99 2.25-4.37 2.24-1.79-0.01-4.21-0.58-5.39-1.25-1.17-0.68-5.67-3.92-17.86-13.15l-12.5-0.74c-6.87-0.4-14.75-1.39-17.5-2.19-2.75-0.8-7.25-2.14-10-2.98-2.75-0.84-7.7-2.04-11-2.68-3.3-0.63-7.92-1.46-14.53-2.5l0.02 42.75c0 23.51 0.47 46.91 1.04 52 0.56 5.09 1.44 19.82 1.95 32.75 0.5 12.93 1.39 32.5 1.97 43.5 0.58 11 1.52 26.3 2.1 34 0.58 7.7 1.47 22.55 1.97 33 0.51 10.45 1.39 25.97 1.95 34.5 0.57 8.53 1.51 22.93 2.09 32 0.58 9.07 1.44 24.37 1.91 34 0.51 10.57 0.46 20.87-0.11 26-0.53 4.68-1.72 10.71-2.66 13.41-0.95 2.76-2.58 5.33-3.7 5.85-1.38 0.65-4.93 0.26-11.5-1.26-5.22-1.2-10.74-2.82-12.25-3.6-1.51-0.77-3.43-1.4-4.25-1.4-0.82 0-1.51 0.56-1.52 1.25-0.01 0.69 1.47 3.05 3.29 5.25 1.82 2.2 4.98 6.36 7.02 9.25 2.04 2.89 4.61 7.05 5.71 9.25 1.83 3.66 2.04 6.61 2.52 34.75 0.29 16.91 0.88 33.45 1.3 36.75 0.43 3.3 0.42 7.46-0.02 9.25-0.44 1.79-1.25 3.47-1.8 3.75-0.55 0.28-7.86-0.01-16.25-0.64-8.39-0.63-26.72-1.27-40.75-1.42-15.64-0.17-30.72-0.91-39-1.91-7.43-0.9-23.4-2.05-35.5-2.56-12.1-0.51-30.1-1.48-40-2.15-9.9-0.67-24.97-1.29-33.5-1.38-8.53-0.09-31.36-0.68-50.75-1.3-19.39-0.63-37.61-0.87-40.5-0.54-3.37 0.39-7.4 0.04-11.25-0.95-3.82-1-14.9-1.95-30.5-2.63-13.47-0.59-31.7-1.51-40.5-2.04-8.8-0.54-23.65-1.01-33-1.04-9.35-0.03-19.25-0.5-22-1.03-2.75-0.53-13.33-1.62-23.5-2.4-10.17-0.79-30.42-1.89-45-2.45-14.58-0.55-47.2-1.5-72.5-2.1-25.3-0.6-52.08-1.76-59.5-2.56-7.42-0.81-22.5-1.69-33.5-1.98-11-0.28-23.38-0.94-27.5-1.46-4.12-0.52-33.15-1.39-64.5-1.93-31.35-0.54-63.53-1.42-71.5-1.95-7.97-0.53-25.08-1.46-38-2.07-12.92-0.6-31.38-1.54-41-2.09-9.62-0.55-34.15-1.44-54.5-1.97-20.35-0.53-50.28-1.39-66.5-1.91-16.22-0.51-42.78-1.42-59-2-16.22-0.59-34.22-1.51-40-2.05-5.78-0.54-22.42-1-37-1.01-14.58 0-37.75-0.45-51.5-0.97-13.75-0.53-43.45-1.65-66-2.48-22.55-0.83-60.8-2.2-85-3.03-24.2-0.84-53.23-1.95-64.5-2.49-11.27-0.53-25.79-0.98-32.25-0.99-8.74-0.01-11.56 0.28-11 1.15 0.55 0.86-0.32 1-3.25 0.55-2.2-0.35-9.85-0.93-17-1.3-7.15-0.37-14.35-1.1-16-1.62-1.65-0.52-21-1.35-43-1.85-22-0.5-42.25-1.35-45-1.9-2.75-0.54-20.52-1.42-39.5-1.96-18.98-0.53-38.55-1.44-43.5-2.02-4.95-0.58-26.33-1.53-47.5-2.11-21.17-0.58-48.4-1.26-60.5-1.51-12.1-0.25-38.2-0.91-58-1.47-19.8-0.56-40.5-1.46-46-2-5.5-0.54-11.48-1.32-13.3-1.73-2.91-0.66-3.35-0.48-3.75 1.5-0.33 1.64-1.33 2.38-3.7 2.74-1.79 0.27-9.77 1.18-17.75 2.03-7.98 0.84-14.55 1.41-14.62 1.26-0.06-0.15 1.6-21.43 3.71-47.28 2.11-25.85 3.84-47.9 3.86-49 0.02-1.48 1.99-2.98 7.54-5.75 4.13-2.06 7.96-3.75 8.51-3.75 0.55 0 1.11 1.01 1.25 2.25 0.14 1.24 0.91 2.25 1.71 2.25 0.84 0 1.93-1.69 2.59-4 0.63-2.2 1.44-11.43 1.81-20.5 0.36-9.07 1.12-20.55 1.69-25.5 0.57-4.95 1.71-15.75 2.53-24 0.81-8.25 2.14-21.53 2.94-29.5 0.8-7.97 1.89-20.13 2.44-27 0.54-6.88 1.44-14.97 2-18 0.55-3.03 1.5-10.9 2.11-17.5 0.61-6.6 1.71-18.75 2.46-27 0.75-8.25 2.04-21.97 2.87-30.5 0.84-8.53 1.99-20 2.57-25.5 0.57-5.5 1.29-10.9 1.59-12 0.3-1.1 1.24-9.65 2.08-19 0.85-9.35 1.89-21.95 2.31-28 0.42-6.05 1.33-18.65 2.03-28 0.94-12.74 0.98-18.07 0.14-21.25-0.62-2.34-1.68-4.24-2.37-4.23-0.69 0-3.05-1.32-5.25-2.96-2.33-1.72-5.88-3.24-8.5-3.61-3.8-0.55-4.81-0.33-6.5 1.48-1.1 1.17-1.66 2.12-1.25 2.1 0.41-0.02 0.52 0.42 0.25 0.97-0.28 0.56-1.39 0.11-2.5-1-1.59-1.59-3.33-2-8.5-2-3.57 0-7.74 0.49-9.25 1.08-1.51 0.59-6.8 1.55-11.75 2.12-4.95 0.58-11.25 0.96-14 0.85-3.47-0.14-6.07 0.42-8.5 1.81-1.93 1.11-6.47 5.3-10.09 9.33-4.81 5.32-7.66 7.62-10.5 8.47-2.15 0.64-5.93 1.9-8.41 2.8-2.48 0.91-5.62 1.4-7 1.11-1.37-0.29-4.3-1.91-6.5-3.59-2.2-1.68-4.39-3.15-4.87-3.27-0.48-0.11 0.52-2.24 2.21-4.71 1.69-2.47 3.54-6.07 4.12-8 0.57-1.93 1.04-6.65 1.03-10.5 0-3.85 0.49-11.72 1.09-17.5 0.61-5.78 1.54-11.63 2.07-13 0.54-1.38 1.61-9.7 2.39-18.5 0.78-8.8 1.43-20.16 1.44-25.25 0.01-5.09 0.68-17.69 1.49-28 0.81-10.31 1.67-26.4 1.93-35.75 0.25-9.35 0.7-17.68 1.01-18.5 0.3-0.82 1.21-9.15 2.01-18.5 0.8-9.35 1.96-18.35 2.57-20 0.62-1.65 3.41-7.5 6.22-13 2.8-5.5 6.1-12.7 7.32-16 1.61-4.36 3.14-6.62 5.59-8.26 1.86-1.25 5.18-2.5 7.38-2.78 2.2-0.29 4.9-1.14 6-1.91 1.86-1.3 2.08-3.26 3.2-28.72 0.67-15.03 1.68-32.05 2.24-37.83 0.57-5.78 1.72-13.43 2.55-17 1.08-4.6 1.69-14.98 2.12-35.5 0.39-19.1 1.07-31.13 1.99-35.25 0.77-3.44 1.41-8.16 1.42-10.5 0-2.34 0.69-6.95 1.53-10.25 0.83-3.3 2.16-11.63 2.96-18.5 0.79-6.88 1.69-18.35 2-25.5 0.31-7.15 1.22-21.1 2.03-31 0.8-9.9 2.14-25.65 2.96-35 0.82-9.35 1.5-21.95 1.51-28 0-6.05 0.48-13.92 1.07-17.5 0.58-3.58 1.48-12.13 2-19 0.53-6.88 1.59-22.17 2.37-34 0.78-11.83 1.91-27.58 2.51-35 0.6-7.42 1.53-15.41 2.07-17.75 0.53-2.34 0.97-12.46 0.97-22.5-0.01-10.04-0.68-25.34-1.5-34-0.83-8.66-2.12-16.99-2.87-18.5-0.97-1.95-3.08-3.41-7.25-5.01-3.23-1.24-7.39-3.49-9.23-5-2.37-1.94-3.38-3.62-3.45-5.74-0.06-1.65 0.48-13.35 1.2-26 0.71-12.65 1.55-23.45 1.86-24 0.31-0.55 0.83-7.59 1.74-30.28l7-8.72 0.13-28.5c0.12-23.91 0.41-29.23 1.81-33 0.91-2.47 2.08-7.88 2.59-12 0.5-4.13 1.62-17.4 2.48-29.5 0.86-12.1 1.81-30.55 2.09-41 0.29-10.45 0.94-28.22 1.45-39.5 0.5-11.28 1.57-24.33 2.38-29 0.8-4.67 2.69-12.33 4.19-17 2.4-7.52 2.7-9.88 2.53-20.5-0.1-6.6-0.18-19.2-0.17-28 0-8.8 0.58-23.42 1.3-32.5 0.71-9.08 1.27-19.09 1.26-22.25-0.03-4.72-0.53-6.37-2.79-9.25-1.81-2.3-2.75-4.7-2.75-7 0-2.35 0.9-4.57 2.72-6.75 1.5-1.79 3.05-5.05 3.44-7.25 0.39-2.2 1-12.33 1.36-22.5 0.45-12.56 1.28-21.15 2.57-26.75 1.05-4.54 1.91-9.38 1.91-10.75 0-1.38-0.92-3.74-2.03-5.25-1.12-1.51-2.02-3.99-2-5.5 0.02-2.11 1.01-3.4 8.53-8.33l0.24-19.96c0.13-10.98 0.71-22.43 1.29-25.46 0.58-3.03 1.48-16.08 2-29 0.52-12.92 1.41-26.88 1.98-31 0.57-4.13 1.51-15.38 2.1-25 0.58-9.63 1.38-26.72 1.78-38 0.39-11.28 1.03-21.06 1.41-21.75 0.39-0.69 1.14-10.14 1.69-21 0.54-10.86 1.44-22.45 1.99-25.75 0.56-3.3 1.01-9.94 1.01-14.75 0.01-4.81 0.46-13.14 1-18.5 0.55-5.36 1.46-18.75 2.02-29.75 0.57-11 1.45-27.65 1.96-37 0.52-9.35 1.42-20.38 2-24.5 0.59-4.13 1.79-16.27 2.67-27 0.88-10.73 1.76-22.88 1.96-27 0.2-4.13 1.06-16.5 1.91-27.5 0.85-11 2.03-25.85 2.63-33 0.59-7.15 1.44-19.75 1.88-28 0.44-8.25 1.3-21.3 1.91-29 0.6-7.7 1.61-19.63 2.23-26.5 0.62-6.88 1.45-18.8 1.83-26.5 0.39-7.7 1.21-19.4 1.82-26 0.62-6.6 1.83-22.58 2.7-35.5 0.87-12.92 2.01-27.33 2.53-32 0.52-4.67 0.95-11.99 0.96-16.25 0-4.26 0.54-11.91 2.39-26.25l-2.7-3.25c-1.48-1.79-2.96-4.49-3.29-6-0.42-1.92-0.01-3.5 1.38-5.25 1.71-2.15 2.16-5.2 3.24-22 0.68-10.73 1.26-24.9 1.29-31.5 0.03-6.6-0.3-14.7-0.73-18-0.69-5.37-0.53-6.36 1.57-9.44 1.29-1.9 3.7-4.25 5.35-5.24 1.65-0.98 5.93-2.28 9.5-2.89 3.57-0.6 7.74-1.73 9.25-2.51 1.53-0.79 2.97-2.52 3.25-3.92 0.27-1.38 0.93-9.59 1.46-18.25 0.53-8.66 1.47-20.25 2.08-25.75 0.9-8.16 0.84-11.38-0.36-17.5-0.81-4.13-2.24-10.43-3.18-14-0.93-3.57-3.68-10.55-6.09-15.5-2.42-4.95-6.42-12.15-8.89-16-2.47-3.85-5.18-8.57-6.03-10.5-0.85-1.93-1.55-4.85-1.56-6.5-0.01-1.65 0.56-3.52 1.28-4.16 0.93-0.83 17.15-1.3 57.79-1.68 31.08-0.3 63.48-1.02 72-1.61 8.52-0.59 41.6-1.45 73.5-1.92 31.9-0.47 58.67-1.21 59.5-1.65 0.83-0.44 44.92-1.16 98-1.61 69.56-0.59 102.78-1.25 119-2.37 12.38-0.86 36.67-1.78 54-2.05 17.33-0.28 50.85-0.68 74.5-0.9 23.65-0.22 46.83-0.85 51.5-1.39 4.67-0.55 28.97-1.31 54-1.69 25.03-0.38 50.9-0.81 57.5-0.97 6.6-0.15 20.1-0.79 30-1.41 9.9-0.62 47.03-1.57 82.5-2.12 35.47-0.54 69.9-1.54 76.5-2.21 6.6-0.67 23.25-1.22 37-1.24 13.75-0.01 33.55 0.58 44 1.3 16.41 1.15 22.76 1.11 46.5-0.25 15.13-0.86 43.03-2.01 62-2.54 18.97-0.53 64.2-1.63 100.5-2.44 36.3-0.8 71.63-1.75 78.5-2.09 6.88-0.35 22.63-1.01 35-1.47 12.38-0.46 31.28-1.55 42-2.41 10.72-0.87 38.63-2.06 62-2.64 23.38-0.58 45.2-1.46 48.5-1.95 3.3-0.5 19.5-1.16 36-1.48 16.5-0.32 40.13-1.25 52.5-2.07 12.38-0.81 46.13-1.95 75-2.52 28.88-0.57 57.45-1.44 63.5-1.94 6.05-0.51 33.95-1.18 62-1.5 37.37-0.43 52.74-0.95 57.5-1.96 3.57-0.75 7.85-1.42 9.5-1.5zm-1619.28 2315.59c-0.71 0.31-1.76 1.75-2.34 3.2-0.58 1.46-1.44 13.22-1.92 26.15-0.47 12.93-1.32 26.43-1.89 30-0.78 4.96-0.73 6.76 0.2 7.58 0.68 0.6 5.06 1.6 9.73 2.23 4.67 0.64 14.12 1.61 21 2.18 6.87 0.56 14.52 1.23 17 1.49 2.48 0.27 7.2 0.93 10.5 1.48 3.56 0.59 11.65 0.7 19.89 0.27 12.61-0.66 13.96-0.91 14.65-2.73 0.42-1.1 1.25-6.72 1.84-12.5 0.6-5.78 1.2-18.69 1.35-28.71 0.22-15.08 0.01-18.48-1.23-19.8-0.83-0.88-3.75-1.85-6.5-2.16-3.83-0.43-5.82-1.34-8.5-3.87l-3.5-3.29c-41.08-0.94-56.6-1.41-61-1.65-4.4-0.24-8.58-0.18-9.28 0.13zm1308.03 43.84c-1.45 0.97-2.05 2.13-1.69 3.26 0.31 0.96 1.02 5.35 1.58 9.75 0.56 4.4 1.66 9.24 2.44 10.75 1.13 2.19 1.88 2.61 3.67 2.08 1.24-0.37 4.5-0.7 7.25-0.75 3.08-0.05 5.96-0.76 7.5-1.86 1.38-0.99 3.8-1.66 5.42-1.5 2.16 0.21 3.42 1.19 4.84 3.78 1.11 2.01 2.33 7.12 2.87 12 0.51 4.68 1.12 51.25 1.35 103.5 0.22 52.25 0.68 103.55 1.01 114 0.49 15.43 0.95 19.75 2.44 23 1.02 2.2 2.33 5.57 2.92 7.5 0.59 1.93 1.37 5.3 1.73 7.5 0.49 3.03 0.14 5.03-1.47 8.25l-2.11 4.25c4.26 2.18 6.42 3.86 7.54 5.15 1.12 1.29 2.92 3.85 4 5.68 1.19 2.03 4.89 5.11 9.46 7.89 7.32 4.46 7.6 4.54 11.5 3.32 2.2-0.68 4.9-0.99 6-0.67 1.17 0.34 2.94 2.67 4.25 5.6l2.25 5.03c-5.43 6.97-7 9.9-7 11 0 1.11 1.66 3.32 3.75 4.98 2.72 2.17 5.53 3.26 10.25 3.98 3.57 0.55 10.1 1 14.5 1 4.4 0.01 8.48-0.32 9.07-0.73 0.59-0.4 1.33-1.41 1.64-2.23 0.31-0.82 0.14-12.3-0.37-25.5-0.51-13.2-1.04-27.6-1.17-32-0.13-4.4-0.64-8.68-1.14-9.5-0.5-0.82-2.91-3.3-5.36-5.5-2.45-2.2-7.2-7.82-10.56-12.5l-6.11-8.5c0.76-22.47 0.92-34.85 0.85-42-0.08-7.15-0.27-18.18-0.42-24.5-0.18-6.85 0.15-12.51 0.81-14 0.82-1.86 0.72-6.86-0.4-19.5-0.83-9.35-2.15-19.25-2.95-22-0.8-2.75-1.89-7.93-2.43-11.5-0.78-5.23-0.65-7.77 0.7-13 1.57-6.11 1.57-7.22-0.08-18.5-0.96-6.6-2.61-15.6-3.66-20-1.05-4.4-2.2-10.93-2.55-14.5-0.36-3.57-1.99-10.32-3.62-15-1.64-4.68-4.12-10.75-5.52-13.5-1.4-2.75-4.13-7.25-6.07-10-1.95-2.75-6.15-8.26-9.35-12.25-4.56-5.69-7.04-7.82-11.56-9.92l-5.75-2.68c-22.87 3.53-23.08 3.52-30 1.46-3.85-1.14-7.22-2.09-7.5-2.1-0.28-0.02-1.51 0.65-2.75 1.48zm-739.49 4.22c-1.03 0.28-3.76 4.67-6.62 10.63-2.68 5.59-5.78 12.19-6.88 14.66-1.11 2.47-2.9 6.53-3.97 9-1.08 2.47-3.44 9.45-5.24 15.5-1.79 6.05-3.96 12.35-4.8 14-0.85 1.65-3.45 5.47-5.8 8.5-2.34 3.03-6.1 9.21-8.35 13.75-2.26 4.54-5.75 10.61-7.77 13.5-2.03 2.89-5.37 7.5-7.45 10.25-2.07 2.75-4.91 8.04-6.32 11.75-1.41 3.71-3.35 7.93-4.31 9.38-0.96 1.45-2.99 3.25-4.5 4-1.7 0.85-5.3 1.27-9.4 1.12l-6.65-0.25c-7.9 9.18-12 13.52-14.2 15.56-3.08 2.86-4.55 5.41-6.38 11.08-1.3 4.05-4.23 10.22-6.5 13.72-2.26 3.5-6.59 8.37-9.62 10.81-3.03 2.45-7.86 5.32-10.75 6.39-2.89 1.07-9.97 2.62-15.75 3.44-8.32 1.19-12 1.27-17.75 0.4-3.99-0.6-12.42-0.93-18.75-0.74-10.95 0.34-11.72 0.5-16 3.45-2.47 1.71-8.1 4.46-12.5 6.13-4.4 1.66-12.28 3.93-17.5 5.04-5.73 1.22-15.65 2.27-25 2.66-8.52 0.35-22.02 0.66-30 0.7-7.98 0.03-18.33-0.46-23-1.11-5.96-0.81-10.07-2.04-13.75-4.1-2.89-1.61-6.15-2.93-7.25-2.93-1.1 0-3.58-1.35-5.5-3-2.92-2.5-3.5-3.67-3.5-7 0-3.69-0.37-4.23-4.75-6.98-2.61-1.64-5.76-2.99-7-3-1.24-0.01-2.41 0.54-2.61 1.23-0.2 0.69-0.77 2.57-1.25 4.18-0.49 1.61-1.34 2.85-1.89 2.75-0.55-0.11-1.54-2.33-2.21-4.94-0.68-2.68-2.2-5.52-3.5-6.53-1.26-0.99-3.87-1.78-5.79-1.77-3.4 0.03-3.52 0.17-4.26 4.79-0.41 2.63-0.75 6.34-0.75 8.27 0.01 1.93-0.97 5.97-2.16 9-2.05 5.2-2.19 7.4-2.53 40.5-0.26 25.05-0.77 37.27-1.82 43-0.81 4.4-1.47 10.36-1.47 13.25-0.01 4.1 0.48 5.76 2.24 7.57 2.21 2.28 2.77 2.33 28.75 3 14.58 0.37 38.42 0.71 53 0.74 14.58 0.04 33.02 0.5 41 1.03 7.98 0.53 31.15 1.44 51.5 2.02 20.35 0.58 40.04 1.02 43.75 0.97 3.71-0.04 11.59 0.37 17.5 0.92 5.91 0.55 19.75 1.23 30.75 1.52 11 0.28 29 0.99 40 1.58 11 0.59 28.1 1.18 38 1.31 9.9 0.13 31.28 0.55 47.5 0.93 16.22 0.38 33.33 1.1 38 1.61 4.67 0.5 21.55 1.65 37.5 2.55 15.95 0.89 30.35 1.44 32 1.2 1.65-0.23 18.75-0.06 38 0.39 19.25 0.45 37.47 1.3 40.5 1.89 3.03 0.59 17.88 1.25 33 1.47 15.13 0.22 35.83 0.82 46 1.33 10.17 0.51 19.06 1.22 19.75 1.57 0.69 0.36 8.79 1.18 18 1.84 9.21 0.65 20.35 1.29 24.75 1.43 4.4 0.14 16.33 0.47 26.5 0.72 10.17 0.25 20.08 0.96 22 1.56 1.92 0.61 5.97 1.11 9 1.11 3.03 0.01 8.2 0.51 11.5 1.12 4.85 0.9 7.82 0.8 15.5-0.51 5.22-0.9 12.42-1.63 16-1.62 3.58 0.01 8.08 0.46 10 1 2.24 0.64 8.37 0.68 17 0.12 10.66-0.68 14.97-0.56 20.5 0.6 5.24 1.09 7.25 1.17 8 0.32 0.55-0.63 1-5.96 1-11.84 0-5.89-0.39-28.7-0.87-50.7-0.49-22-1.27-40.79-1.75-41.75-0.75-1.49-1.82-1.66-7.13-1.17-3.59 0.33-7.42 0.12-9-0.5-1.51-0.59-3.37-2.32-4.13-3.83-0.76-1.51-1.71-4.32-2.12-6.25-0.43-2.02-2.59-5.5-5.12-8.25-2.63-2.85-6.98-9.94-10.88-17.75-3.61-7.22-7.19-16-8.04-19.75-0.85-3.71-2.24-11.03-3.1-16.25-0.85-5.22-2.38-12.43-3.41-16-1.02-3.57-2.35-10.1-2.95-14.5-0.6-4.4-1.97-12.5-3.04-18-1.06-5.5-2.57-13.15-3.34-17-0.77-3.85-2.52-10.15-3.9-14-1.38-3.85-3.04-9.7-3.68-13-0.65-3.3-1.5-10.95-1.89-17-0.6-9.3-1.08-11.54-3.12-14.5-1.33-1.93-3.01-5.64-3.72-8.25-0.72-2.61-1.97-7.11-2.78-10-0.83-2.96-2.46-6.03-3.75-7.04-1.83-1.44-4.11-1.79-11.53-1.75-5.09 0.02-10.26 0.52-11.5 1.1-1.24 0.59-3.37 2.6-4.75 4.48-1.37 1.87-3.29 3.42-4.25 3.43-0.98 0.02-3.21-2.07-5.05-4.72-1.88-2.72-4.88-5.5-7-6.5-2.11-1-5.96-1.73-8.95-1.71-2.89 0.01-6.37 0.65-7.75 1.4-2.13 1.17-2.91 1.16-5.25-0.03-1.76-0.9-6.25-1.44-12.5-1.5-8.41-0.08-9.92 0.16-11.02 1.75-0.7 1.01-1.27 4.75-1.28 8.34-0.01 4.57-0.56 7.39-1.87 9.5-1.02 1.65-3.37 3.64-5.22 4.42-2.36 1-5.29 1.24-9.86 0.81-3.58-0.33-7.17-0.19-8 0.31-0.99 0.61-2.1 4.76-3.26 12.19-0.96 6.2-2.31 11.85-3 12.56-0.68 0.72-3.15 1.28-5.49 1.25-3.69-0.03-4.39-0.4-5.34-2.79-0.63-1.59-0.95-7.17-0.75-13.25l0.34-10.5c-16.15-0.93-17.7-1.34-20.01-3.5-1.47-1.38-3.31-3.74-4.09-5.25-0.77-1.51-1.4-5.45-1.4-8.75 0-3.65-0.51-6.49-1.31-7.25-0.85-0.8-6.63-1.52-16.25-2.02-8.22-0.42-27.77-1.19-43.44-1.71-15.67-0.52-39.83-1.08-53.68-1.24-24.24-0.27-25.28-0.2-28 1.82-1.55 1.15-3.37 3.18-4.03 4.5-0.67 1.32-2.12 5.55-3.23 9.4-1.55 5.4-2.58 7.29-4.53 8.25-1.61 0.79-6.81 1.23-14.28 1.21-8.43-0.04-12.06 0.32-12.85 1.25-0.61 0.71-1.57 4.22-2.14 7.79-0.56 3.57-1.68 8.07-2.47 10-1.15 2.81-2.15 3.65-5.11 4.25-2.36 0.48-4.67 0.3-6.43-0.51-2.13-0.97-2.81-2.04-3.02-4.75-0.15-1.92-1.03-6.64-1.96-10.49-1.35-5.56-2.39-7.62-5.08-10-1.87-1.65-4.56-5.03-5.98-7.5-1.41-2.47-4.29-6.41-6.39-8.75-2.1-2.34-4.05-5.26-4.33-6.5-0.28-1.24-1.52-2.58-2.75-2.99-1.23-0.4-6.07-0.69-10.74-0.63-4.67 0.06-9.29 0.32-10.24 0.58zm-591.68 211.7c-1.07 0.5-2.88 2.41-4.02 4.25-1.13 1.84-3.52 4.08-5.31 4.98-1.79 0.91-5.73 2.5-8.75 3.54-3.03 1.05-9.55 3.24-14.5 4.87-4.95 1.64-9.67 2.97-10.5 2.95-0.83-0.01-2.4 0.58-3.5 1.31-1.1 0.73-6.05 2.62-11 4.2-4.95 1.58-9.65 3.35-10.44 3.93-0.8 0.58-3.72 1.6-6.5 2.27-2.78 0.66-7.76 1.92-11.06 2.8-3.3 0.88-9.15 2.53-13 3.67-3.85 1.14-8.46 2.69-10.25 3.45-1.79 0.75-5.16 1.85-7.5 2.43-2.34 0.58-7.63 1.45-11.75 1.94-4.13 0.49-7.82 1.25-8.2 1.69-0.39 0.45-1.41 3.51-2.26 6.81-0.91 3.54-1.65 11.33-1.79 19l-0.25 13c47.27 0.29 66.17 0.85 72.5 1.42 7.44 0.68 13.62 0.72 17.5 0.11 3.3-0.52 21.52-1.06 40.5-1.2 29.17-0.21 36.04 0.02 44.5 1.49 5.5 0.97 12.47 2.36 15.5 3.1 3.02 0.74 8.76 2.3 12.75 3.46 3.99 1.17 8.83 2.12 10.75 2.12 1.92 0 5.86 0.97 8.75 2.17 4.08 1.68 6.31 2.01 10 1.5 2.61-0.37 5.65-1.12 6.75-1.67 1.83-0.92 2-2 2-13 0-8.16-0.5-13.52-1.56-16.75-1.37-4.19-1.42-7.76-0.39-30.25 0.64-14.03 1.23-28.43 1.31-32l0.14-6.5c-48.05-1.06-70.2-1.51-80.23-1.69-10.03-0.17-19.11 0.1-20.19 0.6zm1315.7 37.97c-2.05 0.72-4.01 2.16-4.36 3.21-0.35 1.05-1.04 2.47-1.53 3.16-0.58 0.81-0.17 2.22 1.14 4 1.12 1.51 2.02 3.31 2 4-0.01 0.69 0.7 1.59 1.59 2 0.89 0.41 2.8 2.92 4.25 5.58q2.63 4.83 6.88 7.25c2.34 1.33 4.89 3.43 5.66 4.67 0.78 1.24 2.47 2.56 3.75 2.95 1.38 0.41 2.87 0.21 3.63-0.5 0.72-0.66 1.28-2.1 1.25-3.2-0.03-1.1 0.57-2.9 1.34-4 0.77-1.1 1.94-4.03 2.6-6.5 0.66-2.47 2.17-5.56 3.36-6.86 1.19-1.3 2.91-2.65 3.82-3 1.51-0.58 1.47-1.05-0.5-5.14-1.91-3.99-2.78-4.7-7.66-6.31-3.03-0.99-9.55-1.98-14.5-2.21-5.84-0.26-10.31 0.05-12.72 0.9zm38.16 53.07c-0.82 0.85-2.65 1.55-4.06 1.55-1.41 0-3.55 1.01-4.76 2.25l-2.19 2.25c4.94 9.3 8.2 14.03 10.44 16.5 2.23 2.47 4.3 4.61 4.59 4.75 0.3 0.14 0.62-3.69 0.72-8.5 0.1-4.81-0.13-9.2-0.5-9.75-0.37-0.55-1.15-3.16-1.72-5.8-0.92-4.3-1.19-4.64-2.52-3.25zm179.11 36.61c-0.55 1.13-1.13 4.88-1.28 8.34-0.19 4.49 0.16 6.78 1.23 7.99 0.88 1 2.94 1.69 5 1.67 1.93-0.01 6.65 0.64 10.5 1.46 3.85 0.81 10.94 1.48 15.75 1.48 4.81 0 8.76-0.34 8.77-0.75 0.01-0.41-3.03-2.72-6.75-5.12-3.72-2.41-10.38-6.46-14.79-9-4.41-2.55-9.13-5.42-10.5-6.39-1.36-0.96-3.48-1.75-4.7-1.75-1.25 0.01-2.67 0.91-3.23 2.07z"/>
</svg>