<svg version="1.2" xmlns="http://www.w3.org/2000/svg" viewBox="0 0 3264 2448" width="3264" height="2448">
	<title>STG_Front_Right_SV2602705_2_b</title>
	<style>
		.s0 { fill: #00ff00 } 
	</style>
	<path id="Color Fill 1" fill-rule="evenodd" class="s0" d="m2296 90.63c11.28 0.22 25 0.87 30.5 1.45 5.5 0.57 12.93 1.77 16.5 2.66 3.57 0.88 9.2 2.7 12.5 4.04 3.3 1.34 10.05 4.6 15 7.26 4.95 2.66 11.7 5.82 15 7.02 3.3 1.21 8.25 3.9 11 5.99 2.75 2.09 7.81 5.19 11.25 6.88 3.44 1.69 6.47 3.07 6.75 3.07 0.28 0 10.06 4.68 21.75 10.4 11.69 5.71 26.88 12.89 33.75 15.94 6.88 3.05 20.15 9.51 29.5 14.36 9.35 4.86 24.88 12.73 34.5 17.51 9.63 4.78 20.65 9.97 24.5 11.53 3.85 1.57 13.64 6.77 21.75 11.56 8.11 4.78 16.21 10 18 11.6 1.79 1.59 6.18 4.09 9.75 5.54 3.57 1.46 8.13 3.87 10.13 5.36 2 1.48 5.15 3.86 7 5.28 1.85 1.41 6.97 4.18 11.37 6.15 4.4 1.96 18.69 7.22 31.75 11.67 13.74 4.69 28.49 10.48 35 13.75 6.19 3.11 15.53 7.55 20.75 9.87 5.22 2.32 15.35 6.91 22.5 10.21 7.15 3.3 18.18 8.17 24.5 10.82 6.32 2.65 13.75 6.04 16.5 7.53 2.75 1.48 7.93 3.63 11.5 4.78 3.57 1.14 8.53 3.59 11 5.44 2.47 1.85 11.25 6.58 19.5 10.51 8.25 3.93 15.34 7.15 15.75 7.16 0.41 0.02 10.09 4.35 21.5 9.63 11.41 5.28 26.6 12.55 33.75 16.15 7.15 3.6 15.03 7.55 17.5 8.76 2.47 1.21 6.97 3.02 10 4.01 3.03 1 13.82 6.06 24 11.24 10.18 5.19 21.43 11.19 25 13.33 3.57 2.14 9.88 5.14 14 6.68 4.13 1.54 9.53 3.97 12 5.41 2.47 1.43 8.32 5.93 13 10 4.68 4.07 9.69 8.95 11.13 10.86 1.45 1.9 2.89 4.36 3.19 5.46 0.31 1.1 1.04 3.91 1.62 6.25 0.69 2.76 2.81 6.18 6.06 9.75 2.75 3.02 5.74 6.96 6.65 8.75 1.14 2.25 1.89 7.55 2.44 17.25 0.44 7.7 1.49 18.05 2.33 23 0.85 4.95 2.46 18.9 3.59 31 1.13 12.1 2.44 23.58 2.92 25.5 0.48 1.92 1.21 8 1.63 13.5 0.42 5.5 0.65 18.55 0.51 29-0.14 10.45-0.41 23.73-0.6 29.5-0.19 5.77-0.99 12.75-1.79 15.5-1.18 4.04-1.41 11.99-1.21 41.5 0.13 20.08 0.97 49.33 1.86 65 0.89 15.67 2.08 31.42 2.64 35 0.56 3.58 1.49 13.48 2.05 22 0.57 8.52 1.63 24.27 2.36 35 0.72 10.73 1.57 19.95 1.87 20.5 0.3 0.55 1.09 5.27 1.76 10.5 0.69 5.43 1.15 19.58 1.07 33-0.08 12.92 0.33 32.73 0.91 44 0.58 11.27 1.48 28.38 2.01 38 0.52 9.63 1.41 25.6 1.96 35.5 0.55 9.9 1.48 22.72 2.06 28.5 0.59 5.78 1.52 23.78 2.07 40 0.54 16.22 1.39 33.78 1.88 39 0.49 5.22 1.22 20.97 1.63 35 0.41 14.03 0.86 28.65 1.01 32.5 0.15 3.85 0.73 15.1 1.3 25 0.56 9.9 1.49 20.47 2.05 23.5 0.57 3.03 1.05 10.9 1.08 17.5 0.03 6.6 0.49 17.85 1.02 25 0.53 7.15 1.56 23.35 2.28 36 0.73 12.65 1.03 25.92 0.66 29.5-0.37 3.58-0.32 13.03 0.1 21 0.43 7.97 1.74 19.45 2.92 25.5 1.65 8.49 2.3 16.82 2.84 36.5 0.51 18.51 1.08 26.19 2.07 28 0.75 1.38 2.42 3.63 3.72 5 1.81 1.92 2.48 4.01 2.88 9 0.28 3.58 0.94 10.33 1.46 15 0.52 4.67 1.41 18.17 2 30 0.58 11.83 1.5 25.1 2.06 29.5 0.55 4.4 1.1 19.47 1.23 33.5 0.2 23.61 0.06 26.05-1.96 33-2.16 7.45-2.17 7.75-1.1 49 0.8 31.01 0.78 42.57-0.07 45.75-0.71 2.63-2.2 5-3.9 6.21-1.51 1.08-5.68 2.47-9.25 3.08-3.57 0.61-8.19 1.52-10.25 2.03-2.43 0.6-4.06 1.72-4.64 3.18-0.49 1.24-1.19 4.72-1.56 7.75-0.37 3.03-1.06 6.17-1.54 7-0.76 1.33-1.03 1.33-2.45 0-0.88-0.83-1.7-2.33-1.83-3.35-0.14-1.16-1.71-2.36-4.23-3.23-2.2-0.77-6.7-1.39-10-1.4-3.3 0-9.6 0.85-14 1.9-4.4 1.05-13.4 2.41-20 3.03-6.6 0.61-15.82 1.54-20.5 2.06-4.68 0.53-11.88 1.22-16 1.54-4.12 0.33-13.35 1.23-20.5 2-7.15 0.78-15.25 2.11-18 2.96-3.46 1.07-12.71 1.84-30 2.5-13.75 0.53-26.8 1.4-29 1.93-2.2 0.53-11.2 1.42-20 1.99-8.8 0.56-24.55 1.49-35 2.06-10.45 0.56-23.72 1.49-29.5 2.06-5.78 0.58-19.28 1.62-30 2.31-10.72 0.7-20.18 1.65-21 2.11-0.82 0.46-6.68 1.2-13 1.64-6.32 0.45-16 1.31-21.5 1.92-5.5 0.61-15.85 1.55-23 2.09-7.15 0.54-18.63 1.36-25.5 1.83-6.87 0.46-14.53 1.29-17 1.83-2.47 0.54-10.13 1.28-17 1.64-6.87 0.36-16.1 1.09-20.5 1.64-4.4 0.54-14.75 1.45-23 2.02-8.25 0.56-21.97 1.43-30.5 1.92-8.53 0.49-17.07 1.37-19 1.95-1.93 0.58-5.86 1.05-8.75 1.05-2.89 0-8.51 0.7-12.5 1.56-3.99 0.86-8.82 1.33-10.75 1.04-1.93-0.29-16.32 0.14-32 0.95-15.68 0.81-30.55 1.81-33.06 2.21-2.5 0.41-6.33 1.91-8.5 3.35-2.17 1.43-6.08 3.79-8.69 5.25-4.26 2.37-4.75 3-4.75 6.14 0 2.73 1.1 4.81 5 9.5 2.75 3.3 4.78 6.45 4.5 7-0.29 0.59-5.94 1.01-27 1.05l-2.5-5.14c-1.37-2.82-3.29-5.53-4.25-6.02-0.96-0.49-6.36-0.88-12-0.87-5.97 0.01-12.75 0.66-16.25 1.57-3.3 0.86-9.82 1.94-14.5 2.41-4.68 0.47-17.5 1.79-28.5 2.94-11 1.14-22.47 2.81-25.5 3.71-3.03 0.9-7.07 2.55-9 3.68-2.77 1.62-5.63 2.11-24 2.67l1.34-3.75c0.74-2.06 2.09-4.99 3-6.5 1.23-2.03 1.4-3.27 0.66-4.75-0.55-1.1-2.01-2.41-3.25-2.91-1.24-0.5-10.35-1.22-20.25-1.6-9.9-0.38-20.7-1.28-24-2-3.3-0.72-12.75-1.82-21-2.45-8.25-0.62-18.6-1.57-23-2.09-4.4-0.52-10.36-0.95-13.25-0.95-2.89 0-5.93 0.22-6.75 0.5-0.94 0.31-1.48 1.72-1.46 3.75 0.03 1.8-0.69 3.92-1.61 4.75-1.43 1.3-2.82 1.33-10.29 0.26-4.75-0.68-10.67-1.45-13.14-1.72-2.47-0.26-9.45-0.92-15.5-1.46-6.05-0.54-14.15-1.43-18-1.98-3.85-0.55-10.15-1.27-14-1.6-3.85-0.34-14.65-1.94-24-3.55-9.35-1.62-22.4-3.82-29-4.9-6.6-1.08-14.14-2.2-16.75-2.5-2.61-0.3-7.34-1.4-10.5-2.43-3.62-1.19-10.39-2.13-18.25-2.55-7.39-0.4-17.2-1.72-24-3.25-6.33-1.41-12.29-3.07-13.25-3.69-0.97-0.62-1.76-1.69-1.75-2.38 0-0.69 1.24-2 2.75-2.91 2.15-1.3 4.94-1.62 12.75-1.47 5.5 0.1 11.43 0.29 13.17 0.41 1.94 0.14 4.26-0.6 6-1.89 1.72-1.28 2.83-3.04 2.83-4.47 0-2.01-1.06-2.78-7-5.05-4.57-1.76-11.51-3.24-20-4.28-7.15-0.87-15.17-1.59-17.83-1.59-4.05 0-5.3 0.48-7.75 3-1.6 1.65-2.92 3.67-2.92 4.5 0 0.83-1.35 2.4-3 3.5-1.65 1.1-4.24 4.41-5.75 7.35-1.51 2.95-4.88 9.36-7.49 14.25-2.6 4.9-6.83 12.28-9.39 16.4-2.56 4.13-5.94 9.19-7.51 11.25-1.57 2.06-2.86 3.97-2.86 4.25 0 0.28-3.43 5.79-7.62 12.25-4.2 6.46-9.44 15.13-11.66 19.25-2.22 4.13-7.01 11.4-10.63 16.16-5.05 6.63-7.53 9.02-10.59 10.2q-4 1.55-5.69 4.84c-1.25 2.45-2.02 8.57-3 23.8-0.72 11.28-1.27 31.3-1.23 44.5 0.05 13.2 0.61 28.61 1.25 34.25 0.64 5.64 1.78 11.49 2.53 13 0.74 1.51 3.33 3.94 5.75 5.39 2.41 1.46 6.19 3.13 8.39 3.71 2.2 0.59 5.21 2.32 6.68 3.86 1.47 1.53 2.93 4.03 3.25 5.54 0.41 2 0.1 3-1.18 3.66-0.96 0.49-5.58 1.21-10.25 1.59-6.25 0.5-10.15 1.45-14.75 3.59-4.32 2.01-7.87 2.92-11.5 2.95-2.89 0.03-7.28 0.46-9.75 0.96-2.47 0.5-5.03 1.49-5.68 2.2-0.65 0.72-1.78 5.58-3.82 20.3l-18.5 0.5v-28l-4.13-3.75c-4.02-3.65-4.1-3.84-2.93-7.25 0.66-1.92 2.57-5.08 7.31-10.5l-0.72-48.5c-0.4-26.67-1.17-51.2-1.73-54.5-0.55-3.3-1.18-9.15-1.4-13-0.28-4.76-0.93-7.48-2.03-8.5-1.42-1.31-3.38-1.34-15.75-0.22-7.76 0.7-17.27 1.77-21.12 2.37-3.85 0.6-10.15 1.76-14 2.57-3.85 0.81-8.8 1.8-11 2.2-2.2 0.4-5.46 1.48-7.25 2.4-2.82 1.46-4.33 1.54-11.5 0.6-6.05-0.8-11.18-0.78-19.25 0.08-6.05 0.64-18.87 2.03-28.5 3.08-9.62 1.06-29.42 3.26-44 4.89-14.58 1.63-33.7 3.68-42.5 4.55-8.8 0.87-18.7 1.98-22 2.48-3.3 0.49-12.53 1.37-20.5 1.95-7.97 0.59-15.62 1.28-17 1.55-1.37 0.27-9.25 1.18-17.5 2.03-8.25 0.84-18.83 2.17-23.5 2.95-4.67 0.78-13.9 1.87-20.5 2.43-6.6 0.56-18.08 1.51-25.5 2.1-7.42 0.6-15.41 1.51-17.75 2.04-2.34 0.52-8.53 0.95-13.75 0.95-6.92 0-10.92 0.53-14.75 1.94-3.83 1.41-5.58 2.69-6.47 4.75-0.67 1.54-1.87 4.84-2.67 7.31-0.8 2.47-1.43 7.42-1.42 11 0.02 4.22-0.58 7.73-1.71 10-1.53 3.08-1.86 9.19-2.76 51-0.56 26.13-0.92 52.22-0.56 68.5l10.34 9.94 9.79 0.53c7.21 0.39 10.02 0.92 10.68 2.03 0.53 0.89 0.51 2.21-0.04 3.25-0.51 0.96-1.83 2.2-2.93 2.75-1.1 0.55-3.69 1.01-5.75 1.02-2.06 0.01-6.9 0.71-10.75 1.55-3.85 0.85-15.1 2.63-25 3.95-9.9 1.32-19.58 2.87-21.5 3.44-1.92 0.57-5.19 1.04-7.25 1.04-2.06 0-5.89-0.87-8.5-1.93-2.61-1.06-9.03-3.61-14.25-5.67-5.22-2.05-10.96-4.56-12.75-5.56-1.97-1.12-3.25-2.63-3.25-3.84 0-1.39 1.46-2.73 4.75-4.37 2.61-1.31 7.45-3.16 10.75-4.13 3.38-0.99 7.13-2.9 8.58-4.38 2.57-2.61 2.59-2.71 3.25-24.62 0.37-12.1 0.67-38.09 0.67-57.75 0-29.49-0.28-36.84-1.6-42-0.92-3.61-1.36-7.94-1.03-10.25 0.32-2.2 0.2-6.92-0.27-10.5-0.7-5.43-1.32-6.91-3.79-9-1.63-1.37-3.93-4.97-5.11-8-1.18-3.03-4.47-8.2-7.31-11.5-2.83-3.3-6.05-7.8-7.15-10-1.1-2.2-3.11-7.15-4.47-11-1.35-3.85-3.71-11.28-5.24-16.5-1.54-5.22-3.93-11.75-5.33-14.5-1.4-2.75-3.15-7.19-3.87-9.87-0.73-2.69-1.89-5.27-2.58-5.75-0.75-0.53-3.37-0.3-6.5 0.57-2.89 0.79-7.28 1.7-9.75 2.01-2.47 0.32-12.6 1.69-22.5 3.07-9.9 1.37-18.56 2.71-19.25 2.98-0.69 0.27-7.21 0.96-14.5 1.53-7.29 0.56-16.17 1.65-19.75 2.41-3.58 0.76-10.33 1.67-15 2.02-4.67 0.35-11.87 1.03-16 1.51-4.12 0.48-12.67 1.37-19 1.99-6.33 0.61-16 1.57-21.5 2.13-5.5 0.56-19.45 2.09-31 3.41-11.55 1.31-28.2 3.1-37 3.96-8.8 0.87-18.7 1.83-22 2.15-3.3 0.32-9.15 1.22-13 2.02-3.85 0.79-15.1 2.09-25 2.89-9.9 0.8-22.73 2.19-28.5 3.09-7.74 1.21-13.65 1.48-22.5 1.02-6.6-0.35-16.73-1.49-22.5-2.54-5.77-1.04-14.55-3.04-19.5-4.43-4.95-1.4-19.8-5.5-33-9.11-13.2-3.61-29.62-8.65-36.5-11.19-6.87-2.55-14.98-5.44-18-6.43-3.02-0.99-12.02-3.87-20-6.39-7.98-2.52-19.23-5.7-25-7.06-5.77-1.37-14.55-3.54-19.5-4.82-4.95-1.29-10.35-3.03-12-3.88-1.65-0.84-8.06-2.94-14.25-4.66-6.19-1.72-14.88-4.82-19.31-6.88-7.61-3.54-8.12-3.97-9.01-7.75-0.53-2.2-1.47-5.8-2.1-8-0.74-2.55-1.2-14.52-1.29-33-0.09-20.45-0.49-29.66-1.34-31.25-0.66-1.24-1.87-2.25-2.7-2.25-0.83 0-3.41 1.44-5.75 3.21-2.34 1.76-5.83 3.54-7.75 3.95-1.92 0.42-6.2 0.38-9.5-0.07-3.3-0.46-7.46-1.56-9.25-2.46-2.61-1.31-3.27-2.27-3.36-4.88-0.07-1.79-0.28-4.6-0.48-6.25-0.19-1.65-0.59-3.56-0.88-4.25-0.33-0.78-1.74-1.08-3.78-0.79-1.79 0.25-6.55 1.04-10.58 1.75-5.17 0.91-7.75 1.88-8.77 3.29-0.86 1.19-1.44 4.42-1.46 8-0.02 3.3-0.46 8.03-1 10.5-0.53 2.47-1.61 8.1-2.4 12.5-0.79 4.4-1.94 10.47-2.57 13.5-0.62 3.03-1.72 6.17-2.43 7-0.71 0.83-3.04 4.85-5.17 8.96-2.13 4.1-5.45 9.26-7.37 11.47-1.92 2.21-5.52 6.07-8 8.59-2.48 2.51-6.98 5.7-10 7.08-3.02 1.39-9.33 3.59-14 4.91-8.38 2.35-8.77 2.37-27 1.22-10.17-0.64-23.68-2.1-30-3.23-6.32-1.13-14.43-3-18-4.15-3.57-1.15-11.23-4.45-17-7.33-7.08-3.52-14.09-6.09-21.5-7.87-6.05-1.46-13.25-2.66-16-2.67-2.93 0-6.65-0.82-9-1.98-2.2-1.08-5.12-3.63-6.5-5.66-2.06-3.04-2.45-4.67-2.21-9.26 0.17-3.35-0.58-8.99-1.87-14.08-1.62-6.35-2.03-10.27-1.65-15.5 0.42-5.64-0.04-9.18-2.37-18.25-1.6-6.19-2.9-12.83-2.9-14.75 0-2.9-1.15-4.8-6.75-11.1-3.99-4.49-8.59-8.53-11.25-9.86-2.48-1.25-5.78-3.79-7.35-5.65-1.56-1.87-4.14-6.09-5.72-9.39-1.59-3.3-3.57-8.7-4.42-12-0.84-3.3-2.15-7.35-2.92-9-0.77-1.65-2.13-7.95-3.03-14-0.9-6.05-2.5-14.37-3.56-18.5-1.05-4.12-2.22-9.08-2.6-11-0.37-1.92-1.07-4.17-1.54-5-0.47-0.83-1.75-6.67-2.84-13-1.1-6.33-2.66-15.1-3.49-19.5-0.82-4.4-1.5-10.92-1.5-14.5-0.01-3.58 0.69-11.9 1.54-18.5 0.86-6.6 2-16.05 2.55-21 0.54-4.95 1.38-13.5 1.85-19 0.48-5.5 1.34-24.17 1.91-41.5 0.57-17.33 1.28-33.75 1.57-36.5 0.29-2.75 0.09-6.58-0.44-8.5-0.61-2.22-0.62-6.06-0.03-10.5 0.51-3.85 1.17-23.65 1.47-44 0.3-20.35 1.02-44.2 1.61-53 0.58-8.8 1.37-29.95 1.75-47 0.38-17.05 1.1-31.67 1.6-32.5 0.51-0.83 1.34-17.47 1.86-37 0.52-19.53 0.87-40.22 0.79-46-0.08-5.78 0.07-11.4 0.33-12.5 0.26-1.1 1.63-2.56 3.04-3.25 1.41-0.69 4.26-1.27 6.32-1.28 2.45-0.03 5.65-1.2 9.25-3.39 3.02-1.85 9.21-5.21 13.75-7.47 4.54-2.26 10.73-5.69 13.75-7.61 3.02-1.92 5.84-3.5 6.25-3.5 0.41 0 3.45-1.8 6.75-4 3.3-2.2 10.27-5.87 15.5-8.16 5.23-2.29 11.07-5.17 13-6.39 1.93-1.23 10.02-5.72 18-9.97 7.98-4.26 20.35-10.78 27.5-14.49 7.15-3.71 16.15-8.57 20-10.8 3.85-2.22 14.2-7.66 23-12.08 9.71-4.87 17.21-9.32 19.09-11.32 2.01-2.15 5.13-3.92 9-5.11 3.25-1 7.93-2.74 10.41-3.86 2.48-1.13 6.52-3.51 9-5.31 2.48-1.79 6.75-4.39 9.5-5.76 2.75-1.37 6.13-2.83 7.5-3.23 1.38-0.41 6.33-2.9 11-5.52 4.67-2.63 18.4-10.06 30.5-16.51 12.1-6.46 25.6-13.54 30-15.73 4.4-2.2 9.8-5.45 12-7.23 2.2-1.77 9.63-5.82 16.5-8.99 6.88-3.17 17.34-8.53 23.27-11.91 5.92-3.37 15.59-9.22 21.5-13 5.9-3.78 14.11-8.78 18.23-11.11 4.13-2.32 11.77-6.11 17-8.41 5.23-2.3 14.67-6.77 21-9.93 6.33-3.16 19.15-9.71 28.5-14.56 9.35-4.85 21.05-11.08 26-13.85 4.95-2.77 11.7-6.85 15-9.08 3.3-2.22 9.15-5.1 13-6.4 3.85-1.3 9.7-4.08 13-6.19 3.3-2.11 11.17-6.69 17.5-10.17 6.33-3.49 14.88-8.07 19-10.19 4.13-2.11 7.95-4.25 8.5-4.74 0.55-0.49 14.27-7.93 30.5-16.54 16.23-8.6 33.33-17.7 38-20.2 4.67-2.51 13.45-7.14 19.5-10.3 6.05-3.16 15.05-7.89 20-10.5 4.95-2.61 12.15-6.55 16-8.76 3.85-2.2 9.92-5.65 13.5-7.67 3.58-2.01 8.08-4.19 10-4.83 1.92-0.64 5.75-2.58 8.5-4.31 2.75-1.72 7.7-4.49 11-6.15 3.3-1.66 8.47-4.7 11.5-6.76 3.03-2.05 10.67-6.18 17-9.17 6.33-2.99 14.09-7.09 17.25-9.12 3.16-2.03 7.89-4.69 10.5-5.9 2.61-1.22 10.15-5.32 16.75-9.11 6.6-3.79 16.05-8.93 21-11.42 4.95-2.5 16.88-9.28 26.5-15.07 9.63-5.8 23.58-13.42 31-16.95 7.42-3.53 16.42-8.11 20-10.17 3.58-2.07 11.22-6.25 17-9.29 5.78-3.05 12.08-6.46 14-7.59 1.92-1.13 6.42-3.67 10-5.66 3.58-1.99 10.33-5.54 15-7.89 4.67-2.36 15.25-7.82 23.5-12.13 8.25-4.32 16.8-9.07 19-10.56 2.2-1.49 8.5-5.31 14-8.49 5.5-3.19 18.55-10.05 29-15.25 10.45-5.19 21.03-10.84 23.5-12.55 2.47-1.7 11.03-6.89 19-11.53 7.97-4.64 20.58-11.92 28-16.18 7.42-4.26 17.1-9.34 21.5-11.28 4.4-1.94 12.05-5.65 17-8.25 4.95-2.6 9.67-5.28 10.5-5.96 0.83-0.67 4.65-2.92 8.5-5 3.85-2.08 8.91-5.06 11.25-6.62 2.34-1.56 4.59-2.85 5-2.86 0.41 0 6.83-3.44 14.25-7.64 7.42-4.19 15.97-9.1 19-10.89 3.03-1.8 10.9-6.17 17.5-9.7 6.6-3.54 15.6-8.38 20-10.76 4.4-2.39 11.15-6.21 15-8.51 3.85-2.29 13.53-7.77 21.5-12.17 7.97-4.4 19-10.38 24.5-13.3 5.5-2.91 11.35-6.3 13-7.51 1.65-1.22 5.92-3.7 9.5-5.5 3.58-1.81 8.08-4.29 10-5.51 1.92-1.22 13.85-7.76 26.5-14.53 12.65-6.76 27.95-14.99 34-18.28 6.05-3.29 14.83-7.96 19.5-10.39 4.67-2.43 9.17-5 10-5.71 0.83-0.71 6-3.77 11.5-6.8 5.5-3.03 14.5-7.88 20-10.79 5.5-2.91 12.03-6.7 14.5-8.43 2.47-1.73 6.97-4.44 10-6.02 3.03-1.58 7.97-4.52 11-6.53 3.03-2.01 12.25-6.98 20.5-11.04 8.25-4.05 18.6-9.46 23-12.01 4.4-2.55 10.03-5.99 12.5-7.65 2.47-1.66 7.88-4.75 12-6.86 4.13-2.11 9.75-5.24 12.5-6.95 2.75-1.71 9.95-5.74 16-8.96 6.05-3.21 12.13-6.61 13.5-7.54 1.38-0.93 5.65-3.39 9.5-5.46 3.85-2.07 10.15-5.55 14-7.74 3.85-2.19 10.6-6.04 15-8.55 4.4-2.51 12.72-7.1 18.5-10.21 5.78-3.11 12.97-7.15 16-8.99 3.03-1.83 8.2-4.55 11.5-6.04 3.3-1.49 12.75-6.44 21-10.99 8.25-4.55 21.3-11.65 29-15.76 7.7-4.12 16.03-8.72 18.5-10.22 2.47-1.5 10.35-5.8 17.5-9.56 7.15-3.76 16.15-8.71 20-10.99 3.85-2.29 11.28-6.57 16.5-9.52 5.22-2.94 12.76-7.29 16.75-9.66 3.99-2.37 7.59-4.3 8-4.3 0.41 0.01 5.03-2.52 10.25-5.62 5.22-3.11 11.97-6.78 15-8.16 3.03-1.38 7.97-3.3 11-4.26 4.7-1.49 8.49-1.69 26-1.34zm-1895.27 1536.15c-0.87 0.2-2.3 1.69-3.16 3.3-0.88 1.64-1.84 6.76-2.18 11.67-0.49 7.02-0.27 9.54 1.1 12.75 0.94 2.2 2.01 4.62 2.36 5.38 0.36 0.77 1.1 1.44 1.65 1.5 0.55 0.07 1.11-1.12 1.25-2.63 0.21-2.27 0.91-2.91 4-3.68 2.06-0.52 4.43-1.73 5.25-2.7 0.83-0.96 2.1-4.26 2.82-7.31 0.73-3.06 1.75-7.59 2.27-10.06 0.51-2.47 0.71-5.06 0.42-5.75-0.28-0.69-1.97-1.26-3.76-1.27-1.79-0.02-4.86-0.38-6.84-0.8-1.97-0.43-4.3-0.61-5.18-0.4zm1471.27 126.13c-3.58 0.35-7.74 1.41-9.25 2.36-2.33 1.47-2.74 2.38-2.66 5.98 0.06 2.34-0.39 7.4-0.99 11.25-0.84 5.41-1.71 7.64-3.84 9.82-2.68 2.73-2.78 3.26-3.48 17.5-0.39 8.07-0.81 16.93-0.93 19.68-0.11 2.75 0.26 9.72 0.83 15.5 0.58 5.78 1.56 11.51 2.18 12.75 0.63 1.24 2.15 2.9 3.39 3.7 1.97 1.27 2.6 1.27 5 0 1.51-0.8 4.5-4.04 6.63-7.2 2.14-3.16 4.42-7.78 5.08-10.25 0.65-2.47 0.93-5.51 0.62-6.75-0.32-1.24-0.24-2.42 0.17-2.62 0.41-0.2 2.61-3.47 4.89-7.25 3.31-5.51 4.26-8.18 4.75-13.38 0.34-3.58 1.07-9.88 1.63-14 0.56-4.13 1.24-9.53 1.51-12 0.27-2.47 1.42-6.53 2.55-9 1.13-2.47 2.48-5.18 3-6 0.51-0.83 1.15-2.06 1.43-2.75 0.27-0.69-0.18-2.38-1.01-3.75-1.1-1.84-2.63-2.65-5.75-3.05-2.34-0.31-5.37-0.7-6.75-0.87-1.37-0.17-5.42-0.03-9 0.33zm142.95 18.34c-0.82 0.69-2.39 2.27-3.47 3.52-1.97 2.26-1.97 2.27 0.02 3.77 1.1 0.83 3.58 2.35 5.5 3.38 2.03 1.09 7.7 2.37 13.5 3.05 5.5 0.65 11.8 1.57 14 2.05 2.2 0.48 11.2 1.33 20 1.89 8.8 0.55 18.47 1.5 21.5 2.11 3.03 0.6 8.43 1.79 12 2.65 3.57 0.85 11 1.61 16.5 1.69 9.4 0.13 10.06 0.28 11 2.43 0.55 1.26 2.01 2.5 3.25 2.75 1.24 0.25 2.96-0.1 3.83-0.79 0.94-0.75 1.35-2.05 1.01-3.25-0.32-1.1 0.08-2.9 0.89-4 0.8-1.1 1.47-2.34 1.49-2.75 0.02-0.41-3.01-2.16-6.72-3.89-4.36-2.03-10.65-3.81-17.75-5.01-6.05-1.02-18.2-2.73-27-3.79-8.8-1.07-19.15-2.67-23-3.56-3.85-0.89-13.53-2.03-21.5-2.54-7.97-0.5-16.54-0.93-19.03-0.94-2.48-0.01-5.2 0.54-6.02 1.23zm-726.27 14.5c-0.23 0.41-0.75 2.55-1.15 4.75-0.4 2.2-1.86 6.25-3.23 9-2.12 4.22-2.44 6.01-2.07 11.5 0.31 4.49 2.07 10.98 5.69 21 2.88 7.97 5.62 15.85 6.08 17.5 0.46 1.65 2.28 7.05 4.05 12 1.77 4.95 3.54 9.45 3.94 10 0.41 0.55 1.05 2.35 1.44 4 0.38 1.65 2.02 5.81 3.64 9.25 1.61 3.44 2.91 6.81 2.9 7.5-0.02 0.69 0.88 2.49 2 4 1.33 1.81 2.8 2.66 4.28 2.5 1.96-0.22 2.41-1.16 3.49-7.25 0.69-3.86 1.53-20.69 1.88-37.5l0.62-30.5c-5.7-12.4-8.19-16.9-9.21-18-1.03-1.1-2.57-4.7-3.44-8-0.89-3.4-2.33-6.43-3.33-6.99-0.97-0.55-4.46-2.02-7.76-3.28-3.3-1.25-6.77-2.26-7.7-2.25-0.94 0.01-1.89 0.36-2.12 0.77zm428.6 7.11c-0.67 0.46-1.85 2.81-2.61 5.24l-1.39 4.4c-22.3 1.17-31.03 2.15-33.78 2.92-2.75 0.77-7.92 1.68-11.5 2.02-3.58 0.34-12.35 1.49-19.5 2.56-7.15 1.06-18.17 2.66-24.5 3.54-6.33 0.89-15.1 2.01-19.5 2.48-4.4 0.48-9.58 1.34-11.5 1.93-1.92 0.58-10.92 1.55-20 2.16-9.08 0.61-20.44 0.83-25.25 0.5-5.16-0.36-10.7-1.42-13.5-2.59-2.61-1.09-10.38-3.07-17.25-4.4-6.88-1.33-14.47-2.72-16.88-3.09-3.07-0.46-5.4-0.19-7.75 0.9-1.86 0.87-5.21 3.93-7.47 6.82-2.25 2.89-6.42 7.72-9.26 10.75-2.84 3.03-8.37 9.32-12.3 14-3.93 4.67-10.67 12.12-14.99 16.55-4.32 4.42-11.71 12.3-16.43 17.5-4.73 5.2-9.15 10.57-9.84 11.95-0.91 1.82-0.95 2.77-0.14 3.5q1.1 1 11.83-0.28c5.9-0.7 19.95-2.39 31.23-3.77 11.28-1.37 25.67-3.17 32-3.99 6.33-0.82 15.1-2.16 19.5-2.97 4.4-0.81 14.08-2.17 21.5-3.02 7.42-0.86 22.28-2.21 33-3.01 10.72-0.81 27.37-2.16 37-3.01 9.62-0.84 18.4-1.8 19.5-2.12 1.1-0.31 2.64-1.08 3.41-1.7 0.78-0.62 3.03-1.71 5-2.42 1.98-0.71 6.29-1.74 9.59-2.28 3.3-0.55 13.2-1.2 22-1.45 8.8-0.25 18.25-0.91 21-1.48 2.75-0.56 9.5-1.46 15-2 5.5-0.55 20.35-1.45 33-2.02 16.21-0.72 25.51-0.7 31.5 0.06 7.79 0.98 8.6 0.92 9.67-0.73 0.65-1 0.87-2.66 0.5-3.7-0.37-1.03-2.7-3.36-5.17-5.17-2.47-1.81-7.88-4.88-12-6.8-4.13-1.93-11.33-4.43-16-5.54-7.12-1.7-8.95-2.56-11.26-5.32-1.52-1.8-3.04-4.86-3.38-6.78-0.34-1.93-0.34-5.97 0.01-9 0.39-3.48 0.16-6.79-0.65-9-0.69-1.93-2.6-5.43-4.24-7.79-1.64-2.36-3.32-4.27-3.73-4.25-0.41 0.02-1.31-0.18-2-0.45-0.69-0.27-1.8-0.11-2.47 0.35zm-289.44 8.3c-0.91 0.74-2.86 3.81-4.33 6.84-1.47 3.03-3.02 6.17-3.45 7-0.42 0.82-2.45 4.87-4.51 9-2.06 4.12-4.8 9.53-6.09 12-1.3 2.47-5.72 11.03-9.83 19-4.11 7.97-10.26 19.9-13.67 26.5-4.84 9.37-6.07 12.6-5.58 14.75 0.45 2.01 1.23 2.75 2.87 2.74 1.24 0 4.5-1.29 7.25-2.86 2.94-1.67 10.5-8.57 18.36-16.74 7.34-7.64 15.42-16.59 17.94-19.89 2.52-3.3 8.22-9.6 12.65-14 4.43-4.4 13.57-14.19 20.3-21.75 10.57-11.86 12.11-14.02 11.25-15.75-0.63-1.25-2.4-2.22-4.75-2.58-2.06-0.32-7.35-1.49-11.75-2.61-4.4-1.11-11.83-2.24-16.5-2.51-6.22-0.35-8.94-0.12-10.16 0.86z"/>
</svg>