<svg version="1.2" xmlns="http://www.w3.org/2000/svg" viewBox="0 0 2448 3264" width="2448" height="3264">
	<title>STG_Front_Left_SV2602705_2_a</title>
	<style>
		.s0 { fill: #00ff00 } 
	</style>
	<path id="Color Fill 3" fill-rule="evenodd" class="s0" d="m1527.5 213.12c1.1-0.08 4.47 0.31 7.5 0.87 3.03 0.55 9.51 2.24 14.42 3.76 6.39 1.97 10.07 3.77 13 6.36 2.24 1.98 5.29 5.8 6.78 8.5 1.48 2.69 4.78 10.74 7.32 17.89 2.55 7.15 5.7 14.8 7.01 17 1.32 2.2 3.33 6.7 4.48 10 1.15 3.3 2.49 6.45 2.97 7 0.47 0.55 5.43 10.9 11.01 23 5.58 12.1 13.01 27.4 16.51 34 3.51 6.6 7.56 15.15 9 19 1.44 3.85 4.13 9.93 5.97 13.5 1.84 3.57 6.34 14.15 9.99 23.5 3.66 9.35 11.07 26 16.48 37 5.4 11 14.38 30.01 19.94 42.25 5.57 12.24 10.13 22.59 10.15 23 0.02 0.41 2.95 6.82 6.51 14.25 5.22 10.85 7.12 13.87 9.72 15.36 1.78 1.03 4.25 3.06 5.49 4.5 2.22 2.61 2.29 2.62 5.25 0.89 1.65-0.96 3.79-1.77 4.75-1.79 0.96-0.03 2.24 0.53 2.83 1.25 0.6 0.71 2.04 5.34 3.2 10.29 1.16 4.95 2.4 10.8 2.75 13 0.35 2.2 1.12 5.58 1.7 7.5 0.58 1.92 1.84 7.33 2.8 12 0.95 4.67 3.43 12.77 5.5 18 2.07 5.23 5.75 15.12 8.17 22 2.42 6.87 5.54 16.33 6.93 21 1.39 4.67 4.13 11.87 6.1 16 1.97 4.12 5.03 11.1 6.8 15.5 1.77 4.4 6.91 16.33 11.44 26.5 4.52 10.17 8.82 19.85 9.55 21.5 0.73 1.65 2.3 5.48 3.48 8.5 1.19 3.02 5.26 11.8 9.06 19.5 3.79 7.7 8.95 18.95 11.47 25 2.52 6.05 5.77 13.02 7.24 15.5 1.46 2.48 4.83 9.45 7.49 15.5 2.66 6.05 6.2 14.37 7.87 18.5 1.67 4.12 7.72 16.84 13.45 28.25 5.73 11.41 12.04 24.69 14.02 29.5 1.97 4.81 9.22 20 16.09 33.75 6.88 13.75 14.09 28.83 16.03 33.5 1.93 4.67 4.75 10.98 6.25 14 1.5 3.02 3.98 9.1 5.51 13.5 1.54 4.4 4.81 12.05 7.28 17 2.47 4.95 6.4 13.95 8.74 20 2.34 6.05 6.73 15.95 9.75 22 3.03 6.05 7.85 16.17 10.71 22.5 2.87 6.33 7.04 15.33 9.26 20 2.23 4.67 4.85 9.62 5.82 11 0.98 1.37 2.89 5.42 4.25 9 1.36 3.58 4.68 11.45 7.38 17.5 2.71 6.05 6.96 14.83 9.45 19.5 2.49 4.67 5.12 10.3 5.84 12.5 0.73 2.2 5.89 13.45 11.49 25 5.59 11.55 11.82 23.59 13.86 26.75 2.03 3.16 5.51 10.36 7.74 16 2.23 5.64 6.93 16.33 10.43 23.75 3.51 7.42 9.48 20.47 13.28 29 3.79 8.53 7.64 17.75 8.54 20.5 0.9 2.75 2.68 6.58 3.95 8.5 1.28 1.92 3.26 5.53 4.4 8 1.15 2.47 2.43 5.62 2.85 7 0.42 1.37 1.66 4.3 2.76 6.5 1.1 2.2 3.74 5.91 5.87 8.25 2.13 2.34 4.35 5.49 4.93 7 0.58 1.51 1.48 4.66 2 7 0.52 2.34 1.82 5.71 2.89 7.5 1.08 1.79 2.57 5.95 3.31 9.25 0.75 3.3 2.3 7.35 3.43 9 1.14 1.65 2.84 5.25 3.78 8 0.94 2.75 2.53 6.12 3.53 7.5 1 1.37 3.34 6.1 5.19 10.5 1.86 4.4 4.3 9.35 5.43 11 1.12 1.65 2.8 4.91 3.71 7.25 0.92 2.34 2.72 5.94 4.01 8 1.29 2.06 3.74 7.35 5.46 11.75 1.71 4.4 6.08 14.53 9.72 22.5 3.63 7.97 8.88 19 11.65 24.5 2.77 5.5 5.92 11.12 7 12.5 1.48 1.89 2.09 4.69 2.51 11.5 0.37 5.92 1.16 10.03 2.32 12 1.44 2.46 1.87 6.5 2.38 22.5 0.34 10.72 1.08 27.6 1.63 37.5 0.55 9.9 1.44 28.12 1.98 40.5 0.55 12.37 1.43 42.53 1.96 67 0.54 24.47 1.25 50.12 1.59 57 0.33 6.87 1.04 14.97 1.56 18 0.53 3.03 1.46 28.9 2.07 57.5 0.61 28.6 1.24 56.28 1.39 61.5 0.16 5.22 0.59 14.9 0.97 21.5 0.39 6.99 0.23 15.76-0.39 21-0.64 5.39-2.25 12-4.03 16.5-1.63 4.12-3.93 11.1-5.12 15.5-2.05 7.58-2.19 10.57-2.55 57-0.21 26.95-0.64 50.12-0.96 51.5-0.31 1.37-0.09 7.22 0.49 13 0.58 5.78 1.11 13.65 1.19 17.5 0.1 5.55-0.32 7.73-2.01 10.5-1.56 2.55-2.14 5.13-2.14 9.5 0 3.3-0.5 8.7-1.11 12-0.61 3.3-2.18 8.03-3.5 10.5-1.32 2.47-2.4 6.19-2.4 8.25 0 2.06-0.34 3.76-0.75 3.77-0.41 0.01-2.1-1.39-3.75-3.12-1.65-1.73-4.35-3.69-6-4.35-2.15-0.87-6.4-1-15-0.47-6.6 0.41-13.24 1.23-14.75 1.83-1.51 0.6-4.21 1.09-6 1.09-1.79 0.01-4.6 0.83-6.25 1.83-1.65 1-5.43 5.61-8.39 10.25-2.97 4.63-6.76 10.45-8.43 12.92-1.67 2.47-6.37 9.45-10.44 15.5-4.08 6.05-9.56 14.82-12.19 19.5-2.63 4.68-6.47 11.87-8.53 16-2.06 4.12-5.27 9.41-7.14 11.75-2.41 3.04-4.59 4.59-7.63 5.43-3.31 0.92-6.46 0.9-14.25-0.1-5.5-0.71-14.28-1.94-19.5-2.73-5.22-0.8-14.67-1.86-21-2.35-6.33-0.49-20.05-1.82-30.5-2.95-10.45-1.14-28.67-2.52-40.5-3.07-19.19-0.9-22.38-1.3-29.71-3.74-6.61-2.21-8.65-2.53-10.5-1.63-1.26 0.6-4.17 3.53-6.48 6.5-3.45 4.44-4.53 6.97-6.17 14.39-1.12 5.03-2.27 15.17-2.63 23-0.36 7.7-1.29 19.85-2.08 27-0.78 7.15-1.43 13.34-1.43 13.75 0 0.41-1.8 2.44-4.01 4.5-3.28 3.07-4.04 4.48-4.17 7.75-0.09 2.2 0.2 7.6 0.66 12 0.66 6.49 0.5 8.85-0.85 12.5-1.51 4.07-1.58 7.4-0.66 35 0.56 16.78 1.45 40.85 1.99 53.5 0.53 12.65 1.21 24.91 1.5 27.25 0.37 2.88 1.59 5.42 3.79 7.87 1.79 2 4.15 4.12 5.25 4.72 1.1 0.6 5.49 1.22 9.75 1.37 4.26 0.16 8.42 0.29 9.25 0.29 1.02 0 1.51 1.04 1.54 3.25 0.02 2.41-1.27 4.94-4.99 9.75-2.77 3.57-6.04 7.68-7.29 9.13-1.71 2-3.59 2.81-7.76 3.35-3.03 0.39-9.78 0.5-15 0.25-5.22-0.25-12.42-1-16-1.66-4.78-0.87-8.15-0.91-12.75-0.13-5.94 1.01-6.61 0.91-13.5-2.03-5.54-2.36-9.72-3.31-17.75-4.04-6.2-0.56-10.8-1.44-11.23-2.16-0.41-0.66-0.73-2.56-0.73-4.21 0.01-1.68 1.18-4.54 2.66-6.5 1.45-1.93 4.48-5.41 6.72-7.74 2.24-2.34 4.53-4.25 5.08-4.26 0.55-0.01 3.36-1.14 6.25-2.51 4.39-2.08 5.43-3.1 6.36-6.24 0.76-2.53 0.91-9.59 0.47-21.75-0.36-9.9-1.32-28.57-2.13-41.5-0.81-12.93-1.97-28.45-2.57-34.5-0.61-6.05-1.69-12.57-2.41-14.5-0.71-1.93-1.56-7.44-1.88-12.25-0.33-4.81-1.22-9.99-1.99-11.5-0.78-1.51-2.62-3.88-4.09-5.25-1.85-1.73-4.9-2.93-9.84-3.88-3.95-0.75-8.75-1.36-10.67-1.35-1.92 0.01-12.05-0.39-22.5-0.89-10.45-0.5-25.97-1.39-34.5-1.99-8.53-0.6-25.17-1.94-37-2.98-11.83-1.05-24.42-1.9-28-1.9-3.58 0-12.8-0.73-20.5-1.62-10.51-1.22-17.11-1.43-26.5-0.84-6.88 0.43-17.67 0.78-24 0.78-6.33 0-15.55-0.54-20.5-1.2-4.95-0.66-11.92-1.65-15.5-2.19-3.58-0.54-13.7-1.44-22.5-1.99-8.8-0.56-23.88-1.44-33.5-1.96-9.63-0.52-21.55-1.42-26.5-1.99-4.95-0.57-19.13-1.53-31.5-2.12-12.38-0.59-34.65-1.44-49.5-1.88-14.85-0.45-32.63-1.49-39.5-2.32-8.52-1.02-22.05-1.51-42.5-1.52-24.79-0.01-30.74-0.29-34.25-1.59-3.78-1.4-4.42-1.4-5.75-0.07-0.9 0.9-1.52 3.41-1.54 6.25-0.03 2.61-0.51 6.78-1.07 9.25-0.6 2.64-1.14 25.75-1.31 56-0.26 47.66-0.43 51.89-2.18 56.69-1.48 4.05-1.67 5.81-0.87 8 0.92 2.51 1.51 2.81 5.5 2.8 2.46-0.01 8.41-0.35 13.22-0.75 7.97-0.67 8.93-0.56 10.75 1.26 1.1 1.1 2.02 2.34 2.04 2.75 0.03 0.41-0.76 1.78-1.75 3.05-1.39 1.78-3.14 2.43-7.79 2.88-3.3 0.33-6.45 0.92-7 1.32-0.55 0.4-2.35 1.05-4 1.45-1.65 0.4-5.14 2.71-7.75 5.14-3.14 2.91-6.02 4.63-8.5 5.06-2.06 0.36-11.4 0.35-20.75-0.03-9.35-0.38-22.4-1.38-29-2.23-6.6-0.85-13.01-2.19-14.25-2.97-1.24-0.78-2.24-1.98-2.22-2.67 0.01-0.69 0.8-2.05 1.75-3.03 0.94-0.98 2.62-1.77 3.72-1.75 1.1 0.01 4.7-1.28 8-2.89 3.3-1.6 7.85-4.64 10.11-6.75 3.62-3.38 4.2-4.54 4.87-9.83 0.43-3.3 0.43-9.15 0.01-13-0.43-3.85-1.11-26.13-1.52-49.5-0.42-23.38-1.26-45.43-1.88-49-0.62-3.57-1.34-7.29-1.61-8.25-0.28-1.04-2.42-2.35-5.23-3.22-2.61-0.81-5.74-2.5-6.96-3.75-1.21-1.25-3.14-4.98-4.27-8.28-1.14-3.3-4.12-11.18-6.61-17.5-2.5-6.32-5.98-14.43-7.73-18-1.94-3.96-4.16-6.98-5.68-7.72-1.38-0.68-5.2-1.68-8.5-2.23-3.3-0.56-23.33-1.91-44.5-3.01-21.17-1.1-42.78-2.26-48-2.57-5.22-0.32-16.03-1.02-24-1.55-7.98-0.54-24.17-1.16-36-1.39-11.83-0.22-27.13-0.66-34-0.98-6.88-0.31-22.85-1.06-35.5-1.66-12.65-0.6-33.35-1.21-46-1.36-12.65-0.14-33.35-0.77-46-1.39-12.65-0.62-34.48-1.34-48.5-1.6-14.02-0.26-35.17-1-47-1.64-11.83-0.64-25.1-1.1-29.5-1.03-4.4 0.08-14.08-0.51-21.5-1.31-7.42-0.8-23.4-1.58-35.5-1.72-12.1-0.15-22.56 0.06-23.25 0.45-0.69 0.39-3.84 0.06-7-0.73-3.16-0.79-11.83-1.94-19.25-2.54-7.42-0.61-15.3-1.03-17.5-0.94-2.2 0.08-15.02-0.35-28.5-0.96-13.48-0.61-41.82-1.55-63-2.08-21.18-0.53-53.13-1.42-71-1.98-17.88-0.56-41.73-0.81-53-0.55-11.27 0.26-39.18 0.85-62 1.31-27.71 0.57-43 1.27-46 2.1-2.6 0.73-6.61 1-9.5 0.66-2.75-0.33-9.95-1.22-16-1.98-6.05-0.76-13.47-1.88-16.5-2.48-3.03-0.6-11.8-1.81-19.5-2.69-7.7-0.87-17.15-2.03-21-2.56-3.85-0.53-8.01-1.62-9.25-2.42-1.24-0.8-2.63-2.46-3.1-3.7-0.47-1.24-1.14-6.53-1.48-11.75-0.54-8.18-0.39-9.76 1.1-11.36 1.57-1.68 1.81-6.45 2.55-50 0.45-26.48 0.9-52.06 1.18-65.58l-3.5-2.92c-2.99-2.5-3.47-3.48-3.3-6.78 0.1-2.12 0.67-18.26 1.25-35.86 0.57-17.6 1.47-36.5 1.98-42 0.51-5.5 1.38-28 1.94-50 0.59-23.24 1.45-41.05 2.06-42.5 0.58-1.38 1.95-3.63 3.05-5 1.17-1.47 2.43-5.37 3.06-9.5 0.59-3.85 1.49-18.03 1.98-31.5 0.5-13.47 1.38-40.92 1.95-61 0.58-20.08 1.5-57.42 2.06-83 0.56-25.58 1.44-66.75 1.96-91.5 0.52-24.75 1.39-80.78 1.95-124.5 0.55-43.72 1.53-92.78 2.19-109 0.81-20.08 0.97-49.93 0.51-93.5-0.37-35.2-0.77-76.6-0.89-92-0.12-15.4 0.32-48.03 0.98-72.5 0.66-24.47 1.33-74.88 1.48-112 0.16-37.13 0.18-82.35 0.05-100.5-0.13-18.15-0.74-37.05-1.36-42-0.67-5.38-1.99-10.61-3.26-13-2.13-3.98-2.14-4.34-1.87-65.5 0.16-33.83 0.74-70.95 1.31-82.5 0.56-11.55 1.71-25.05 2.54-30 0.83-4.95 1.92-15.98 2.43-24.5 0.5-8.52 1.33-17.75 1.84-20.5 0.52-2.75 1.7-7.25 2.64-10 0.94-2.75 2.83-7.25 4.21-10 1.37-2.75 3.32-8.83 4.32-13.5 1-4.67 2.3-9.74 2.88-11.25 0.58-1.51 2.07-3.38 3.31-4.15 1.24-0.77 3.82-1.7 5.75-2.07 1.93-0.37 6.2-1.48 9.5-2.47 3.3-0.98 10.05-2.57 15-3.52 4.95-0.94 13.95-3.21 20-5.03 6.05-1.82 14.15-4.43 18-5.8 3.85-1.37 10.15-2.97 14-3.56 3.85-0.59 11.05-1.58 16-2.2 4.95-0.62 12.6-2.03 17-3.14 4.4-1.1 9.8-2.44 12-2.97 2.2-0.54 6.48-1.8 9.5-2.81 3.02-1 9.55-2.36 14.5-3.01 4.95-0.65 9.23-1.34 9.5-1.54 0.27-0.2 5.45-1.73 11.5-3.39 6.05-1.67 14.37-4.18 18.5-5.58 4.12-1.4 9.07-2.53 11-2.52 1.93 0.02 7.77-0.86 13-1.95 5.23-1.09 12.87-2.84 17-3.89 4.12-1.05 10.43-3.05 14-4.43 3.57-1.38 11.45-4.42 17.5-6.75 6.05-2.33 13.48-5.04 16.5-6.03 3.02-0.99 9.77-2.74 15-3.9 5.23-1.15 14-3.21 19.5-4.57 5.5-1.36 16.3-3.85 24-5.53 7.7-1.68 17.6-3.75 22-4.59 4.4-0.85 17.23-3.27 28.5-5.38 11.27-2.11 25-4.55 30.5-5.43 5.5-0.87 14.95-2.73 21-4.12 6.05-1.39 14.6-3.44 19-4.55 4.4-1.12 11.6-3.11 16-4.44 4.4-1.32 9.58-3.48 11.5-4.8 1.92-1.32 6.65-3.68 10.5-5.24 4.48-1.82 8.44-4.31 11-6.92 2.2-2.25 5.24-5.97 6.75-8.28 1.51-2.3 4.44-5.24 6.5-6.53 2.06-1.29 10.5-4.65 18.75-7.47 8.25-2.83 20.85-6.26 28-7.62 7.68-1.47 20.77-2.96 32-3.65 10.45-0.64 23.95-1.45 30-1.79 7.57-0.43 11.78-1.14 13.5-2.25 1.37-0.89 5.87-2.13 10-2.74 4.12-0.61 12.11-1.79 17.75-2.62 5.64-0.84 11.49-1.51 13-1.51 1.51 0.01 5.67-0.87 9.25-1.96 3.58-1.08 11-2.94 16.5-4.12 5.5-1.18 12.48-2.79 15.5-3.58 3.02-0.78 9.55-2.51 14.5-3.83 4.95-1.32 13.5-3.38 19-4.58 5.5-1.2 14.05-3.2 19-4.45 4.95-1.25 13.95-3.51 20-5.01 6.05-1.5 15.05-4.02 20-5.59 4.95-1.57 9.9-2.85 11-2.85 1.1 0 7.4-1.59 14-3.53 6.6-1.95 16.28-4.87 21.5-6.5 5.22-1.63 13.1-4.13 17.5-5.55 4.4-1.42 14.08-3.94 21.5-5.61 7.42-1.67 15.75-3.48 18.5-4.03 2.75-0.54 10.85-2.94 18-5.32 7.15-2.38 15.92-5.03 19.5-5.89 3.58-0.86 12.12-2.71 19-4.12 6.87-1.4 17.22-3.67 23-5.05 5.78-1.38 12.53-3.14 15-3.91 2.47-0.77 8.55-2.15 13.5-3.05 4.95-0.91 11.59-2.51 14.75-3.57 3.16-1.05 6.54-1.91 7.5-1.9 0.96 0 5.8-1.17 10.75-2.6 4.95-1.43 11.03-2.96 13.5-3.4 2.47-0.44 7.65-1.56 11.5-2.5 3.85-0.94 10.6-2.77 15-4.06 4.4-1.29 10.03-2.66 12.5-3.03 2.47-0.37 9-2.24 14.5-4.14 5.5-1.91 14.5-4.95 20-6.76 5.5-1.81 13.37-4.89 17.5-6.84 4.12-1.94 9.75-4.05 12.5-4.67 2.75-0.63 7.47-1.96 10.5-2.97 3.03-1 9.55-2.98 14.5-4.4 4.95-1.42 13.72-3.48 19.5-4.59 5.78-1.11 17.47-3.14 26-4.51 8.53-1.37 21.35-3.19 28.5-4.04 7.15-0.85 20.2-2.16 29-2.9 8.8-0.74 16.9-1.41 18-1.48zm233.5 1937.56c-4.67 2.47-10.08 5.73-12 7.27-1.92 1.53-5.53 3.81-8 5.06-2.47 1.25-9.45 5.51-15.5 9.48-6.05 3.96-14.15 9.11-18 11.43-3.85 2.33-9.27 5.66-12.04 7.41-2.76 1.74-6.59 4.39-8.5 5.89-1.9 1.5-4.13 2.73-4.96 2.73-0.83 0.01-2.51 0.92-3.75 2.03-1.68 1.51-2.02 2.46-1.33 3.77 0.51 0.96 2.87 3.59 5.25 5.83 2.38 2.24 6.13 5.42 8.33 7.06 2.2 1.65 7.15 4.93 11 7.3 3.85 2.37 12.27 9.31 18.72 15.43 6.45 6.12 14.55 13.66 18 16.74 3.45 3.09 9.57 7.81 13.59 10.5 4.02 2.69 8.52 5.67 10 6.63 1.48 0.95 5 2.08 7.82 2.5 3.97 0.59 5.51 0.42 6.8-0.74 1.29-1.17 1.65-3.28 1.63-9.5-0.02-4.4-0.5-20.82-1.07-36.5-0.56-15.68-1.49-41.21-2.06-56.75-1.02-28.19-1.03-28.25-3.23-28.14-1.21 0.05-6.03 2.11-10.7 4.57zm74.24 59.57c-0.59 0.73-1.02 10.34-1.05 23.25-0.03 12.1 0.25 24.15 0.63 26.78 0.37 2.63 1.13 4.73 1.68 4.65 0.55-0.07 1.52-3.8 2.16-8.28 0.64-4.48 1.48-11.97 1.85-16.65 0.53-6.49 0.31-9.8-0.92-14-0.89-3.03-1.61-8.09-1.6-11.25 0.01-3.16-0.39-5.75-0.88-5.75-0.49 0-1.33 0.56-1.87 1.25zm-176.24 4.6c-3.58 0.96-8.3 3.04-10.5 4.64-2.2 1.6-4.78 3.83-5.73 4.96-0.95 1.13-1.74 2.39-1.75 2.8-0.01 0.41 2.79 0.58 6.23 0.37 3.44-0.2 8.13-0.99 10.43-1.75 3.75-1.23 4.37-1.19 6 0.35 1 0.95 3.06 1.74 4.57 1.75 1.51 0.02 4.66-0.95 7-2.16l4.25-2.19c-9.3-8.27-12.45-10.64-13-10.59-0.55 0.05-3.92 0.87-7.5 1.82zm-485.47 10.68c-0.84 0.81-1.34 2.26-1.1 3.22 0.23 0.96 0.73 3.32 1.12 5.25 0.38 1.93 1.31 4.74 2.07 6.25 0.78 1.55 3.02 3.43 5.13 4.31 3.41 1.42 3.88 1.42 5.25-0.04 1.02-1.08 1.58-4.14 1.75-9.56 0.21-6.74-0.02-8.09-1.5-8.82-0.96-0.48-3.87-1.14-6.47-1.48-3.45-0.45-5.12-0.22-6.25 0.87zm168.47 3.82c-3.03 0.61-11.8 1.09-19.5 1.06-7.7-0.04-19.74-0.14-26.75-0.24-7.01-0.09-13.65 0.28-14.75 0.83-1.1 0.55-3.79 3.36-5.97 6.25-2.71 3.57-3.99 6.29-4 8.5-0.02 1.94 0.47 3.25 1.22 3.26 0.69 0.01 3.61-0.44 6.5-1 3.5-0.67 12.35-0.69 26.5-0.05 11.69 0.53 31.6 1.93 44.25 3.11 19.46 1.83 26.81 2.06 47.75 1.54 15.5-0.38 26.15-1.08 28.5-1.86 3.36-1.12 3.78-1.64 4-5 0.23-3.46 0.02-3.79-2.75-4.25-1.65-0.28-3.22-0.95-3.5-1.5-0.28-0.55 0.4-1.22 1.5-1.5 1.1-0.28 2.08-0.9 2.19-1.38 0.1-0.49-2.94-1.23-6.75-1.65-3.82-0.42-8.06-1.37-9.44-2.11-1.37-0.73-6.1-1.8-10.5-2.37-4.4-0.57-14.08-1.45-21.5-1.96-7.42-0.51-17.55-0.9-22.5-0.86-4.95 0.03-11.47 0.57-14.5 1.18zm-84.1 1.2c-2.16 1.23-3.84 1.29-9.93 0.38-4.03-0.61-8.04-0.82-8.9-0.47-1.22 0.5-1.44 1.57-0.98 4.84 0.32 2.31 1.23 5.55 2.01 7.2 1.22 2.6 2.02 3.04 5.91 3.27 3.05 0.18 5.29-0.3 6.97-1.5 1.37-0.97 4.67-2.9 7.33-4.27 2.66-1.38 5.59-3.77 6.51-5.32 1.6-2.68 1.59-2.88-0.32-4.26-1.1-0.8-2.9-1.43-4-1.4-1.1 0.03-3.17 0.72-4.6 1.53zm374.6 1.64c-1.1 0.62-3.69 2.63-5.75 4.47-2.27 2.02-5.23 3.56-7.5 3.9-2.06 0.3-4.76 0.75-6 1-1.24 0.24-2.25 0.89-2.25 1.44 0 0.55 1.24 1.26 2.75 1.58 1.51 0.33 5.56 1.45 9 2.5 4.77 1.47 9.87 1.98 21.5 2.17 9.44 0.15 17.54-0.23 21.25-1.01 3.3-0.7 7.01-1.94 8.25-2.75 2.19-1.45 2.3-1.35 4.25 4.01 1.1 3.03 2.01 6.06 2.01 6.75 0.01 0.69 0.91 3.16 2 5.5 1.46 3.12 2.99 4.67 5.74 5.81 2.06 0.86 8.03 2.03 13.25 2.59 5.22 0.57 14.34 1.21 20.25 1.44 8.14 0.31 10.76 0.11 10.79-0.84 0.03-0.69-4.36-5.53-9.75-10.75-5.38-5.23-11.82-10.96-14.29-12.73-2.47-1.77-8.33-5.75-13-8.84l-8.5-5.62c-8.81 2.88-11.07 3.05-14.5 2.35-2.47-0.51-9.63-0.99-15.91-1.07-8.08-0.11-12.09-0.58-13.75-1.62-1.29-0.81-3.58-1.46-5.09-1.44-1.51 0.02-3.65 0.54-4.75 1.16z"/>
</svg>