<svg version="1.2" xmlns="http://www.w3.org/2000/svg" viewBox="0 0 2448 3264" width="2448" height="3264">
	<title>Inside_trailer_reference</title>
	<style>
		.s0 { fill: #00ff00 } 
	</style>
	<path id="Color Fill 1" fill-rule="evenodd" class="s0" d="m2051 535.4c1.93 0.32 5.3 0.93 7.5 1.36 3.28 0.62 4.05 1.21 4.27 3.25 0.14 1.37 17.34 400.74 38.21 887.49 20.88 486.75 38.31 894.12 39.52 925.52l-3.5-1.15c-1.93-0.63-4.74-1.76-6.25-2.51-1.51-0.75-3.99-1.36-5.5-1.37-1.51 0-3.76 0.67-5 1.5-1.69 1.13-2.24 2.44-2.19 5.26 0.03 2.06 1.04 6.45 2.25 9.75 2.06 5.65 2.39 6.02 5.69 6.28 2.54 0.21 4.57-0.48 7.39-2.5 2.14-1.53 4.74-3.9 7.68-7.78l-0.01 6.5c0 3.57 0.64 20.22 1.44 37 0.8 16.78 1.46 33.76 1.5 45l-5-2.5c-2.75-1.37-5.79-2.51-6.75-2.53-0.96-0.02-2.51 0.77-3.44 1.75-0.93 0.98-2.39 3.47-3.25 5.53-0.86 2.06-1.95 8.81-2.42 15-0.49 6.45-1.51 12.53-2.38 14.25-0.84 1.65-3.19 5.03-5.22 7.5-2.37 2.9-4.41 7-5.71 11.5-1.12 3.85-2.43 9.47-2.91 12.5-0.48 3.03-1.38 7.75-2 10.5-0.62 2.75-2.44 9.28-4.03 14.5-1.6 5.22-3.33 11.97-3.84 15-0.52 3.03-2.13 10.9-3.58 17.5-1.44 6.6-3.73 17.18-5.08 23.5-1.36 6.32-3.99 20.05-5.86 30.5-1.87 10.45-5.01 24.63-6.98 31.5-1.96 6.88-4.47 15.31-5.56 18.75-1.1 3.44-3.17 13.11-4.61 21.5-1.44 8.39-2.72 17.5-2.86 20.25-0.13 2.75-0.84 7.47-2.9 16l5.69 7.25c3.13 3.99 7.26 8.26 9.18 9.5 1.92 1.24 4.12 3.6 4.9 5.25 0.77 1.65 1.73 5.47 2.13 8.5 0.4 3.03 1.12 6.51 1.6 7.75 0.49 1.24 1.1 7.54 1.36 14 0.38 9.34 0.14 12.67-1.17 16.25-1.34 3.64-1.43 5.07-0.49 7.5 0.63 1.65 1.16 4.69 1.17 6.75 0.01 3.01-0.53 4.09-2.74 5.47-2.45 1.53-7.98 1.8-51.25 2.5-26.67 0.43-67.17 1.15-90 1.6-22.83 0.44-141.4 0.68-263.5 0.52-122.1-0.15-258.9-0.77-304-1.36-51.13-0.68-154.28-0.86-274-0.48-105.6 0.34-225.08 0.62-265.5 0.64-40.42 0.01-93.75-0.28-118.5-0.65-32.16-0.49-50.85-0.32-65.5 0.59-11.27 0.7-32.2 1.37-46.5 1.49-14.3 0.12-31.17-0.23-37.5-0.76-6.33-0.53-18.7-1.32-27.5-1.75-8.8-0.43-17.58-1.25-19.5-1.82-1.92-0.57-9.13-2.06-16-3.3-11.18-2.02-12.82-2.59-15.54-5.35-2.83-2.89-3.08-3.74-3.74-13.09-0.39-5.5-0.71-16.53-0.71-24.5 0-12.74 0.24-14.89 1.99-17.75 1.1-1.79 3.01-3.91 4.25-4.71 1.24-0.8 5.51-1.93 9.5-2.5 3.99-0.57 9.05-1.94 11.25-3.04 2.2-1.1 4.56-3.14 5.25-4.53 1.07-2.17 0.85-3.85-1.56-11.75-1.55-5.07-3.46-10.68-4.25-12.47-0.79-1.79-3.19-9.66-5.32-17.5-2.14-7.84-5.04-19.65-6.44-26.25-1.41-6.6-3.96-18.75-5.66-27-1.71-8.25-4.25-20.18-5.65-26.5-1.41-6.32-3.62-16-4.93-21.5-1.3-5.5-2.85-13.15-3.43-17-0.58-3.85-1.48-9.25-2.01-12-0.52-2.75-1.84-9.72-2.92-15.5-1.08-5.78-2.47-11.85-3.08-13.5-0.61-1.65-1.76-7.16-2.55-12.25-0.8-5.09-1.93-10.49-2.51-12-0.58-1.51-1.71-5.68-2.51-9.25-1.01-4.52-2.97-8.79-6.42-14-2.73-4.12-6.68-9.53-8.78-12-3.69-4.34-3.85-4.84-4.48-14-0.36-5.22-1.57-12.65-2.7-16.5-1.12-3.85-2.15-9.7-2.28-13-0.13-3.3 0.37-22.65 1.11-43 1.11-30.31 1.12-37.9 0.06-42-1.14-4.4-1.09-5.3 0.38-7.5 0.92-1.37 2.62-3.62 3.77-5 1.97-2.34 2.03-2.93 0.94-9-0.87-4.86-0.89-12.41-0.1-30 0.59-12.93 1.07-34.53 1.08-48 0-13.47 0.49-29.68 1.07-36 0.59-6.32 1.37-17.63 2.42-38.73l6.5-6.27 0.14-15.75c0.08-8.66-0.03-17.55-0.25-19.75-0.21-2.2-0.33-6.93-0.26-10.5 0.07-3.57 0.47-9.87 0.91-14 0.74-7.1 0.65-7.63-1.63-10-2.38-2.47-2.41-2.71-2.4-22.5 0.01-11 0.58-47 1.27-80 0.7-33 1.72-73.05 2.27-89 0.56-15.95 1.43-47.9 1.95-71 0.52-23.1 1.2-49.42 1.51-58.5 0.31-9.08 1.01-28.87 1.56-44 0.54-15.12 1.42-40.1 1.96-55.5 0.53-15.4 1.18-39.92 1.43-54.5 0.25-14.58 0.7-29.65 1-33.5 0.31-3.85 0.99-21.85 1.52-40 0.53-18.15 1.21-52.8 1.51-77 0.31-24.2 1.03-73.47 1.61-109.5 0.58-36.03 1.24-65.84 1.48-66.25 0.23-0.41 1.09-48.56 1.9-107 0.81-58.44 1.95-122.22 2.53-141.75 0.58-19.53 1.24-54.62 1.47-78 0.23-23.37 0.48-115.4 0.57-204.5 0.11-114.78-0.17-163.38-0.95-166.75-0.6-2.61-2.63-8.24-4.49-12.5-1.86-4.26-4.79-11.01-6.5-15-1.71-3.99-2.88-7.7-2.61-8.25 0.3-0.6 4.01-0.84 9.25-0.6 4.81 0.21 24.73 0.72 44.25 1.12 23.1 0.47 43.36 0.32 58-0.43 12.37-0.63 71.77-1.56 132-2.07 60.23-0.5 143.48-1.18 185-1.5 41.52-0.32 91.25-1.01 110.5-1.52 19.25-0.51 63.12-1.4 97.5-1.98 34.37-0.58 79.6-1.49 100.5-2.03 20.9-0.54 58.47-1.06 83.5-1.15 25.03-0.1 69.8-1 99.5-2.02 29.7-1.01 67.72-2 84.5-2.2 16.78-0.19 31.17-0.72 32-1.18 0.83-0.46 19.5-1.14 41.5-1.51 22-0.37 54.17-1.6 71.5-2.75 18.33-1.21 55.75-2.59 89.5-3.29 31.9-0.67 72.17-1.32 89.5-1.45 17.33-0.13 47.92-0.5 68-0.82 20.08-0.33 45.72-1.06 57-1.63 11.28-0.57 27.47-1.25 36-1.52 8.53-0.26 24.5-0.87 35.5-1.35 11-0.48 29-0.97 40-1.09 11-0.12 20.22-0.44 20.5-0.72 0.28-0.27 2.07-0.23 4 0.09zm-203 1941.49c-1.95 0.54-2.57 1.45-2.83 4.15-0.18 1.9 0.47 10.21 1.46 18.46 1.49 12.49 1.77 22.61 1.7 60.5-0.07 34.59-0.47 48.62-1.65 58.5-0.87 7.15-3.11 20.65-5 30-1.88 9.35-3.87 17.9-4.41 19-0.54 1.1-2.23 6.5-3.76 12-1.52 5.5-4.26 13.15-6.07 17-1.82 3.85-4.57 8.17-6.12 9.59-1.55 1.42-4.28 3.56-6.07 4.75-2.21 1.47-4.21 4.32-6.25 8.91-1.64 3.71-4.35 8.1-6.02 9.75-1.66 1.65-3.01 3.56-3 4.25 0.01 0.69 1.03 1.25 2.27 1.25 1.24 0 4.95 1.41 8.25 3.14 5.28 2.76 6.66 3.06 11.5 2.56 3.03-0.32 7.53-0.17 10 0.34 2.47 0.51 7.65 1.61 11.5 2.44 3.85 0.84 8.24 1.52 9.75 1.52 1.51 0 4.21-0.73 6-1.62 2.36-1.18 4.61-1.45 8.25-0.99 2.88 0.36 5.53 0.2 6.25-0.38 0.69-0.56 2.94-0.73 5-0.4 2.06 0.34 4.87 1.31 6.25 2.16 1.51 0.94 3.49 1.31 5 0.93 1.68-0.42 4.13 0.22 7.5 1.96 4.05 2.1 5.76 2.46 9 1.89 2.2-0.39 4.67-0.67 5.5-0.62 0.83 0.04 6.45 0.43 12.5 0.86 7.37 0.53 14.13 0.38 20.5-0.45 5.22-0.68 11.3-1.77 13.5-2.41 2.2-0.64 5.18-2.13 6.62-3.3 1.43-1.17 3.46-2.63 4.5-3.24 1.57-0.92 1.72-1.57 0.88-3.96-0.89-2.56-2.28-3.3-13-6.95-6.6-2.26-14.03-5.25-16.5-6.67-2.47-1.41-6.08-2.85-8-3.21-1.92-0.35-5.89-2.31-8.8-4.37-3.45-2.42-5.62-4.78-6.19-6.73-0.49-1.65-1.15-6.82-1.47-11.5-0.32-4.68-1.02-17.72-1.56-29-0.54-11.28-1.88-39.85-2.98-63.5-1.1-23.65-2.01-47.72-2.02-53.5-0.01-5.78 0.4-10.95 0.91-11.5 0.5-0.55 1.1-1.9 1.33-3 0.24-1.1-0.35-3.57-1.3-5.5-0.95-1.93-2.02-5.3-2.38-7.5-0.36-2.2-1.95-8.28-3.52-13.5-1.58-5.22-4-13.32-5.37-18-1.38-4.68-3.4-9.62-4.49-11-1.76-2.21-3.01-2.58-10.82-3.16-4.86-0.37-14.47-0.66-21.34-0.65-6.88 0-13.63 0.32-15 0.7zm-1190.69 166.55c-1.53 1-1.64 2.65-1.07 16.08 0.34 8.24 0.92 17.45 1.29 20.48 0.52 4.27 0.1 7.62-1.85 15-1.39 5.22-3.01 10.74-3.6 12.25-0.59 1.51-2.77 4-4.83 5.54-2.45 1.82-6.17 3.24-10.75 4.1-3.85 0.72-8.8 2.12-11 3.11-2.2 0.99-5.75 2.63-7.89 3.65-2.14 1.02-5.36 3.88-7.16 6.35-1.8 2.47-3.59 5.63-3.97 7-0.58 2.08 0.03 3.2 3.66 6.7 4.29 4.13 4.48 4.2 11.36 4.16 3.85-0.03 9.14 0.45 11.75 1.05 3.72 0.85 6.11 0.77 11-0.37 3.44-0.8 10.3-1.44 15.25-1.42 4.95 0.02 11.48-0.45 14.5-1.05 3.03-0.6 8.54-1.09 12.25-1.08 3.71 0.01 7.99 0.5 9.5 1.1 1.51 0.6 6.35 1.1 10.75 1.12 5.91 0.01 9.44-0.55 13.5-2.15 3.23-1.28 8.39-2.32 12.5-2.51 3.85-0.18 8.76-0.72 10.91-1.19 2.32-0.51 4.31-1.67 4.89-2.86q0.97-2-0.13-7.5c-0.61-3.03-2.05-10.22-3.19-16-1.7-8.58-2.62-11.1-5.03-13.75-1.62-1.79-3.91-5.16-5.09-7.5-1.18-2.34-3.17-6.95-4.41-10.25-1.25-3.3-3.18-9.82-4.3-14.5-1.11-4.68-2.71-11.65-3.55-15.5-0.93-4.25-2.23-7.49-3.31-8.24-1.32-0.92-5.19-1.07-14.79-0.61-7.93 0.39-16.12 0.2-21-0.49-4.4-0.63-11.71-1.29-16.24-1.48-4.95-0.21-8.92 0.09-9.95 0.76z"/>
</svg>