<svg version="1.2" xmlns="http://www.w3.org/2000/svg" viewBox="0 0 3264 2448" width="3264" height="2448">
	<title>rear_left_reference</title>
	<style>
		.s0 { fill: #00ff00 } 
	</style>
	<path id="Color Fill 1" fill-rule="evenodd" class="s0" d="m762.25 12c2.06 0 6.79 1.15 10.5 2.55 3.71 1.4 11.44 4.88 17.16 7.75 5.73 2.86 12.48 7.05 15 9.31 2.53 2.27 7.74 5.71 11.59 7.65 3.85 1.94 12.17 7.68 18.5 12.75 6.33 5.07 12.17 9.48 13 9.79 0.83 0.32 5.1 2.98 9.5 5.93 4.49 3.01 10.85 6.23 14.5 7.35 3.58 1.1 11.23 4.07 17 6.61 5.77 2.53 16.35 7.27 23.5 10.52 7.15 3.25 13.9 6.3 15 6.77 1.1 0.47 7.06 3.14 13.25 5.94 6.19 2.79 11.81 5.07 12.5 5.06 0.69-0.01 1.7 0.43 2.25 0.96 0.55 0.54 5.5 2.85 11 5.14 5.5 2.29 11.8 4.82 14 5.63 2.2 0.8 5.8 2.28 8 3.28 2.2 0.99 8.61 3.88 14.25 6.41 5.64 2.53 10.48 4.6 10.75 4.6 0.27 0 5.11 2.07 10.75 4.59 5.64 2.53 13.17 5.95 16.75 7.61 3.58 1.66 10.1 4.56 14.5 6.46 4.4 1.89 10.03 4.3 12.5 5.35 2.47 1.05 11.03 4.66 19 8.03 7.97 3.36 16.3 7.14 18.5 8.4 2.2 1.26 6.47 3.21 9.5 4.34 3.03 1.12 15.85 6.65 28.5 12.27 12.65 5.63 29.75 13.01 38 16.41 8.25 3.4 16.35 6.89 18 7.75 1.65 0.87 6.83 3.16 11.5 5.09 4.67 1.94 13.22 5.54 19 8 5.78 2.47 15.45 6.57 21.5 9.11 6.05 2.54 12.8 5.47 15 6.52 2.2 1.04 8.5 3.91 14 6.38 5.5 2.47 14.28 6.39 19.5 8.72 5.22 2.32 13.55 5.91 18.5 7.96 4.95 2.06 15.3 6.55 23 9.97 7.7 3.42 17.6 7.72 22 9.55 4.4 1.83 14.08 6 21.5 9.26 7.42 3.26 14.4 6.42 15.5 7.03 1.1 0.61 7.4 3.56 14 6.56 6.6 3 13.13 5.78 14.5 6.18 1.38 0.4 4.97 1.96 8 3.47 3.03 1.51 10.45 4.68 16.5 7.03 6.05 2.35 11.9 4.86 13 5.56 1.1 0.71 5.38 2.71 9.5 4.45 4.13 1.73 8.85 3.72 10.5 4.41 1.65 0.69 6.6 2.87 11 4.84 4.4 1.97 12.61 5.41 18.25 7.64 5.64 2.23 13.29 5.56 17 7.39 3.71 1.83 8.33 3.92 10.25 4.65 1.92 0.73 9.35 3.99 16.5 7.25 7.15 3.26 14.35 6.54 16 7.29 1.65 0.75 4.8 2.02 7 2.82 2.2 0.8 7.83 3.24 12.5 5.43 4.67 2.19 9.63 4.32 11 4.73 1.38 0.42 5.2 2.12 8.5 3.78 3.3 1.67 10.5 5.03 16 7.49 5.5 2.45 16.3 7.06 24 10.23 7.7 3.18 17.38 7.24 21.5 9.02 4.13 1.78 11.55 5.02 16.5 7.19 4.95 2.17 11.92 5.22 15.5 6.78 3.58 1.56 12.69 5.57 20.25 8.92 7.56 3.35 13.97 6.09 14.25 6.09 0.28 0 3.54 1.4 7.25 3.12 3.71 1.71 10.58 4.6 15.25 6.43 4.67 1.82 13.22 5.31 19 7.76 5.78 2.45 13.88 6.02 18 7.92 4.13 1.91 12.45 5.55 18.5 8.1 6.05 2.54 18.42 7.83 27.5 11.75 9.08 3.92 20.78 8.89 26 11.04 5.22 2.15 11.3 4.78 13.5 5.84 2.2 1.06 11.42 5.07 20.5 8.9 9.08 3.83 19.88 8.43 24 10.21 4.13 1.79 9.53 4.14 12 5.23 2.47 1.09 6.97 3.09 10 4.43 3.03 1.34 7.08 3.12 9 3.96 1.92 0.83 4.4 1.87 5.5 2.31 1.1 0.44 3.58 1.38 5.5 2.09 1.92 0.71 6.65 2.72 10.5 4.46 3.85 1.75 8.13 3.53 9.5 3.95 1.38 0.42 4.53 1.66 7 2.76 2.47 1.1 8.55 3.94 13.5 6.3 4.95 2.36 11.25 5.17 14 6.24 2.75 1.07 8.15 3.52 12 5.45 3.85 1.92 10.15 4.62 14 6 3.85 1.38 10.15 4.06 14 5.96 3.85 1.9 9.7 4.47 13 5.71 3.3 1.24 7.8 3.09 10 4.12 2.2 1.02 7.15 3.04 11 4.49 3.85 1.44 10.15 4.1 14 5.89 3.85 1.79 10.82 4.75 15.5 6.58 4.68 1.83 8.95 3.67 9.5 4.1 0.55 0.43 5.95 2.79 12 5.24 6.05 2.45 19.32 7.92 29.5 12.16 10.18 4.24 22.78 9.38 28 11.44 5.22 2.05 11.75 4.34 14.5 5.09 2.75 0.75 9.95 3.8 16 6.79 6.05 2.98 13.81 6.5 17.25 7.8 3.44 1.31 8.84 3.68 12 5.27 3.16 1.59 9.8 4.45 14.75 6.36 4.95 1.91 12.38 4.93 16.5 6.72 4.13 1.79 8.85 3.86 10.5 4.6 1.65 0.74 6.82 2.95 11.5 4.9 4.68 1.95 10.75 3.81 13.5 4.15 2.75 0.33 7.03 1.78 9.5 3.21 2.47 1.44 8.55 4.66 13.5 7.16 4.95 2.5 12.15 5.61 16 6.9 3.85 1.3 9.03 3.36 11.5 4.57 2.47 1.22 7.2 3.23 10.5 4.49 3.3 1.25 7.35 2.84 9 3.52 1.65 0.68 6.6 2.86 11 4.84 4.4 1.98 13.18 5.59 19.5 8.03 6.32 2.43 14.2 5.65 17.5 7.14 3.3 1.5 6.9 3.12 8 3.59 1.1 0.47 8.19 3.58 15.75 6.9 7.56 3.32 14.09 6.02 14.5 6 0.41-0.01 5.7 2.04 11.75 4.56 6.05 2.52 13.03 5.23 15.5 6.02 2.47 0.78 5.96 1.43 7.75 1.44 2.22 0.01 5.62 1.59 10.75 5.01 4.13 2.75 8.06 5.01 8.75 5.03 0.69 0.01 5.3 2.1 10.25 4.63 4.95 2.54 14.4 6.83 21 9.54 6.6 2.72 14.93 6.08 18.5 7.48 3.57 1.4 10.32 4.12 15 6.04 4.68 1.92 14.57 5.96 22 8.96 7.43 3.01 17.1 7.07 21.5 9.04 4.4 1.96 9.35 4.12 11 4.81 1.65 0.68 10.43 4.25 19.5 7.92 9.07 3.67 20.78 8.66 26 11.09 5.22 2.42 10.06 4.41 10.75 4.43 0.69 0.02 5.86 2.11 11.5 4.66 5.64 2.54 12.5 5.4 15.25 6.36 2.75 0.95 7.03 2.65 9.5 3.77 2.47 1.12 7.43 3.26 11 4.76 3.57 1.5 9.31 4.02 12.75 5.6 3.44 1.58 6.7 2.88 7.25 2.88 0.55 0 4.94 1.75 9.75 3.89 4.81 2.15 9.88 4.23 11.25 4.62 1.38 0.4 4.3 1.53 6.5 2.52 2.2 0.98 11.65 5.03 21 8.99 9.35 3.96 21.95 9.33 28 11.94 6.05 2.6 16.18 6.89 22.5 9.52 6.32 2.63 12.4 5.14 13.5 5.57 1.1 0.43 4.93 1.9 8.5 3.28 3.57 1.37 13.93 5.62 23 9.45 9.07 3.82 19.54 8.36 23.25 10.08 3.71 1.73 7.09 3.15 7.5 3.15 0.41 0.01 6.04 2.49 12.5 5.5 6.46 3.02 12.09 5.48 12.5 5.48 0.41-0.01 3.11 1.11 6 2.5 2.89 1.38 5.59 2.51 6 2.52 0.41 0 7.05 2.64 14.75 5.86 7.7 3.23 16.25 6.8 19 7.94 2.75 1.14 10.63 4.31 17.5 7.04 6.88 2.73 15.88 6.5 20 8.39 4.13 1.89 9.3 4.02 11.5 4.73 2.2 0.72 7.82 3.21 12.5 5.54 4.85 2.41 9.89 5.78 11.75 7.86 1.79 1.99 3.51 4.87 3.82 6.38 0.32 1.51 1.18 4.78 1.93 7.25 0.75 2.47 1.62 7.2 1.94 10.5 0.32 3.3 0.74 30.75 0.92 61 0.19 30.25 0.63 55.56 0.99 56.25 0.36 0.69 0.87 7.78 1.15 15.75 0.28 7.97 1.22 18.66 2.09 23.75 0.88 5.09 2.02 13.75 2.54 19.25 0.52 5.5 1.33 14.95 1.79 21 0.46 6.07 1.56 12.68 2.46 14.75 1.07 2.48 1.62 6.62 1.62 12.25 0 7.43 0.35 9.11 2.75 13.37 2.57 4.55 2.67 5.12 1.44 8.75-0.9 2.65-1.21 8.1-1 17.22 0.3 12.84 0.4 13.41 2.81 15.34 1.54 1.23 3.58 1.87 5.3 1.66 1.77-0.22 3.33 0.3 4.25 1.41 1.06 1.28 1.18 2.29 0.45 3.75-0.8 1.61-0.38 2.83 5.37 10.5l-0.56 12c-0.44 9.22-0.23 12.81 0.88 15.5 0.94 2.28 1.25 5.24 0.89 8.5-0.31 2.75-0.86 7.47-1.23 10.5-0.56 4.6-0.32 6.07 1.46 9 1.17 1.92 2.14 4.96 2.16 6.75 0.02 1.79-0.37 4.26-0.87 5.5-0.49 1.24-1.23 5.4-1.63 9.25-0.74 6.95-0.72 7.03 2.64 10.93 2.75 3.18 3.52 5.08 4.06 10 0.49 4.35 0.31 6.49-0.62 7.57-0.71 0.83-1.61 2.85-2 4.5-0.39 1.65-0.79 4-0.88 5.23-0.09 1.22-0.73 2.46-1.42 2.75-0.88 0.36-0.95 0.97-0.25 2.02 0.55 0.83 0.78 2.17 0.5 3-0.29 0.87-2.28 1.75-4.75 2.1-2.34 0.32-5.26 1.22-6.5 2-1.96 1.22-2.25 2.24-2.25 14.4l-10.95 8.5-15.78 1.22c-8.67 0.67-23.42 1.69-32.77 2.28-9.35 0.58-22.62 1.72-29.5 2.52-6.87 0.8-14.77 2.25-17.55 3.22-2.77 0.97-6.6 3.05-8.5 4.63-1.9 1.58-4.57 3.44-5.95 4.13-1.37 0.7-4.97 1.58-8 1.97-3.03 0.38-7.75 1.34-10.5 2.12-2.75 0.79-6.46 1.43-8.25 1.42-1.79-0.01-11.69 1.36-22 3.04-10.31 1.68-21.63 3.82-25.16 4.75-4.44 1.18-6.67 2.32-7.26 3.7-0.46 1.1-1.96 2.67-3.33 3.5-1.37 0.83-3.27 3.53-4.21 6-0.94 2.47-3.19 6.41-5 8.75-1.81 2.34-3.29 4.47-3.29 4.75 0 0.28-1.3 2.41-2.89 4.75-2.07 3.04-3.5 7.23-5.02 14.75-1.17 5.78-2.8 12.97-3.63 16-0.82 3.03-2.17 10.45-2.99 16.5-0.83 6.05-2.59 14.15-3.91 18-1.33 3.85-3.17 11.5-4.09 17-0.92 5.5-2.19 10.63-2.82 11.4-0.76 0.93-1.28 8.65-1.52 22.5-0.21 11.61-0.32 25.6-0.25 31.1 0.06 5.5 0.53 12.03 1.02 14.5 0.5 2.47 1.87 6.97 3.03 10 1.36 3.51 3.38 6.5 5.6 8.25 1.91 1.51 3.47 3.65 3.47 4.75 0 1.42-1.38 2.63-4.75 4.15-3.04 1.38-6.73 2.15-10.25 2.14-3.58-0.01-8.81-1.15-15-3.29-5.22-1.8-10.29-3.66-11.25-4.14-0.96-0.47-2.43-2.21-3.25-3.86-0.82-1.65-2.39-7.16-3.47-12.25-1.65-7.7-2-13.44-2.08-34.25-0.06-13.75-0.52-29.39-1.03-34.75-0.51-5.36-1.83-12.56-2.93-16-1.11-3.44-2.02-7.37-2.03-8.75 0-1.37-1.04-4.3-2.3-6.5-1.27-2.2-2.79-5.8-3.4-8-0.6-2.2-1.47-5.76-1.93-7.9-0.52-2.48-1.85-4.68-3.63-6-2.42-1.82-2.92-1.9-3.73-0.6-0.52 0.83-0.94 12.53-0.94 26-0.01 13.47 0.46 29.67 1.02 36 0.76 8.39 0.73 12.31-0.1 14.5-0.62 1.65-3 5.25-5.29 8-2.29 2.75-5.06 5.77-6.16 6.72-1.1 0.94-5.77 4.32-10.37 7.5-7.68 5.3-9.58 6.1-23 9.63-8.05 2.12-20.48 5.39-27.63 7.25-7.15 1.87-13.79 3.4-14.75 3.4-0.96 0-4.34 0.95-7.5 2.11-3.16 1.16-10.7 3.45-16.75 5.08-6.05 1.64-15.5 4.07-21 5.41-5.5 1.34-17.2 4.05-26 6.03-8.8 1.98-17.13 3.82-18.5 4.09-1.37 0.27-7 1.77-12.5 3.34-5.5 1.56-11.57 3.5-13.5 4.31-1.93 0.81-6.87 2.22-11 3.12-4.12 0.91-12 2.76-17.5 4.1-5.5 1.35-14.28 3.76-19.5 5.36-5.22 1.6-11.53 3.63-14 4.52-3.37 1.2-5.25 1.36-7.5 0.62-2.12-0.7-3.51-2.17-4.75-5.04-0.96-2.23-1.75-5.06-1.75-6.3 0-1.24-1.57-9.9-3.49-19.25-1.92-9.35-3.5-18.24-3.5-19.75-0.01-1.51-0.62-4.21-1.37-6-0.75-1.79-2.29-6.17-3.43-9.75-1.5-4.69-2.37-11.36-3.12-24-0.57-9.62-1.24-21.55-1.48-26.5-0.24-4.95-0.88-10.12-1.43-11.5-0.55-1.37-1.91-5.42-3.03-9-1.11-3.58-2.52-9.2-3.12-12.5-0.59-3.3-2.26-8.47-3.7-11.5-1.43-3.03-3.23-7.3-3.99-9.5-0.76-2.2-1.38-5.35-1.38-7 0.01-1.65-0.88-6.04-1.98-9.75-1.76-6-2.26-6.75-4.48-6.75-1.37 0-3.85 0.67-5.5 1.5-2.22 1.11-3.29 2.6-4.11 5.75-0.61 2.34-1.55 5.38-2.07 6.75-0.63 1.64-0.59 3.88 0.11 6.5 0.58 2.2 1.06 4.34 1.06 4.75 0.01 0.41-0.55 0.77-1.24 0.79-0.69 0.03-1.93-0.67-2.75-1.54-0.82-0.87-2.96-1.57-4.75-1.54-1.79 0.02-7.19 1.67-12 3.66-4.81 1.99-11.22 4.86-14.25 6.38-3.03 1.52-11.8 4.43-19.5 6.46-7.7 2.03-18.05 4.84-23 6.23-4.95 1.39-12.26 3.38-16.25 4.42-3.99 1.04-8.04 2.3-9 2.81-0.96 0.51-9.85 3.02-19.75 5.6-9.9 2.57-22.28 6-27.5 7.63-5.22 1.63-18.05 5.69-28.5 9.03-10.45 3.34-20.35 6.63-22 7.32-1.65 0.69-5.93 2.41-9.5 3.82-3.57 1.42-8.75 3.01-11.5 3.54-2.75 0.53-8.82 1.44-13.5 2.02-4.68 0.58-12.55 1.55-17.5 2.17-4.95 0.62-13.95 1.99-20 3.05-6.05 1.06-15.95 3.07-22 4.47-6.05 1.4-15.72 3.38-21.5 4.4-5.78 1.01-17.93 2.82-27 4-9.07 1.19-23.25 3.26-31.5 4.6-8.25 1.35-17.03 2.88-19.5 3.4-2.47 0.52-12.82 2.14-23 3.6-10.18 1.46-21.43 3.28-25 4.04-3.57 0.76-6.87 1.72-7.33 2.13-0.45 0.42 2.1 6.84 5.68 14.26 3.57 7.42 7.09 14 7.82 14.62 0.73 0.62 1.84 2.42 2.46 4 0.62 1.58 2.05 6.26 3.17 10.38 1.13 4.13 2.76 10.88 3.64 15 0.87 4.13 1.58 9.3 1.58 11.5 0 2.2 0.69 5.35 1.55 7 0.86 1.65 1.96 7.5 2.46 13 0.49 5.5 1.31 14.05 1.83 19 0.51 4.95 0.76 22.05 0.55 38-0.22 15.95-0.87 31.25-1.46 34-0.59 2.75-1.73 8.83-2.54 13.5-0.81 4.67-1.87 10.97-2.35 14-0.48 3.03-1.87 9.1-3.09 13.5-1.22 4.4-2.59 9.8-3.03 12-0.45 2.2-2.44 8.95-4.42 15-1.98 6.05-5.61 15.05-8.06 20-2.45 4.95-5.02 11.2-5.71 13.89-0.69 2.69-2.15 5.84-3.25 7-1.1 1.16-3.14 3.01-4.53 4.11-1.39 1.1-3.61 3.58-4.94 5.5-1.33 1.92-4.24 5.54-6.47 8.04-2.23 2.5-5.46 7-7.17 10-1.7 3-5.75 7.89-9 10.86-3.24 2.97-7.47 6.45-9.39 7.72-1.92 1.28-8.67 3.68-15 5.34-6.33 1.67-13.97 3.01-17 2.99-3.03-0.01-9.55-0.92-14.5-2-4.95-1.09-15.53-3.12-23.5-4.52-10.01-1.76-15.89-3.33-19-5.06-2.47-1.38-8.55-3.6-13.5-4.93-4.95-1.33-10.8-2.96-13-3.62-3.16-0.95-5.68-0.92-12 0.12-4.4 0.73-10.03 2.14-12.5 3.13-2.47 0.99-7.65 2.76-11.5 3.93-6.35 1.92-8.22 2.04-33.11 0.5l-4.94-4.35c-2.72-2.4-6.64-5.21-12.45-8.15l-6.25 3.24c-3.57 1.85-8.83 5.87-12.25 9.37-3.73 3.81-7.94 9.69-11.11 15.51-2.82 5.16-6.18 12.76-7.48 16.88-2.17 6.89-3.04 8.19-10.77 16-4.63 4.68-10.11 10.97-12.17 14-2.1 3.08-9.76 10.78-17.41 17.5-7.51 6.6-16.23 13.44-19.36 15.19-3.14 1.76-9.75 4.36-14.7 5.78-4.95 1.43-13.05 3.1-18 3.71-6.63 0.82-13.21 0.82-25 0-11.81-0.83-19.54-1.99-29.5-4.44-13.39-3.29-13.56-3.37-20.32-9.28-3.76-3.28-11.41-11.07-17-17.32-8.5-9.48-11.26-13.44-16.71-24-3.6-6.95-7.29-13.76-8.21-15.14-0.91-1.37-3.65-8.57-6.08-16-2.43-7.43-5.02-14.85-5.76-16.5-0.75-1.65-2.49-4.48-3.89-6.3-1.87-2.43-3.31-3.29-5.53-3.29-1.65 0-3.51 0.58-4.13 1.3-0.62 0.71-0.81 2.18-0.41 3.29 0.39 1.1 0.33 4.03-0.14 6.5-0.46 2.47-2.4 6.75-4.31 9.5-3.25 4.68-3.47 5.51-3.48 13-0.01 5.45-0.5 8.72-1.52 10.25-0.83 1.24-2.97 2.51-4.76 2.83-1.79 0.32-7.75 1.9-13.25 3.51-5.82 1.71-13.76 3.19-19 3.56-8.63 0.6-9.47 0.47-20.49-3.26-6.77-2.29-14.17-5.63-18-8.13-4.17-2.72-9.38-5-14.51-6.36-4.4-1.17-9.69-2.97-11.75-4.01-2.06-1.04-5.21-3.18-7-4.76-2.72-2.39-3.37-3.83-3.97-8.75-0.59-4.84-1.64-7.21-5.92-13.38-4.72-6.79-5.29-8.21-6.05-15-0.46-4.12-1.44-8.62-2.19-10-0.75-1.37-3.03-5.65-5.07-9.5-2.05-3.85-4.9-8.58-6.35-10.5-1.45-1.92-3.72-4.62-5.05-6-1.32-1.37-4.38-5.87-6.79-10-2.41-4.12-5.24-9.3-6.28-11.5-1.04-2.2-2.43-5.8-3.07-8-0.65-2.2-3.52-7.83-6.38-12.5-4.48-7.33-5.95-8.9-10.66-11.43-3.01-1.6-11.32-4.91-18.47-7.35-7.15-2.43-15.7-5.83-19-7.55-3.3-1.72-9.38-6.41-13.5-10.42-6.13-5.97-8.23-7.4-11.5-7.85-2.2-0.3-5.8-0.4-8-0.23-3.68 0.3-4.1 0.65-5.31 4.33-0.96 2.96-1.32 12.75-1.36 37.5-0.04 22.8 0.33 35.42 1.17 39.5 0.74 3.6 0.94 8 0.51 11-0.39 2.75-1.04 24.35-1.43 48-0.69 40.97-0.82 43.19-2.82 47-1.15 2.2-3.82 5.98-5.93 8.39-2.11 2.41-5.63 5.27-7.83 6.36-3.89 1.91-5.02 1.93-42 0.82-20.9-0.63-70.17-2.08-109.5-3.22-39.33-1.14-91.98-2.37-117-2.74-42.55-0.63-45.75-0.8-49.35-2.64-2.11-1.08-4.48-2.98-5.25-4.22-0.77-1.24-2.41-4.84-3.65-8-2.06-5.25-2.24-7.26-2.09-23.25 0.08-9.62 0.66-20.42 1.28-24 0.62-3.58 1.67-17.97 2.34-32 0.67-14.03 1.11-32.59 0.72-57l-4.21-6.25c-2.31-3.44-5.5-8.95-7.09-12.25-1.59-3.3-3.46-6.67-4.15-7.5-0.69-0.83-2.48-4.87-3.98-9-1.5-4.12-3.4-9.75-4.22-12.5-0.83-2.75-2.16-7.7-2.96-11-0.8-3.3-1.91-9.6-2.46-14-0.56-4.4-1.33-8.37-1.72-8.83-0.39-0.45-1.71-0.23-2.93 0.5-1.22 0.73-2.68 2.23-3.25 3.33-0.57 1.1-3.47 5.38-6.46 9.5-2.98 4.13-7.88 11.1-10.88 15.5-2.99 4.4-7.08 11.15-9.08 15-2 3.85-6.34 10.15-9.64 14-3.31 3.85-7.43 9.47-9.17 12.5-1.73 3.03-5.09 8.09-7.47 11.25-2.38 3.16-5.3 7.66-6.49 10-1.19 2.34-4.14 7.17-6.55 10.75-2.41 3.58-8.75 11.15-14.08 16.84-6.74 7.18-11.4 13.29-15.23 20-3.03 5.31-8.84 14.16-12.91 19.66-4.07 5.5-8.53 11.58-9.91 13.5-1.38 1.92-5.69 6.45-9.59 10.06-4.34 4.03-7.74 8.18-8.82 10.75-0.96 2.31-3.29 5.88-5.17 7.94-1.89 2.06-4.19 5.55-5.11 7.75-1.13 2.68-1.95 8.77-2.49 18.5-0.45 7.97-1.53 17.43-2.42 21-1.16 4.7-2.49 7.39-4.83 9.7-2.42 2.39-5.23 3.71-11.23 5.27-4.4 1.14-14.75 3.58-23 5.41-8.25 1.84-15.79 3.63-16.75 3.98-1.14 0.42-2.87-0.36-5-2.25-2.38-2.11-9.02-4.82-24.75-10.09-11.83-3.97-23.19-8.07-25.25-9.12-2.06-1.04-7.01-2.77-11-3.84-3.99-1.07-13.77-4.26-21.75-7.1-7.98-2.84-18.55-6.51-23.5-8.15-4.95-1.65-12.6-4.34-17-5.98-4.4-1.64-12.16-4.52-17.25-6.41-5.09-1.88-13.3-4.32-18.25-5.42-4.95-1.1-11.59-2.94-14.75-4.09-3.16-1.15-13.18-4.67-22.25-7.84-9.07-3.16-22.35-8.34-29.5-11.51-7.15-3.17-17.95-7.29-24-9.17-6.05-1.88-16.18-5.17-22.5-7.31-6.32-2.15-19.15-6.68-28.5-10.09-9.35-3.4-21.73-7.68-27.5-9.51-5.77-1.82-15-4.9-20.5-6.83-5.5-1.93-17.2-6.28-26-9.67-8.8-3.39-20.5-7.85-26-9.92-5.5-2.06-13.37-5.24-17.5-7.05-4.12-1.81-10.2-4.08-13.5-5.03-3.3-0.95-12.41-4.26-20.25-7.36-7.84-3.09-14.59-5.63-15-5.64-0.41-0.02-5.03-1.6-10.25-3.53-5.22-1.92-12.43-4.82-16-6.43-3.57-1.62-13.03-5.45-21-8.52-7.97-3.07-15.62-6.21-17-6.97-1.37-0.77-2.95-2.07-3.5-2.9-0.69-1.03-0.57-2.69 0.36-5.32 1.02-2.84 1.24-7.61 0.86-18.81-0.27-8.25-0.21-15.5 0.14-16.12 0.35-0.61 2.89-2.48 5.64-4.14 4.16-2.51 5.42-4.01 7.5-8.88 2.41-5.66 2.49-6.56 2.32-25.86-0.09-11-0.4-28.55-0.68-39-0.29-10.45-0.98-25.53-1.56-33.5-0.57-7.97-1.49-20.8-2.04-28.5-0.54-7.7-1.28-20.08-1.64-27.5-0.51-10.81-0.99-13.9-2.4-15.5-0.96-1.1-3-4.03-4.53-6.5-1.53-2.47-4.86-6.75-7.4-9.5-4.12-4.45-4.88-6.04-6.95-14.5-1.85-7.58-2.35-12.53-2.46-24.5-0.13-13.93 0.06-15.6 2.66-23.5 2.29-6.95 3.74-9.5 7.94-14 2.83-3.03 7.31-6.96 9.94-8.75 2.86-1.93 5.61-4.87 6.8-7.25 1.81-3.62 2-6.04 2.03-25.25 0.02-13.48-0.35-21.62-1.01-22.25q-1.03-1-8.28 0.67c-4.11 0.96-8.48 1.39-10.11 1-1.58-0.37-3.25-1.12-3.7-1.67-0.46-0.55-0.38-6.4 0.19-13 0.57-6.6 0.77-13.69 0.46-15.75-0.32-2.06-0.16-5.44 0.35-7.5 0.72-2.88 1.7-4.08 4.25-5.16 2.18-0.93 4.86-1.2 7.82-0.78 2.47 0.35 5.4 0.92 6.5 1.26 1.11 0.34 2.69 0.02 3.54-0.72 1-0.88 1.81-4.16 2.29-9.35 0.41-4.4 1.12-26.67 1.56-49.5 0.45-22.83 1.1-42.06 1.46-42.75 0.36-0.69 0.89-18.01 1.18-38.5 0.3-20.49 0.96-39.5 1.48-42.25 0.52-2.75 0.88-8.83 0.8-13.5-0.08-4.67 0.22-21.1 0.67-36.5 0.45-15.4 0.53-29.69 0.17-31.75-0.62-3.55-0.85-3.75-4.4-3.74-2.06 0-5.1 0.7-6.75 1.55-1.65 0.86-3.9 1.33-5 1.05-1.1-0.28-3.27-1.77-7.65-6.11l1.67-9.5c0.92-5.22 2.06-12.42 2.53-16 0.47-3.58 0.55-6.95 0.17-7.5-0.37-0.55-0.81-4.83-0.98-9.5-0.17-4.67-0.34-14.8-0.39-22.5-0.05-7.7 0.03-17.37 0.17-21.5 0.14-4.12 0.21-10.87 0.15-15-0.06-4.12 0.31-12.45 0.81-18.5 0.51-6.05 1.02-18.2 1.13-27 0.12-8.8 0.59-18.7 1.05-22 0.46-3.3 1.32-21.53 1.92-40.5 0.59-18.98 1.22-39.67 1.39-46 0.17-6.33 0.82-30.62 1.45-54 0.63-23.37 1.55-44.75 2.05-47.5 0.5-2.75 0.95-9.27 1.01-14.5 0.05-5.23 0.71-17.6 1.47-27.5 0.76-9.9 1.18-18.23 0.95-18.5-0.24-0.27 0.82-1.75 5.1-6.06l-2.38-4.22c-2.34-4.15-2.37-4.53-1.75-22.47 0.35-10.04 1.19-20.47 1.88-23.19 1.09-4.31 1.04-5.17-0.38-6.75-1.45-1.61-1.58-5.32-1.22-34.31 0.22-17.87 0.94-38.8 1.59-46.5 0.66-7.7 1.29-19.4 1.4-26 0.11-6.6 0.45-23.02 0.75-36.5 0.3-13.48 0.99-26.52 1.53-29 0.55-2.48 1.02-16.87 1.05-32 0.05-20.29 0.45-29.34 1.55-34.5 0.81-3.85 1.48-8.46 1.48-10.25 0-1.79 1.18-6.06 2.63-9.5 1.44-3.44 3.66-7.6 4.94-9.25 1.27-1.65 3.21-5.02 4.32-7.5 1.53-3.42 2.17-7.73 2.69-18 0.55-10.88 0.35-15.05-1.02-21.5-0.94-4.4-2.2-9.35-2.8-11-0.6-1.65-2.76-6.37-4.8-10.5-2.04-4.12-4.17-9.98-4.72-13-0.56-3.02-0.73-7.83-0.38-10.68 0.35-2.86 1.09-5.64 1.64-6.2 0.55-0.55 5.72-4.39 11.5-8.53 5.78-4.14 15.68-10.94 22-15.12 6.32-4.17 15.87-10.38 21.22-13.78 5.34-3.4 21.54-14.18 36-23.94 14.45-9.76 28.76-19.48 31.78-21.59 3.02-2.1 9.43-6.49 14.24-9.74 4.81-3.26 10.95-7.04 13.64-8.42 2.69-1.37 7.08-4.2 9.76-6.27 2.67-2.07 11.74-8.37 20.15-14 8.41-5.63 17.63-11.69 20.5-13.47 2.86-1.79 7.01-4.61 9.21-6.28 2.2-1.66 6.7-4.95 10-7.31 3.3-2.36 12.3-8.5 20-13.66 7.7-5.15 17.82-12.07 22.5-15.37 4.68-3.29 12.55-8.97 17.5-12.61 4.95-3.64 11.48-8.26 14.5-10.28 3.02-2.01 8.43-5.73 12-8.27 3.57-2.53 10.32-7.11 15-10.18 4.67-3.07 14.58-9.63 22-14.58 7.42-4.96 14.19-9.73 15.02-10.61 0.84-0.89 6.69-5.12 13-9.42 6.32-4.29 16.21-11.16 21.98-15.25 5.77-4.09 12.08-8.22 14-9.17 1.92-0.94 6.42-3.75 10-6.24 3.58-2.48 11.09-7.89 16.71-12.02 5.61-4.13 12.81-9.16 16-11.19 3.18-2.02 10.06-6.64 15.29-10.27 5.23-3.63 12.55-8.72 16.29-11.32 3.73-2.6 9.88-6.76 13.67-9.23 3.78-2.48 11.02-7.42 16.07-11 5.06-3.58 11.39-8.19 14.08-10.25 2.69-2.06 6.58-4.71 8.64-5.88 2.06-1.17 8.17-5.33 13.57-9.25 5.41-3.91 13.06-9.26 17-11.87 5.36-3.54 8.13-4.75 10.93-4.75zm2075.15 1549.25c-0.39 0.69-0.62 4.4-0.53 8.25 0.12 4.98 0.74 7.94 2.15 10.25 1.09 1.79 1.98 4.37 1.98 5.75 0 1.37 0.34 2.69 0.75 2.92 0.41 0.23 2.55-0.06 4.75-0.64l4-1.06c-0.01-11.29-0.59-15.25-1.4-16.72-0.77-1.38-2.67-4.19-4.24-6.25-1.59-2.08-3.73-3.75-4.81-3.75-1.07 0-2.27 0.56-2.65 1.25zm-2181.77 317.5c-0.26 0.41-2.04 5.47-3.94 11.25-1.91 5.78-3.57 12.3-3.68 14.5-0.11 2.2-0.16 5.91-0.11 8.25q0.1 4.24 1.6 4.75c0.82 0.28 2.22 0.16 3.1-0.25 0.88-0.41 3.06-3.68 4.85-7.25 2.52-5.03 3.43-8.42 4.02-15 0.69-7.58 0.54-8.96-1.35-12.75-1.17-2.34-2.55-4.25-3.07-4.25-0.52 0-1.16 0.34-1.42 0.75zm-309.43 12c-1.3 1.26-2.27 5.15-3.5 14-1.53 10.99-1.55 12.74-0.21 17 0.82 2.61 1.49 7.34 1.5 10.5 0.01 5.6 0.13 5.86 4.79 10 3.74 3.32 6.53 4.74 12.75 6.48 4.39 1.22 13.26 4.03 19.72 6.25 6.46 2.21 12.31 4.01 13 4.01 0.69-0.01 5.97 1.38 11.75 3.08 5.77 1.71 18.82 5.83 29 9.16 10.47 3.43 23.49 8.54 30 11.78 6.32 3.15 14.42 6.63 18 7.75 3.57 1.12 8.75 2.39 11.5 2.82 3.09 0.49 6.15 1.79 8 3.39 1.65 1.43 4.8 3.75 7 5.16 2.2 1.42 5.01 2.86 6.25 3.22 1.55 0.45 2.87 0.03 4.25-1.35 1.1-1.1 2.01-3.01 2.03-4.25 0.02-1.24 0.91-3.6 1.99-5.25 1.76-2.69 2.06-5.81 2.9-30 0.52-14.85 1.24-28.13 1.61-29.5 0.38-1.4 0.12-3.6-0.59-5l-1.26-2.5c-26.03 1.47-30.08 1.29-40.68-0.41-6.88-1.1-18.13-3.61-25-5.58-6.88-1.97-16.1-4.87-20.5-6.46-4.4-1.58-14.98-5-23.5-7.6-8.53-2.6-20-6.05-25.5-7.67-5.5-1.62-16.98-4.71-25.5-6.87-8.53-2.15-16.06-3.92-16.75-3.91-0.69 0-2.06 0.79-3.05 1.75zm314.8 43.31c-1.93 1.65-4.63 3.61-6 4.36-1.38 0.75-5.6 1.84-9.39 2.42-4.28 0.67-7.69 1.81-9 3.03-1.16 1.08-2.89 4.36-3.85 7.3-0.95 2.93-1.74 5.89-1.75 6.58 0 0.69-0.91 3.28-2.01 5.75-1.1 2.47-2.43 7.54-2.96 11.25-0.52 3.71-1.37 9.67-1.87 13.25-0.51 3.57-0.97 13.7-1.03 22.5l-0.12 16c5.1 4.65 8.58 6.96 11.03 8.14 2.45 1.18 6.02 2.69 7.95 3.37 1.92 0.68 7.1 2.57 11.5 4.21 4.4 1.64 9.8 3.21 12 3.48 3.13 0.39 4.28 0.1 5.28-1.35 0.95-1.36 1.31-7.69 1.36-23.85 0.05-12.1 0.2-25.15 0.35-29 0.14-3.85 0.39-16.68 0.55-28.5 0.2-14.95-0.06-22.19-0.87-23.75-0.65-1.24-1.62-2.25-2.17-2.25-0.55 0-1.56-1.2-2.25-2.68-0.69-1.47-1.7-2.81-2.25-2.97-0.55-0.16-2.58 1.06-4.5 2.71z"/>
</svg>