<svg version="1.2" xmlns="http://www.w3.org/2000/svg" viewBox="0 0 3264 2448" width="3264" height="2448">
	<title>rear_right_reference</title>
	<style>
		.s0 { fill: #00ff00 } 
	</style>
	<path id="Color Fill 1" fill-rule="evenodd" class="s0" d="m2591.5 231.12c3.41-0.1 5.12 0.72 11.64 5.63 4.2 3.16 11.4 8.72 16 12.34 4.6 3.62 15.79 11.64 24.86 17.81 9.07 6.17 28.88 19.74 44 30.15 15.13 10.41 32.12 21.97 37.77 25.69 5.66 3.72 15.56 10.38 22 14.79 6.45 4.42 16.23 10.93 21.73 14.47 5.5 3.53 15.62 10.43 22.5 15.33 6.87 4.9 15.76 11.55 19.75 14.79 4.06 3.29 11.97 8.19 18 11.14 5.91 2.89 16.6 9.13 23.75 13.86 7.15 4.73 14.35 9.28 16 10.12 1.65 0.83 5.93 3.72 9.5 6.43 3.57 2.7 9.43 6.46 13 8.36 3.57 1.9 11 6.84 16.5 10.99 5.5 4.15 11.8 8.62 14 9.94 2.2 1.31 8.95 6.09 15 10.6 6.05 4.52 18.65 12.83 28 18.48 9.35 5.65 20.37 12.81 24.5 15.9 4.12 3.09 11.55 8.27 16.5 11.51 4.95 3.25 12.37 8.45 16.5 11.56 4.12 3.11 11.07 9.67 15.43 14.57 4.36 4.91 8.74 10.72 9.73 12.92 0.99 2.2 1.81 5.35 1.83 7 0.02 1.65-0.71 5.25-1.61 8-0.91 2.75-3.34 7.25-5.4 10-2.06 2.75-4.57 6.58-5.59 8.5-1.28 2.44-1.85 5.68-1.86 10.7-0.02 3.96 0.42 7.68 0.97 8.26 0.55 0.58 2.35 1.25 4 1.48 1.65 0.23 3.68 0.45 4.5 0.47 0.82 0.03 2.4 0.7 3.5 1.49 1.81 1.3 2.07 3.06 2.75 18.27 0.41 9.26 0.75 18.63 0.75 20.83 0.01 2.2 0.57 4.63 1.26 5.4 0.95 1.08 1.3 15.56 1.48 63 0.13 33.88 0.2 68.12 0.15 76.1-0.07 12.91 0.13 14.77 1.86 17 1.07 1.38 2.21 3.85 2.54 5.5 0.32 1.65-0.04 210.45-0.81 464-0.77 253.55-1.42 461.11-1.44 461.25-0.02 0.14-1.95-0.02-4.29-0.35-2.95-0.41-4.62-0.18-5.44 0.75-0.66 0.74-1.88 4.27-2.72 7.85-1.28 5.48-1.36 9.32-0.51 24.5 0.56 9.9 1.26 22.72 1.55 28.5 0.29 5.78 0.1 17.25-0.42 25.5-0.54 8.59-0.57 16.18-0.08 17.75 0.63 2 2.5 3.57 6.87 5.75 3.3 1.65 6.31 3.56 6.68 4.25 0.38 0.69 0.82 8.9 0.98 18.25 0.29 16.47 0.23 17.07-1.93 19.16-1.23 1.19-6.73 3.74-12.23 5.66-5.5 1.92-14.5 5.28-20 7.47-5.5 2.19-12.25 5-15 6.24-2.75 1.24-8.82 3.37-13.5 4.72-4.68 1.36-10.97 3.57-14 4.91-3.03 1.35-11.8 4.01-19.5 5.91-7.7 1.91-27.95 8.04-45 13.63-17.15 5.62-32.79 11.33-35 12.79-3 1.97-3.96 3.24-3.84 5.07 0.08 1.34 0.76 5.68 1.5 9.65 0.75 4.03 0.96 7.55 0.47 8-0.47 0.43-25 7.21-54.5 15.05-29.49 7.85-67.13 17.9-83.63 22.35-16.5 4.45-43.5 11.6-60 15.89-16.5 4.3-43.72 11.48-60.5 15.96-16.78 4.47-31.29 8.34-32.25 8.59-1.5 0.39-1.75-0.3-1.77-4.8-0.01-4.98-0.3-5.56-5.59-11.25-3.49-3.75-6.38-8.07-7.7-11.5-1.16-3.03-3.73-7.53-5.72-10-3.11-3.89-4.67-4.84-19.25-9.5l-13.52-20.5c-7.44-11.28-16.6-25.34-20.36-31.25-3.76-5.91-6.84-10.86-6.83-11 0-0.14 2.48-0.36 5.5-0.5 3.02-0.14 6.5-0.76 7.74-1.38 1.24-0.62 3.06-1.86 4.05-2.75 1.33-1.2 1.63-2.4 1.14-4.62-0.36-1.65-1.65-4.12-2.88-5.5-1.23-1.37-3.52-4.75-5.09-7.5-1.58-2.75-4.8-6.8-7.16-9-2.55-2.38-4.51-5.22-4.84-7-0.3-1.65-1.99-5.32-3.76-8.15-1.76-2.84-7.26-11.55-12.21-19.37-4.95-7.81-10.8-16.47-13-19.24-2.2-2.77-6.7-8.69-10-13.16-3.3-4.46-7.28-9.46-8.85-11.1-1.57-1.64-3.77-4.78-4.89-6.98-1.13-2.2-3.94-6.47-6.26-9.5-2.31-3.03-5.03-7.08-6.02-9-1-1.92-4.29-7.33-7.32-12-3.03-4.67-7.56-11.07-10.08-14.21-2.52-3.14-5.48-6-6.58-6.37-1.1-0.36-2.68-0.44-3.5-0.17-1.2 0.39-1.65 3.47-2.22 15.37-0.46 9.35-0.31 18.78 0.4 25.38 0.98 9.09 0.89 11.91-0.69 21-1 5.78-1.94 15.9-2.08 22.5-0.19 9.11 0.24 14.29 1.8 21.5 1.13 5.22 2.61 10.85 3.3 12.5 0.69 1.65 1.81 7.72 2.48 13.5 0.99 8.4 0.99 11.7-0.03 16.5-1.02 4.86-1.02 7.33 0.03 13 0.71 3.85 1.99 8.13 2.84 9.5 0.85 1.38 2.36 3.17 3.34 4 1.47 1.23 1.93 3.87 3.33 27.95l-2.25-0.47c-1.41-0.3-2.99 0.26-4.25 1.52-1.6 1.6-2.01 3.36-2.03 8.75-0.02 6.61-0.11 6.83-4.25 10.82-3.94 3.8-4.79 4.15-12.72 5.2-4.68 0.62-20.2 1.41-34.5 1.76-14.3 0.34-39.05 1.03-55 1.52-15.95 0.49-33.28 1.35-38.5 1.91-5.22 0.56-36.5 1.55-69.5 2.21-33 0.66-63.49 1.12-67.75 1.02-4.91-0.12-9.67-0.92-13-2.18-2.89-1.1-6.47-3.01-7.97-4.25-1.49-1.24-4.21-4.73-6.04-7.76-2.07-3.42-3.61-7.58-4.08-11-0.42-3.03-1.68-10.22-2.81-16-1.13-5.78-3.36-13.2-4.95-16.5-2.28-4.7-2.91-7.41-2.93-12.5-0.02-4.98-0.55-7.3-2.25-9.94-1.22-1.89-4.77-5.71-7.88-8.5-3.12-2.78-10.5-10.68-16.41-17.56-5.9-6.87-12.61-15.42-14.91-19-2.3-3.58-5.82-9.2-7.82-12.5-2.01-3.3-5.26-9.83-7.22-14.5-1.96-4.67-4.19-9.62-4.95-11-0.87-1.57-2.44-2.62-4.21-2.81-2.24-0.25-4.46 1.05-10.82 6.34-4.4 3.66-9.8 7.91-12 9.44-2.2 1.54-7.04 4.19-10.75 5.91-3.71 1.72-7.15 3.91-7.63 4.87-0.49 0.96-1.2 3.78-1.58 6.25-0.37 2.47-1.5 6.97-2.51 10-1 3.03-2.59 8.42-3.53 12-0.95 3.58-3.55 12.35-5.8 19.5-3.71 11.8-4.51 13.42-8.65 17.5-2.51 2.47-6.36 5.73-8.55 7.24-2.69 1.84-6.79 3.26-12.5 4.32-6.22 1.16-9.91 2.51-13.75 5.01-2.89 1.89-7.12 5.79-9.41 8.68-2.28 2.89-6.5 7.05-9.37 9.25-2.87 2.2-7.82 6.47-11 9.5-3.19 3.03-7.46 7.97-9.49 11-2.18 3.23-6.13 7.2-9.59 9.62-3.24 2.26-7.47 4.91-9.39 5.89-1.92 0.98-6.65 4.81-10.5 8.51-3.85 3.7-10.6 9.75-15 13.43-5.12 4.28-12.15 8.78-19.5 12.48-6.33 3.18-14.42 6.95-18 8.38-3.58 1.42-11.22 3.31-17 4.18-5.78 0.87-16.58 2.53-24 3.68-10.35 1.6-15.72 1.94-23 1.43-5.22-0.36-16.03-1.8-24-3.19-7.97-1.4-18.1-3.76-22.5-5.25-5.07-1.72-12.4-5.53-20-10.4-6.6-4.23-14.51-9.84-17.58-12.47-3.07-2.64-8.76-8.16-12.64-12.29-3.88-4.12-9.58-10.65-12.67-14.5-3.09-3.85-8.92-11.95-12.97-18-4.04-6.05-8.82-14.6-10.62-19-1.8-4.4-5.03-11.6-7.17-16-2.14-4.4-5.23-9.24-9.85-13.5l-5.75 4.66c-3.16 2.57-7.1 5.23-8.75 5.91-1.65 0.69-3.94 2.31-5.08 3.59-1.14 1.29-3.39 5-5 8.26-2.06 4.18-4.69 7.38-8.92 10.88-3.3 2.73-7.8 5.99-10 7.24-2.2 1.26-5.8 2.78-8 3.39-2.2 0.61-9.63 1.55-16.5 2.1-6.88 0.55-22.17 1.03-34 1.07-11.83 0.05-27.13-0.43-34-1.05-6.88-0.62-15.65-1.6-19.5-2.18-3.85-0.58-11.5-2.18-17-3.55-5.5-1.38-12.7-3.72-16-5.21-3.3-1.5-10.72-6.07-16.49-10.16-5.78-4.1-14.34-11.28-19.03-15.95-4.69-4.67-11.24-12.1-14.55-16.5-3.31-4.4-8.06-11.37-10.56-15.5-2.51-4.12-6.14-10.42-8.09-14-1.94-3.58-4.49-10.44-5.66-15.25-1.16-4.81-3.2-10.89-4.52-13.5-1.32-2.61-3.09-7.45-3.93-10.75-0.84-3.3-1.83-9.15-2.2-13-0.38-3.85-1.3-9.7-2.06-13-0.76-3.3-1.39-8.36-1.4-11.25 0-2.89-0.91-10.42-2.01-16.75-1.4-8.05-1.99-15.92-1.98-26.25 0.01-8.11 0.47-17.9 1.02-21.75 0.55-3.85 1.71-9.7 2.59-13 0.88-3.3 2.38-9.6 3.35-14 0.97-4.4 2.77-11.37 4-15.5 1.24-4.12 4.75-12.45 7.8-18.5 3.57-7.08 5.31-11.62 4.89-12.75-0.49-1.28-1.81-1.76-4.92-1.78-2.34-0.02-7.85-0.69-12.25-1.49-4.4-0.79-9.8-1.45-12-1.45-2.2-0.01-6.47-0.47-9.5-1.02-3.03-0.56-12.7-2.16-21.5-3.56-8.8-1.4-17.8-3.03-20-3.61-2.2-0.59-7.38-1.45-11.5-1.92-4.13-0.47-10.42-1.27-14-1.78-3.58-0.51-13.25-1.88-21.5-3.04-8.25-1.16-19.28-2.76-24.5-3.56-5.22-0.79-13.33-1.94-18-2.55-4.67-0.6-10.64-1.53-13.25-2.05-2.61-0.51-6.21-0.94-8-0.94-1.79 0.01-12.92-1.57-24.75-3.49-11.83-1.93-27.13-4.45-34-5.61-6.88-1.15-15.42-2.48-19-2.96-3.58-0.47-9.65-1.3-13.5-1.84-3.85-0.54-7.67-1.22-8.5-1.51-0.83-0.3-4.88-0.94-9-1.42-5.65-0.67-12.18-2.77-26.5-8.5-10.45-4.19-23.05-9.01-28-10.72-4.95-1.71-14.85-4.91-22-7.11-7.15-2.2-17.5-5.11-23-6.46-5.5-1.35-14.95-3.81-21-5.45-6.05-1.65-14.38-3.86-18.5-4.92-4.13-1.06-12-3.11-17.5-4.56-5.5-1.45-13.49-3.72-17.75-5.04q-7.75-2.41-9.5-1.53c-0.96 0.48-2.49 2.62-3.4 4.75-0.91 2.13-3.05 8.26-4.75 13.62-1.71 5.36-3.35 11.66-3.66 14-0.31 2.34-1.15 6.5-1.88 9.25-0.73 2.75-2.02 9.28-2.88 14.5-0.86 5.22-2.05 12.42-2.65 16-0.59 3.58-1.5 12.13-2.02 19-0.51 6.88-1.38 14.3-1.92 16.5-0.53 2.2-1.23 8.28-1.55 13.5-0.36 5.94-1.23 10.81-2.31 13-1.3 2.63-2.47 3.59-4.73 3.87-1.65 0.2-7.05-0.12-12-0.72-4.95-0.6-15.52-1.79-23.5-2.66-7.98-0.87-18.55-2.05-23.5-2.61-4.95-0.57-9.79-1.45-10.75-1.95-0.96-0.51-5.24-1.41-9.5-1.99-4.26-0.58-11.13-2.32-15.25-3.87-4.13-1.55-10.65-3.37-14.5-4.05-3.85-0.67-13.08-2.75-20.5-4.62-7.42-1.87-17.77-4.25-23-5.3-5.23-1.04-13.1-2.66-17.5-3.58-4.4-0.93-16.33-3.48-26.5-5.68-10.17-2.19-21.88-4.85-26-5.91-4.13-1.06-12.23-2.86-18-4-5.77-1.14-16.8-3.39-24.5-5-7.7-1.61-14.23-2.92-14.5-2.9-0.27 0.02-2.3-1.19-4.5-2.69-2.2-1.49-7.6-4.54-12-6.78-6.96-3.53-8.29-4.65-10.21-8.56-1.51-3.06-2.72-8.67-3.79-17.5-1.21-10.05-1.43-18.22-0.96-36 0.33-12.65 0.68-32 0.78-43 0.1-11-0.27-23.55-0.82-27.88-0.63-4.99-1.55-8.26-2.5-8.89-0.82-0.55-2.74-0.71-4.25-0.36-2 0.46-3.27 1.79-4.65 4.88-1.05 2.34-2.71 6.28-3.69 8.75-0.98 2.47-2.32 5.17-2.96 6-0.65 0.83-1.51 2.85-1.9 4.5-0.4 1.65-2.04 5.81-3.64 9.25-1.6 3.44-2.91 6.92-2.91 7.75 0 0.83-1.27 4.31-2.83 7.75-1.56 3.44-3.58 9.29-4.5 13-1.16 4.69-1.64 10.65-1.57 19.5 0.06 7.01-0.63 20.17-1.52 29.25-0.89 9.08-1.59 20.33-1.56 25 0.03 4.67-0.18 15.81-0.48 24.75-0.48 14.4-0.34 16.54 1.21 18.77 1.64 2.36 1.64 2.63 0.07 4.25-0.92 0.95-2.23 3.08-2.89 4.73-0.67 1.65-1.66 7.95-2.19 14-0.54 6.05-1.1 13.47-1.27 16.5-0.16 3.03-0.33 6.06-0.38 6.75-0.07 0.91-0.63 0.98-2.09 0.25-1.1-0.55-4.72-4.49-14.07-16.5l0.04-10.25c0.02-8.54-0.26-10.5-1.72-11.78-0.96-0.84-2.99-2.52-4.51-3.75-2.61-2.1-2.7-2.44-1.66-6.22 0.61-2.2 0.84-5.24 0.52-6.75-0.33-1.51-0.16-5.11 0.37-8 0.53-2.89 1.17-7.05 1.41-9.25 0.25-2.2 0.75-11.2 1.11-20 0.42-9.97 0.27-18.45-0.4-22.5-0.59-3.58-1.91-9.65-2.93-13.5-1.01-3.85-2.59-8.46-3.5-10.25-0.91-1.79-3.23-8.42-5.16-14.75-1.93-6.33-3.5-12.4-3.5-13.5 0-1.1-0.59-3.24-1.32-4.75-0.73-1.51-2.05-6.12-2.94-10.25-0.89-4.12-2.33-11.21-3.18-15.75-1.02-5.39-2.83-10.59-5.24-15-2.03-3.71-4.95-8.21-6.5-10-1.55-1.79-3.48-4.49-4.28-6-1.36-2.55-1.28-3 1.01-6.25 1.37-1.92 2.49-4.4 2.5-5.5 0.01-1.1-0.79-2.81-1.77-3.79-1.33-1.33-4.96-2.15-14.28-3.21-6.88-0.78-17.68-2.09-24-2.91-6.32-0.82-18.7-2.83-27.5-4.48-8.8-1.65-20.05-3.51-25-4.12-7.03-0.87-10.31-1.84-15-4.47-3.3-1.84-8.93-4.04-12.5-4.88-3.57-0.84-16.18-2.26-28-3.16-11.82-0.9-21.72-1.8-22-1.99-0.28-0.2-5.9-1.07-12.5-1.94-10.95-1.44-12.48-1.44-17.5 0.01-3.03 0.87-6.63 1.29-8 0.93-1.38-0.36-5.2-1.97-8.5-3.57-3.3-1.61-6.45-2.91-7-2.89-0.55 0.02-1.9-0.93-3-2.1-1.9-2.04-1.99-3.36-1.79-27.28 0.11-13.83 0.51-31.68 0.87-39.65 0.39-8.64 1.18-15.51 1.96-17 0.71-1.37 1.58-4.75 1.92-7.5 0.35-2.75 1.29-15.58 2.11-28.5 0.81-12.92 2.12-41.72 2.9-64 0.79-22.28 1.93-59.17 2.54-82 0.6-22.83 1.51-44.42 2.02-48 0.52-3.58 0.95-16.4 0.97-28.5 0.03-13.97-0.55-27.11-1.57-36-1.3-11.37-1.39-15.6-0.48-22.5 0.62-4.67 1.55-14.35 2.07-21.5 0.86-11.73 1.27-13.62 4.22-19.33 1.79-3.49 4.16-6.91 5.26-7.61 1.1-0.7 3.12-1.61 4.5-2.02 1.37-0.42 7.9-3.13 14.5-6.03 6.6-2.91 14.7-6.17 18-7.25 3.3-1.08 7.35-2.66 9-3.5 1.65-0.85 8.62-2.75 15.5-4.23 6.87-1.48 16.55-3.82 21.5-5.2 4.95-1.38 13.73-4.23 19.5-6.34 5.77-2.11 11.85-4.14 13.5-4.52 1.65-0.38 9.19-2.44 16.75-4.58 7.56-2.14 16.34-4.96 19.5-6.26 3.16-1.3 14.07-4.93 24.25-8.06 10.18-3.14 19.4-6.07 20.5-6.51 1.1-0.44 8.52-2.7 16.5-5.01 7.98-2.31 23.73-7.14 35-10.74 11.27-3.59 23.43-7.39 27-8.43 3.57-1.04 9.43-2.98 13-4.3 3.57-1.33 14.15-4.23 23.5-6.45 9.35-2.22 23.98-5.46 32.5-7.21 8.52-1.74 20.23-4.66 26-6.49 5.77-1.83 12.98-4.42 16-5.76 3.02-1.33 10.67-3.64 17-5.14 6.33-1.5 17.35-4.46 24.5-6.6 7.15-2.13 20.2-6.87 29-10.52 8.8-3.66 25-10 36-14.11 11-4.11 24.73-8.74 30.5-10.3 5.77-1.55 11.85-3.36 13.5-4.01 1.65-0.64 8.06-2.48 14.25-4.08 6.19-1.6 14.51-4.2 18.5-5.77 3.99-1.57 9.95-3.64 13.25-4.6 3.3-0.95 14.77-4.4 25.5-7.67 10.73-3.26 21.52-6.63 24-7.49 2.48-0.85 7.65-2.46 11.5-3.58 3.85-1.11 10.83-3.1 15.5-4.42 4.67-1.32 10.52-3.13 13-4.03 2.48-0.9 9.23-3.17 15-5.05 5.77-1.88 15.9-5.25 22.5-7.49 6.6-2.24 16.5-5.37 22-6.96 5.5-1.59 11.8-3.37 14-3.96 2.2-0.6 7.83-2.43 12.5-4.08 4.67-1.65 15.25-5.46 23.5-8.48 8.25-3.02 18.6-6.61 23-7.98 4.4-1.36 12.5-3.99 18-5.83 5.5-1.85 14.95-5.01 21-7.03 6.05-2.01 18.2-6.14 27-9.16 8.8-3.03 25-8.43 36-12 11-3.58 21.8-7 24-7.6 2.2-0.61 7.37-2.32 11.5-3.8 4.12-1.49 17.4-5.88 29.5-9.77 12.1-3.89 30.55-9.8 41-13.13 10.45-3.34 19.34-6.06 19.75-6.05 0.41 0.01 2.66-0.86 5-1.94 2.34-1.08 7.85-2.93 12.25-4.12 4.4-1.18 9.24-2.78 10.75-3.54 1.51-0.76 8.04-2.71 14.5-4.34 6.46-1.63 17.37-4.94 24.25-7.36 6.87-2.42 14.53-4.97 17-5.67 2.47-0.7 10.12-3.06 17-5.25 6.87-2.18 15.2-4.89 18.5-6 3.3-1.11 8.7-3.24 12-4.73 3.3-1.49 10.28-3.97 15.5-5.52 5.22-1.54 15.8-5.04 23.5-7.76 7.7-2.72 16.7-5.87 20-6.98 3.3-1.12 10.5-3.63 16-5.6 5.5-1.96 12.47-5.04 15.5-6.85 3.03-1.81 6.85-4.47 8.5-5.91 1.65-1.44 5.47-3.74 8.5-5.12 3.03-1.37 7.75-3.28 10.5-4.25 2.75-0.96 7.47-2.89 10.5-4.29 3.03-1.39 9.1-3.52 13.5-4.73 4.4-1.21 15.65-4.82 25-8.02 9.35-3.19 20.6-7.01 25-8.48 4.4-1.47 10.92-3.7 14.5-4.97 3.58-1.27 12.35-3.53 19.5-5.02 8.97-1.87 16.41-4.21 24-7.53 6.05-2.64 20.9-7.95 33-11.79 12.1-3.84 25.15-7.93 29-9.09 3.85-1.15 9.03-2.11 11.5-2.13 2.47-0.02 6.53-0.49 9-1.03 2.47-0.55 8.55-2.16 13.5-3.58 4.95-1.42 11.25-3.25 14-4.06 2.75-0.82 7.47-2.75 10.5-4.29 3.03-1.54 8.42-3.35 12-4.02 3.86-0.72 10.56-3.25 16.5-6.24 5.5-2.76 13.6-6.34 18-7.95 4.4-1.61 10.7-4.4 14-6.19 3.3-1.79 8.47-4.18 11.5-5.32 3.03-1.14 9.78-3.46 15-5.16 5.22-1.69 12.2-3.75 15.5-4.58 3.3-0.82 10.72-3.04 16.5-4.93 5.78-1.88 12.75-3.75 15.5-4.14 2.75-0.39 7.92-1.78 11.5-3.08 3.58-1.31 8.3-2.41 10.5-2.46 2.2-0.04 7.15-0.96 11-2.03 3.85-1.08 13.08-3.03 20.5-4.34 8.76-1.55 16.83-3.71 23-6.16 7.4-2.95 10.5-4.81 14-8.41 4.06-4.17 5.73-5.03 17-8.67 6.87-2.23 19.81-7.49 28.75-11.7 15.05-7.09 17.19-7.8 29-9.75 7.01-1.15 14.1-2.69 15.75-3.42 1.65-0.72 6.37-2.31 10.5-3.53 4.12-1.22 10.43-2.57 14-3 3.57-0.43 10.78-1.97 16-3.42 5.22-1.46 14.22-3.7 20-4.98 5.78-1.28 14.32-3.45 19-4.83 4.68-1.37 10.3-3.25 12.5-4.16 2.2-0.91 10.07-3.42 17.5-5.57 7.43-2.14 20.25-6.21 28.5-9.04 8.25-2.84 19.28-6.63 24.5-8.43 5.22-1.8 13.32-4.83 18-6.74 4.68-1.9 13-4.9 18.5-6.65 5.5-1.75 11.57-3.66 13.5-4.25 1.93-0.58 7.1-2.57 11.5-4.42 4.4-1.85 11.82-4.28 16.5-5.39 4.68-1.11 12.78-3.37 18-5.03 5.22-1.65 23-7.33 39.5-12.62 16.5-5.29 35.4-11.44 42-13.66 6.6-2.23 18.3-6.4 26-9.27 7.7-2.87 36.5-12.66 64-21.77 27.5-9.11 56.53-18.67 64.5-21.24 7.97-2.58 18.78-5.48 24-6.46 5.22-0.97 11.3-1.83 13.5-1.9zm-2168.29 1268.88c-0.33 0.92 0.79 2.58 2.88 4.28 1.87 1.53 5.1 3.22 7.16 3.75 2.06 0.53 4.17 1.76 4.67 2.72 0.51 0.96 1.35 5.12 1.86 9.25 0.52 4.12 1.63 8.85 2.47 10.5 0.83 1.65 1.79 5.47 2.13 8.5 0.33 3.03 1.02 9.32 1.54 14 0.51 4.67 1.36 9.62 1.88 11 0.52 1.37 1.67 3.06 2.57 3.75 1.4 1.08 1.84 0.76 3.13-2.25 0.82-1.93 1.76-8.11 2.07-13.75 0.36-6.41 1.23-11.75 2.32-14.25 1.25-2.88 3.69-5.39 8.68-8.94 3.81-2.71 9.35-6.99 12.32-9.5 2.96-2.51 7.35-6.47 9.75-8.81 2.4-2.34 4.36-4.93 4.36-5.75 0-0.83-1.01-1.72-2.25-1.99-1.24-0.26-4.28-0.49-6.75-0.51-2.48-0.01-10.13-0.74-17-1.63-6.88-0.89-19.42-1.67-27.88-1.74-12.84-0.11-15.46 0.12-15.91 1.37zm49.44 37c-1.46 1.1-3.34 3.69-4.17 5.75-0.84 2.06-1.52 5.1-1.52 6.75 0.01 1.65-0.55 3.98-1.22 5.18-0.68 1.19-2.48 4.23-3.99 6.75-1.51 2.51-2.41 4.81-2 5.1 0.41 0.29 1.65 0.52 2.75 0.51 1.1 0 2.82-0.58 3.82-1.27 1.03-0.73 2.22-3.42 2.75-6.27 0.52-2.75 1.75-6.13 2.74-7.5 0.99-1.38 2.78-4.86 3.99-7.75 1.21-2.89 1.97-6.15 1.7-7.25-0.28-1.1-0.88-2-1.35-2-0.46 0-2.04 0.9-3.5 2zm-32.55 32.94c-0.05 1.13 0.35 3.18 0.9 4.56 0.55 1.37 1.44 5.09 1.98 8.25 0.54 3.16 1.88 8.9 2.97 12.75 1.1 3.85 2.69 7.67 3.54 8.5 1.11 1.08 2.01 1.22 3.17 0.5 0.89-0.55 2.2-2.58 2.91-4.5 0.83-2.28 1.07-5.77 0.68-10-0.32-3.58-1.41-7.85-2.41-9.5-1-1.65-4.06-4.35-6.81-6-2.75-1.65-4.95-3.54-4.91-4.19 0.05-0.66-0.37-1.47-0.92-1.81-0.55-0.34-1.04 0.31-1.1 1.44z"/>
</svg>