<svg width="52" height="52" viewBox="0 0 52 52" fill="none" xmlns="http://www.w3.org/2000/svg">
<rect width="52" height="52" rx="12" fill="#F2F4F7"/>
<path fill-rule="evenodd" clip-rule="evenodd" d="M26 15.25C23.3767 15.25 21.25 17.3766 21.25 20C21.25 22.6234 23.3767 24.75 26 24.75C28.6234 24.75 30.75 22.6234 30.75 20C30.75 17.3766 28.6234 15.25 26 15.25ZM22.75 20C22.75 18.2051 24.2051 16.75 26 16.75C27.7949 16.75 29.25 18.2051 29.25 20C29.25 21.7949 27.7949 23.25 26 23.25C24.2051 23.25 22.75 21.7949 22.75 20Z" fill="#0D0F2B" fill-opacity="0.8"/>
<path fill-rule="evenodd" clip-rule="evenodd" d="M26 26.25C23.6865 26.25 21.5549 26.7759 19.9755 27.6643C18.4195 28.5396 17.25 29.8661 17.25 31.5L17.2499 31.602C17.2488 32.7638 17.2474 34.222 18.5264 35.2635C19.1559 35.7761 20.0365 36.1406 21.2262 36.3815C22.4193 36.6229 23.9742 36.75 26 36.75C28.0258 36.75 29.5808 36.6229 30.7738 36.3815C31.9635 36.1406 32.8441 35.7761 33.4736 35.2635C34.7526 34.222 34.7512 32.7638 34.7501 31.602L34.75 31.5C34.75 29.8661 33.5805 28.5396 32.0246 27.6643C30.4451 26.7759 28.3136 26.25 26 26.25ZM18.75 31.5C18.75 30.6487 19.3714 29.7252 20.7109 28.9717C22.0268 28.2315 23.8953 27.75 26 27.75C28.1047 27.75 29.9732 28.2315 31.2892 28.9717C32.6286 29.7252 33.25 30.6487 33.25 31.5C33.25 32.8078 33.2097 33.544 32.5264 34.1004C32.1559 34.4022 31.5365 34.6967 30.4762 34.9113C29.4193 35.1252 27.9742 35.25 26 35.25C24.0258 35.25 22.5808 35.1252 21.5238 34.9113C20.4635 34.6967 19.8441 34.4022 19.4736 34.1004C18.7903 33.544 18.75 32.8078 18.75 31.5Z" fill="#0D0F2B" fill-opacity="0.8"/>
</svg>
