<svg width="24" height="24" viewBox="0 0 24 24" fill="none" xmlns="http://www.w3.org/2000/svg">
<path d="M9.08148 18.5935C9.75435 19.4488 10.8114 20 12.0001 20C13.1887 20 14.2458 19.4488 14.9186 18.5935C12.9812 18.856 11.0189 18.856 9.08148 18.5935Z" fill="black"/>
<path d="M17.3994 9.6V10.1633C17.3994 10.8393 17.5923 11.5001 17.9538 12.0626L18.8398 13.4409C19.649 14.6999 19.0312 16.4111 17.6238 16.8092C13.9419 17.8507 10.0582 17.8507 6.37634 16.8092C4.96889 16.4111 4.35111 14.6999 5.16034 13.4409L6.04629 12.0626C6.40782 11.5001 6.60074 10.8393 6.60074 10.1633V9.6C6.60074 6.5072 9.0181 4 12 4C14.982 4 17.3994 6.50721 17.3994 9.6Z" fill="black"/>
</svg>
