<svg width="24" height="24" viewBox="0 0 24 24" fill="none" xmlns="http://www.w3.org/2000/svg">
<path fill-rule="evenodd" clip-rule="evenodd" d="M5.00073 19.9999C5.00073 19.6685 5.26936 19.3999 5.60073 19.3999H18.4007C18.7321 19.3999 19.0007 19.6685 19.0007 19.9999C19.0007 20.3313 18.7321 20.5999 18.4007 20.5999H5.60073C5.26936 20.5999 5.00073 20.3313 5.00073 19.9999Z" fill="black" fill-opacity="0.8"/>
<path d="M10.8592 15.0561C11.0628 14.8972 11.2475 14.7125 11.6169 14.3432L16.3502 9.6098C15.706 9.34168 14.943 8.90125 14.2214 8.17964C13.4997 7.45791 13.0592 6.69477 12.7911 6.0505L8.05768 10.7839L8.05765 10.784C7.68829 11.1533 7.5036 11.338 7.34476 11.5417C7.1574 11.7819 6.99676 12.0418 6.86569 12.3168C6.75458 12.55 6.67198 12.7977 6.50679 13.2933L5.63568 15.9067C5.55438 16.1505 5.61786 16.4194 5.79963 16.6012C5.98141 16.783 6.25029 16.8464 6.49417 16.7652L9.10751 15.894C9.60308 15.7289 9.85088 15.6463 10.084 15.5351C10.359 15.4041 10.619 15.2434 10.8592 15.0561Z" fill="black" fill-opacity="0.8"/>
<path d="M17.6637 8.29636C18.6465 7.31351 18.6465 5.71999 17.6637 4.73714C16.6808 3.75429 15.0873 3.75429 14.1045 4.73714L13.5368 5.30484C13.5445 5.32832 13.5526 5.35212 13.561 5.37623C13.7691 5.976 14.1617 6.76224 14.9002 7.50081C15.6388 8.23938 16.425 8.63199 17.0248 8.84008C17.0488 8.8484 17.0725 8.85643 17.0959 8.86417L17.6637 8.29636Z" fill="black" fill-opacity="0.8"/>
</svg>
