<svg width="33" height="32" viewBox="0 0 33 32" fill="none" xmlns="http://www.w3.org/2000/svg">
<rect x="0.47876" y="0.282471" width="31.6939" height="31.6939" rx="15.8469" fill="#4958E9"/>
<path fill-rule="evenodd" clip-rule="evenodd" d="M10.1628 23.1725C10.1628 22.8808 10.3993 22.6443 10.6911 22.6443H21.96C22.2517 22.6443 22.4882 22.8808 22.4882 23.1725C22.4882 23.4643 22.2517 23.7008 21.96 23.7008H10.6911C10.3993 23.7008 10.1628 23.4643 10.1628 23.1725Z" fill="white"/>
<path d="M15.32 18.8205C15.4993 18.6807 15.6619 18.5181 15.9871 18.1929L20.1543 14.0257C19.5872 13.7897 18.9154 13.4019 18.2801 12.7666C17.6447 12.1312 17.2569 11.4594 17.0209 10.8921L12.8536 15.0594L12.8536 15.0594C12.5284 15.3846 12.3658 15.5472 12.226 15.7265C12.0611 15.938 11.9196 16.1668 11.8042 16.4089C11.7064 16.6142 11.6337 16.8323 11.4883 17.2686L10.7214 19.5694C10.6498 19.7841 10.7057 20.0208 10.8657 20.1808C11.0257 20.3409 11.2624 20.3967 11.4772 20.3252L13.7779 19.5583C14.2142 19.4128 14.4324 19.3401 14.6376 19.2423C14.8797 19.1269 15.1086 18.9855 15.32 18.8205Z" fill="white"/>
<path d="M21.3106 12.8694C22.1759 12.0041 22.1759 10.6012 21.3106 9.73588C20.4454 8.87059 19.0424 8.87059 18.1772 9.73588L17.6774 10.2357C17.6842 10.2563 17.6913 10.2773 17.6987 10.2985C17.8819 10.8266 18.2275 11.5188 18.8777 12.169C19.528 12.8192 20.2202 13.1649 20.7482 13.348C20.7693 13.3554 20.7902 13.3624 20.8108 13.3693L21.3106 12.8694Z" fill="white"/>
</svg>
