<svg width="24" height="24" viewBox="0 0 24 24" fill="none" xmlns="http://www.w3.org/2000/svg">
<path fill-rule="evenodd" clip-rule="evenodd" d="M6.6 10.4441V8.80039C6.6 5.81805 9.01766 3.40039 12 3.40039C14.9823 3.40039 17.4 5.81805 17.4 8.80039V10.4441C18.2918 10.5107 18.8726 10.6788 19.2971 11.1033C20 11.8063 20 12.9376 20 15.2004C20 17.4631 20 18.5945 19.2971 19.2974C18.5941 20.0004 17.4627 20.0004 15.2 20.0004H8.8C6.53726 20.0004 5.40589 20.0004 4.70294 19.2974C4 18.5945 4 17.4631 4 15.2004C4 12.9376 4 11.8063 4.70294 11.1033C5.12745 10.6788 5.7082 10.5107 6.6 10.4441ZM7.8 8.80039C7.8 6.48079 9.6804 4.60039 12 4.60039C14.3196 4.60039 16.2 6.48079 16.2 8.80039V10.4033C15.8936 10.4004 15.5612 10.4004 15.2 10.4004H8.8C8.43879 10.4004 8.10641 10.4004 7.8 10.4033V8.80039Z" fill="black"/>
</svg>
