<svg width="145" height="133" viewBox="0 0 145 133" fill="none" xmlns="http://www.w3.org/2000/svg">
<path d="M0 75.2619L10.3571 53.1667H40.7381L29.6905 75.2619H0Z" fill="white"/>
<path d="M33.1429 75.2619L44.881 53.1667H118.762C111.581 70.8429 96.8968 75.2619 90.4524 75.2619H33.1429Z" fill="white"/>
<path d="M71.7285 47.3939C86.0009 42.7433 92.8836 31.5869 94.5952 26.2381H22.0952L11.7381 48.3333H64.8597C67.1836 48.3333 69.5189 48.1139 71.7285 47.3939Z" fill="white"/>
<path d="M124.976 26.2381H97.3571C94.0429 38.3905 82.627 46.0317 76.6429 48.3333H120.143C130.086 33.419 129.81 26.2381 124.976 26.2381Z" fill="white"/>
<path d="M135.333 22.0952H101.5C101.5 7.18095 94.1349 1.15079 90.4524 0H145L135.333 22.0952Z" fill="white"/>
<path d="M87.8 1.6998C94.9069 6.09867 97.1616 16.6212 97.3571 22.0952H23.4762C26.0666 11.7335 34.1686 5.19618 40.3315 1.95571C43.2395 0.426661 46.5535 0 49.839 0H78.9464C82.0056 0 85.1988 0.0897489 87.8 1.6998Z" fill="white"/>
<path d="M6.95156 123.433V96.0652H18.554C19.8132 96.0652 20.9696 96.3222 22.0232 96.8362C23.0768 97.3501 23.989 98.0439 24.76 98.9177C25.5566 99.7914 26.1733 100.768 26.6102 101.847C27.047 102.926 27.2655 104.031 27.2655 105.162C27.2655 106.704 26.9057 108.169 26.1862 109.556C25.4666 110.944 24.4773 112.075 23.2181 112.949C21.9589 113.822 20.4685 114.259 18.7467 114.259H12.271V123.433H6.95156ZM12.271 109.595H18.4384C19.0808 109.595 19.659 109.415 20.1729 109.055C20.6869 108.696 21.0981 108.182 21.4064 107.513C21.7148 106.82 21.869 106.036 21.869 105.162C21.869 104.211 21.6891 103.402 21.3293 102.734C20.9953 102.066 20.5456 101.565 19.9802 101.23C19.4406 100.896 18.8495 100.729 18.2071 100.729H12.271V109.595ZM29.2009 117.458C29.2009 116.148 29.5607 115.004 30.2802 114.028C31.0254 113.026 32.0533 112.255 33.3639 111.715C34.6745 111.175 36.1778 110.906 37.8738 110.906C38.7218 110.906 39.5827 110.97 40.4564 111.098C41.3301 111.227 42.0882 111.432 42.7307 111.715V110.636C42.7307 109.351 42.3452 108.362 41.5743 107.668C40.829 106.974 39.7112 106.627 38.2207 106.627C37.1157 106.627 36.0622 106.82 35.0599 107.205C34.0577 107.591 33.0041 108.156 31.8991 108.901L30.2417 105.509C31.5779 104.635 32.9399 103.98 34.3276 103.543C35.7409 103.106 37.2185 102.888 38.7604 102.888C41.6385 102.888 43.8742 103.607 45.4674 105.047C47.0864 106.486 47.8959 108.541 47.8959 111.214V117.651C47.8959 118.191 47.9858 118.576 48.1657 118.808C48.3713 119.039 48.6925 119.18 49.1293 119.232V123.433C48.6668 123.51 48.2428 123.574 47.8573 123.626C47.4976 123.677 47.1892 123.703 46.9322 123.703C45.9043 123.703 45.1205 123.472 44.5809 123.009C44.0669 122.547 43.7457 121.981 43.6172 121.313L43.5016 120.272C42.6279 121.403 41.5357 122.277 40.2252 122.893C38.9146 123.51 37.5783 123.819 36.2163 123.819C34.8801 123.819 33.6723 123.549 32.593 123.009C31.5394 122.444 30.7042 121.686 30.0875 120.735C29.4964 119.758 29.2009 118.666 29.2009 117.458ZM41.767 118.499C42.0497 118.191 42.281 117.882 42.4608 117.574C42.6407 117.266 42.7307 116.983 42.7307 116.726V114.683C42.1139 114.426 41.4458 114.233 40.7263 114.105C40.0067 113.951 39.3257 113.874 38.6833 113.874C37.347 113.874 36.242 114.169 35.3683 114.76C34.5203 115.326 34.0963 116.084 34.0963 117.034C34.0963 117.548 34.2376 118.037 34.5203 118.499C34.803 118.962 35.2141 119.334 35.7538 119.617C36.2934 119.9 36.9359 120.041 37.6811 120.041C38.452 120.041 39.2101 119.9 39.9553 119.617C40.7006 119.309 41.3044 118.936 41.767 118.499ZM60.5475 123.819C58.8257 123.819 57.1811 123.536 55.6136 122.971C54.046 122.405 52.6969 121.57 51.5662 120.465L53.4164 117.112C54.6242 118.088 55.8063 118.808 56.9627 119.27C58.1448 119.733 59.2755 119.964 60.3548 119.964C61.357 119.964 62.1536 119.784 62.7446 119.424C63.3614 119.065 63.6697 118.525 63.6697 117.805C63.6697 117.317 63.5027 116.944 63.1686 116.688C62.8346 116.405 62.3463 116.161 61.7039 115.955C61.0871 115.75 60.3291 115.518 59.4296 115.261C57.9392 114.773 56.6929 114.298 55.6906 113.835C54.6884 113.373 53.9304 112.794 53.4164 112.1C52.9282 111.381 52.684 110.469 52.684 109.364C52.684 108.027 53.0181 106.884 53.6862 105.933C54.3801 104.957 55.3309 104.199 56.5387 103.659C57.7721 103.119 59.2112 102.849 60.8559 102.849C62.2949 102.849 63.6569 103.081 64.9418 103.543C66.2266 103.98 67.3959 104.7 68.4495 105.702L66.368 108.978C65.3401 108.182 64.3636 107.603 63.4385 107.244C62.5133 106.858 61.5754 106.665 60.6246 106.665C60.0849 106.665 59.571 106.73 59.0827 106.858C58.6202 106.987 58.2347 107.205 57.9263 107.513C57.6437 107.796 57.5023 108.207 57.5023 108.747C57.5023 109.235 57.6308 109.621 57.8878 109.903C58.1705 110.16 58.5816 110.392 59.1213 110.597C59.6866 110.803 60.3676 111.034 61.1642 111.291C62.7832 111.754 64.1451 112.229 65.2501 112.717C66.3808 113.205 67.2288 113.809 67.7942 114.529C68.3595 115.223 68.6422 116.186 68.6422 117.42C68.6422 119.424 67.9098 120.992 66.4451 122.123C64.9803 123.253 63.0144 123.819 60.5475 123.819ZM71.1531 117.458C71.1531 116.148 71.5129 115.004 72.2324 114.028C72.9777 113.026 74.0056 112.255 75.3161 111.715C76.6267 111.175 78.13 110.906 79.8261 110.906C80.6741 110.906 81.5349 110.97 82.4087 111.098C83.2824 111.227 84.0404 111.432 84.6829 111.715V110.636C84.6829 109.351 84.2974 108.362 83.5265 107.668C82.7813 106.974 81.6634 106.627 80.173 106.627C79.068 106.627 78.0144 106.82 77.0122 107.205C76.01 107.591 74.9564 108.156 73.8514 108.901L72.1939 105.509C73.5302 104.635 74.8921 103.98 76.2798 103.543C77.6932 103.106 79.1708 102.888 80.7126 102.888C83.5907 102.888 85.8264 103.607 87.4197 105.047C89.0386 106.486 89.8481 108.541 89.8481 111.214V117.651C89.8481 118.191 89.938 118.576 90.1179 118.808C90.3235 119.039 90.6447 119.18 91.0816 119.232V123.433C90.619 123.51 90.195 123.574 89.8095 123.626C89.4498 123.677 89.1414 123.703 88.8844 123.703C87.8565 123.703 87.0728 123.472 86.5331 123.009C86.0192 122.547 85.6979 121.981 85.5695 121.313L85.4538 120.272C84.5801 121.403 83.4879 122.277 82.1774 122.893C80.8668 123.51 79.5305 123.819 78.1686 123.819C76.8323 123.819 75.6245 123.549 74.5452 123.009C73.4916 122.444 72.6564 121.686 72.0397 120.735C71.4487 119.758 71.1531 118.666 71.1531 117.458ZM83.7192 118.499C84.0019 118.191 84.2332 117.882 84.4131 117.574C84.5929 117.266 84.6829 116.983 84.6829 116.726V114.683C84.0661 114.426 83.398 114.233 82.6785 114.105C81.9589 113.951 81.278 113.874 80.6355 113.874C79.2993 113.874 78.1943 114.169 77.3205 114.76C76.4725 115.326 76.0485 116.084 76.0485 117.034C76.0485 117.548 76.1899 118.037 76.4725 118.499C76.7552 118.962 77.1664 119.334 77.706 119.617C78.2457 119.9 78.8881 120.041 79.6333 120.041C80.4042 120.041 81.1623 119.9 81.9076 119.617C82.6528 119.309 83.2567 118.936 83.7192 118.499ZM107.164 123.819C105.596 123.819 104.209 123.472 103.001 122.778C101.819 122.058 100.894 121.095 100.225 119.887V131.643H95.0603V103.235H99.5702V106.704C100.341 105.522 101.318 104.597 102.5 103.929C103.682 103.235 105.031 102.888 106.547 102.888C107.909 102.888 109.155 103.158 110.286 103.697C111.442 104.237 112.445 104.995 113.293 105.972C114.141 106.922 114.796 108.027 115.259 109.287C115.747 110.52 115.991 111.856 115.991 113.295C115.991 115.248 115.605 117.022 114.835 118.615C114.089 120.208 113.049 121.48 111.712 122.431C110.402 123.356 108.886 123.819 107.164 123.819ZM105.429 119.424C106.226 119.424 106.945 119.257 107.588 118.923C108.23 118.589 108.783 118.139 109.245 117.574C109.734 116.983 110.093 116.328 110.325 115.608C110.582 114.863 110.71 114.092 110.71 113.295C110.71 112.447 110.569 111.664 110.286 110.944C110.029 110.225 109.644 109.595 109.13 109.055C108.616 108.49 108.012 108.053 107.318 107.745C106.65 107.436 105.917 107.282 105.121 107.282C104.633 107.282 104.131 107.372 103.618 107.552C103.129 107.706 102.654 107.937 102.191 108.246C101.729 108.554 101.318 108.914 100.958 109.325C100.624 109.736 100.38 110.186 100.225 110.674V115.415C100.534 116.161 100.945 116.842 101.459 117.458C101.999 118.075 102.615 118.563 103.309 118.923C104.003 119.257 104.71 119.424 105.429 119.424ZM129.204 123.819C127.56 123.819 126.082 123.549 124.771 123.009C123.461 122.444 122.343 121.673 121.418 120.696C120.518 119.72 119.825 118.602 119.336 117.343C118.848 116.084 118.604 114.76 118.604 113.373C118.604 111.959 118.848 110.623 119.336 109.364C119.825 108.105 120.518 106.987 121.418 106.01C122.343 105.034 123.461 104.276 124.771 103.736C126.082 103.171 127.56 102.888 129.204 102.888C130.849 102.888 132.314 103.171 133.598 103.736C134.909 104.276 136.027 105.034 136.952 106.01C137.877 106.987 138.571 108.105 139.033 109.364C139.522 110.623 139.766 111.959 139.766 113.373C139.766 114.76 139.522 116.084 139.033 117.343C138.571 118.602 137.877 119.72 136.952 120.696C136.053 121.673 134.948 122.444 133.637 123.009C132.326 123.549 130.849 123.819 129.204 123.819ZM123.923 113.373C123.923 114.555 124.155 115.608 124.617 116.533C125.08 117.433 125.709 118.139 126.506 118.653C127.303 119.167 128.202 119.424 129.204 119.424C130.181 119.424 131.067 119.167 131.864 118.653C132.66 118.114 133.29 117.394 133.753 116.495C134.241 115.57 134.485 114.516 134.485 113.334C134.485 112.178 134.241 111.137 133.753 110.212C133.29 109.287 132.66 108.567 131.864 108.053C131.067 107.539 130.181 107.282 129.204 107.282C128.202 107.282 127.303 107.552 126.506 108.092C125.709 108.606 125.08 109.325 124.617 110.25C124.155 111.15 123.923 112.19 123.923 113.373Z" fill="white"/>
</svg>
