<svg width="108" height="99" viewBox="0 0 108 99" fill="none" xmlns="http://www.w3.org/2000/svg">
<path d="M0 55.9397L7.69812 39.517H30.2793L22.0679 55.9397H0Z" fill="#4958E9"/>
<path d="M24.634 55.9397L33.3585 39.517H88.2718C82.9344 52.6551 72.0202 55.9397 67.2302 55.9397H24.634Z" fill="#4958E9"/>
<path d="M53.3134 35.2263C63.9216 31.7697 69.0373 23.4775 70.3095 19.5019H16.4227L8.72453 35.9246H48.208C49.9354 35.9246 51.6711 35.7614 53.3134 35.2263Z" fill="#4958E9"/>
<path d="M92.8906 19.5019H72.3623C69.8989 28.5344 61.4139 34.2139 56.9661 35.9246H89.2982C96.6884 24.8393 96.4831 19.5019 92.8906 19.5019Z" fill="#4958E9"/>
<path d="M100.589 16.4227H75.4416C75.4416 5.33736 69.9673 0.855347 67.2302 0H107.774L100.589 16.4227Z" fill="#4958E9"/>
<path d="M65.2588 1.2634C70.5411 4.53294 72.217 12.3539 72.3623 16.4227H17.4491C19.3744 8.72114 25.3964 3.86215 29.977 1.45361C32.1384 0.317123 34.6017 0 37.0437 0H58.6782C60.952 0 63.3254 0.0667073 65.2588 1.2634Z" fill="#4958E9"/>
<path d="M5.16687 91.9861V71.6445H13.7906C14.7265 71.6445 15.586 71.8355 16.3691 72.2175C17.1522 72.5995 17.8302 73.1152 18.4033 73.7646C18.9954 74.414 19.4538 75.1398 19.7785 75.942C20.1032 76.7442 20.2655 77.5655 20.2655 78.4059C20.2655 79.5519 19.9981 80.6406 19.4633 81.672C18.9285 82.7034 18.1931 83.5438 17.2572 84.1932C16.3213 84.8426 15.2135 85.1673 13.9338 85.1673H9.12059V91.9861H5.16687ZM9.12059 81.7007H13.7046C14.1821 81.7007 14.6119 81.567 14.9939 81.2996C15.3759 81.0322 15.6815 80.6502 15.9107 80.1536C16.1399 79.6379 16.2545 79.0553 16.2545 78.4059C16.2545 77.6992 16.1208 77.0975 15.8534 76.6009C15.6051 76.1043 15.2708 75.7319 14.8506 75.4836C14.4495 75.2353 14.0102 75.1111 13.5327 75.1111H9.12059V81.7007ZM21.7041 87.5453C21.7041 86.5712 21.9715 85.7212 22.5063 84.9954C23.0602 84.2505 23.8242 83.6775 24.7983 83.2764C25.7724 82.8753 26.8897 82.6748 28.1504 82.6748C28.7807 82.6748 29.4205 82.7225 30.0699 82.818C30.7193 82.9135 31.2828 83.0663 31.7603 83.2764V82.4742C31.7603 81.5192 31.4738 80.7839 30.9008 80.2682C30.3469 79.7525 29.516 79.4946 28.4082 79.4946C27.5869 79.4946 26.8038 79.6379 26.0589 79.9244C25.314 80.2109 24.5309 80.6311 23.7096 81.185L22.4776 78.6637C23.4708 78.0143 24.4831 77.5273 25.5145 77.2026C26.565 76.8779 27.6633 76.7155 28.8093 76.7155C30.9485 76.7155 32.6102 77.2503 33.7944 78.3199C34.9977 79.3896 35.5994 80.9176 35.5994 82.904V87.6886C35.5994 88.0897 35.6663 88.3762 35.8 88.5481C35.9528 88.72 36.1915 88.825 36.5162 88.8632V91.9861C36.1724 92.0434 35.8573 92.0911 35.5708 92.1293C35.3033 92.1675 35.0741 92.1866 34.8831 92.1866C34.1191 92.1866 33.5366 92.0147 33.1355 91.6709C32.7535 91.3271 32.5147 90.9069 32.4192 90.4103L32.3333 89.6368C31.6839 90.4772 30.8721 91.1266 29.898 91.585C28.9239 92.0434 27.9307 92.2726 26.9184 92.2726C25.9252 92.2726 25.0275 92.072 24.2253 91.6709C23.4422 91.2507 22.8214 90.6873 22.363 89.9806C21.9237 89.2548 21.7041 88.443 21.7041 87.5453ZM31.044 88.3189C31.2541 88.0897 31.426 87.8605 31.5597 87.6313C31.6934 87.4021 31.7603 87.192 31.7603 87.001V85.4825C31.3019 85.2915 30.8053 85.1482 30.2705 85.0527C29.7357 84.9381 29.2295 84.8808 28.752 84.8808C27.7588 84.8808 26.9375 85.1005 26.2881 85.5398C25.6578 85.96 25.3426 86.5234 25.3426 87.2302C25.3426 87.6122 25.4477 87.9751 25.6578 88.3189C25.8679 88.6627 26.1735 88.9396 26.5746 89.1497C26.9757 89.3598 27.4532 89.4649 28.0071 89.4649C28.5801 89.4649 29.1436 89.3598 29.6975 89.1497C30.2514 88.9205 30.7002 88.6436 31.044 88.3189ZM45.0029 92.2726C43.7232 92.2726 42.5008 92.0625 41.3357 91.6423C40.1706 91.2221 39.1678 90.6013 38.3274 89.78L39.7026 87.2875C40.6003 88.0133 41.479 88.5481 42.3385 88.8919C43.2171 89.2357 44.0575 89.4076 44.8597 89.4076C45.6046 89.4076 46.1967 89.2739 46.636 89.0065C47.0944 88.7391 47.3236 88.338 47.3236 87.8032C47.3236 87.4403 47.1994 87.1633 46.9511 86.9723C46.7028 86.7622 46.3399 86.5807 45.8624 86.4279C45.404 86.2751 44.8406 86.1032 44.1721 85.9122C43.0643 85.5493 42.1379 85.196 41.393 84.8522C40.6481 84.5084 40.0846 84.0786 39.7026 83.5629C39.3397 83.0281 39.1583 82.3501 39.1583 81.5288C39.1583 80.5356 39.4066 79.6856 39.9032 78.9789C40.4189 78.2531 41.1256 77.6896 42.0233 77.2885C42.9401 76.8874 44.0097 76.6869 45.2321 76.6869C46.3017 76.6869 47.314 76.8588 48.269 77.2026C49.2241 77.5273 50.0931 78.0621 50.8762 78.807L49.3291 81.2423C48.5651 80.6502 47.8393 80.2204 47.1517 79.953C46.4641 79.6665 45.7669 79.5233 45.0602 79.5233C44.6591 79.5233 44.2771 79.571 43.9142 79.6665C43.5704 79.762 43.2839 79.9244 43.0547 80.1536C42.8446 80.3637 42.7396 80.6693 42.7396 81.0704C42.7396 81.4333 42.8351 81.7198 43.0261 81.9299C43.2362 82.1209 43.5418 82.2928 43.9429 82.4456C44.3631 82.5984 44.8692 82.7703 45.4613 82.9613C46.6646 83.3051 47.6769 83.6584 48.4982 84.0213C49.3387 84.3842 49.969 84.8331 50.3892 85.3679C50.8094 85.8836 51.0195 86.5998 51.0195 87.5167C51.0195 89.0065 50.4751 90.1716 49.3864 91.012C48.2977 91.8524 46.8365 92.2726 45.0029 92.2726ZM52.8858 87.5453C52.8858 86.5712 53.1532 85.7212 53.688 84.9954C54.2419 84.2505 55.0059 83.6775 55.98 83.2764C56.9541 82.8753 58.0714 82.6748 59.332 82.6748C59.9624 82.6748 60.6022 82.7225 61.2516 82.818C61.901 82.9135 62.4645 83.0663 62.942 83.2764V82.4742C62.942 81.5192 62.6555 80.7839 62.0825 80.2682C61.5286 79.7525 60.6977 79.4946 59.5899 79.4946C58.7686 79.4946 57.9855 79.6379 57.2406 79.9244C56.4957 80.2109 55.7126 80.6311 54.8913 81.185L53.6593 78.6637C54.6525 78.0143 55.6648 77.5273 56.6962 77.2026C57.7467 76.8779 58.845 76.7155 59.991 76.7155C62.1302 76.7155 63.7919 77.2503 64.9761 78.3199C66.1794 79.3896 66.7811 80.9176 66.7811 82.904V87.6886C66.7811 88.0897 66.8479 88.3762 66.9816 88.5481C67.1344 88.72 67.3732 88.825 67.6979 88.8632V91.9861C67.3541 92.0434 67.0389 92.0911 66.7524 92.1293C66.485 92.1675 66.2558 92.1866 66.0648 92.1866C65.3008 92.1866 64.7183 92.0147 64.3172 91.6709C63.9352 91.3271 63.6964 90.9069 63.6009 90.4103L63.515 89.6368C62.8656 90.4772 62.0538 91.1266 61.0797 91.585C60.1056 92.0434 59.1124 92.2726 58.1001 92.2726C57.1069 92.2726 56.2092 92.072 55.407 91.6709C54.6239 91.2507 54.0031 90.6873 53.5447 89.9806C53.1054 89.2548 52.8858 88.443 52.8858 87.5453ZM62.2257 88.3189C62.4358 88.0897 62.6077 87.8605 62.7414 87.6313C62.8751 87.4021 62.942 87.192 62.942 87.001V85.4825C62.4836 85.2915 61.987 85.1482 61.4522 85.0527C60.9174 84.9381 60.4112 84.8808 59.9337 84.8808C58.9405 84.8808 58.1192 85.1005 57.4698 85.5398C56.8395 85.96 56.5243 86.5234 56.5243 87.2302C56.5243 87.6122 56.6294 87.9751 56.8395 88.3189C57.0496 88.6627 57.3552 88.9396 57.7563 89.1497C58.1574 89.3598 58.6349 89.4649 59.1888 89.4649C59.7618 89.4649 60.3253 89.3598 60.8792 89.1497C61.4331 88.9205 61.8819 88.6436 62.2257 88.3189ZM79.6513 92.2726C78.4862 92.2726 77.4548 92.0147 76.5571 91.499C75.6785 90.9642 74.9909 90.248 74.4943 89.3503V98.0886H70.6551V76.9734H74.0072V79.5519C74.5802 78.6733 75.306 77.9857 76.1846 77.4891C77.0632 76.9734 78.066 76.7155 79.1929 76.7155C80.2052 76.7155 81.1316 76.9161 81.972 77.3172C82.8315 77.7183 83.5764 78.2817 84.2067 79.0076C84.837 79.7143 85.324 80.5356 85.6678 81.4715C86.0307 82.3883 86.2122 83.3815 86.2122 84.4511C86.2122 85.9027 85.9257 87.2206 85.3527 88.4048C84.7988 89.589 84.0252 90.5345 83.032 91.2412C82.0579 91.9288 80.931 92.2726 79.6513 92.2726ZM78.362 89.0065C78.9541 89.0065 79.4889 88.8823 79.9664 88.634C80.444 88.3857 80.8546 88.0515 81.1984 87.6313C81.5613 87.192 81.8287 86.7049 82.0006 86.1701C82.1916 85.6162 82.2871 85.0432 82.2871 84.4511C82.2871 83.8208 82.1821 83.2382 81.972 82.7034C81.781 82.1686 81.4945 81.7007 81.1125 81.2996C80.7305 80.8794 80.2816 80.5547 79.7659 80.3255C79.2693 80.0963 78.7249 79.9817 78.1328 79.9817C77.7699 79.9817 77.3975 80.0485 77.0155 80.1822C76.6526 80.2968 76.2992 80.4687 75.9554 80.6979C75.6116 80.9271 75.306 81.1945 75.0386 81.5001C74.7903 81.8057 74.6089 82.14 74.4943 82.5029V86.0268C74.7235 86.5807 75.0291 87.0869 75.4111 87.5453C75.8122 88.0037 76.2706 88.3666 76.7863 88.634C77.302 88.8823 77.8272 89.0065 78.362 89.0065ZM96.0332 92.2726C94.8107 92.2726 93.7125 92.072 92.7384 91.6709C91.7643 91.2507 90.9334 90.6777 90.2458 89.9519C89.5773 89.2261 89.0616 88.3953 88.6987 87.4594C88.3358 86.5234 88.1544 85.5398 88.1544 84.5084C88.1544 83.4579 88.3358 82.4647 88.6987 81.5288C89.0616 80.5929 89.5773 79.762 90.2458 79.0362C90.9334 78.3104 91.7643 77.7469 92.7384 77.3458C93.7125 76.9256 94.8107 76.7155 96.0332 76.7155C97.2556 76.7155 98.3443 76.9256 99.2993 77.3458C100.273 77.7469 101.104 78.3104 101.792 79.0362C102.479 79.762 102.995 80.5929 103.339 81.5288C103.702 82.4647 103.883 83.4579 103.883 84.5084C103.883 85.5398 103.702 86.5234 103.339 87.4594C102.995 88.3953 102.479 89.2261 101.792 89.9519C101.123 90.6777 100.302 91.2507 99.3279 91.6709C98.3538 92.072 97.2556 92.2726 96.0332 92.2726ZM92.1081 84.5084C92.1081 85.387 92.28 86.1701 92.6238 86.8577C92.9676 87.5262 93.4355 88.0515 94.0276 88.4335C94.6197 88.8155 95.2883 89.0065 96.0332 89.0065C96.759 89.0065 97.4179 88.8155 98.01 88.4335C98.6021 88.0324 99.0701 87.4976 99.4139 86.8291C99.7768 86.1414 99.9582 85.3583 99.9582 84.4797C99.9582 83.6202 99.7768 82.8467 99.4139 82.1591C99.0701 81.4715 98.6021 80.9367 98.01 80.5547C97.4179 80.1727 96.759 79.9817 96.0332 79.9817C95.2883 79.9817 94.6197 80.1822 94.0276 80.5833C93.4355 80.9653 92.9676 81.5001 92.6238 82.1877C92.28 82.8562 92.1081 83.6298 92.1081 84.5084Z" fill="#4958E9"/>
</svg>
