<svg width="26" height="26" viewBox="0 0 26 26" fill="none" xmlns="http://www.w3.org/2000/svg">
<rect width="26" height="26" rx="13" fill="#7E22CE"/>
<g clip-path="url(#clip0_645_24459)">
<path fill-rule="evenodd" clip-rule="evenodd" d="M13.494 6.82143C13.2021 6.69192 12.8862 6.625 12.5669 6.625C12.2475 6.625 11.9317 6.69192 11.6398 6.82143C9.63214 7.71248 8.11358 8.88112 7.32708 9.55685C6.84717 9.9696 6.58717 10.5573 6.55521 11.1686C6.50217 12.1753 6.47481 13.1832 6.47314 14.1914C6.47314 15.3478 6.51404 16.4531 6.55006 17.2003C6.56657 17.5622 6.7184 17.9047 6.97547 18.1599C7.23254 18.4151 7.5761 18.5644 7.93808 18.5783C8.8535 18.6151 10.4146 18.6601 12.5669 18.6601C14.7192 18.6601 16.28 18.6151 17.1957 18.5783C17.5577 18.5644 17.9012 18.4151 18.1583 18.1599C18.4154 17.9047 18.5672 17.5622 18.5837 17.2003C18.6197 16.4531 18.6606 15.3478 18.6606 14.1914C18.6606 12.9807 18.6157 11.8752 18.5789 11.1689C18.5466 10.5576 18.2864 9.96987 17.8067 9.55739C17.0205 8.88139 15.5016 7.71248 13.494 6.82143ZM12.5669 11.6184C10.7049 11.6184 9.60344 11.7262 8.99081 11.8229C8.70264 11.8684 8.50331 12.0802 8.47189 12.3884C8.42044 12.897 8.36898 13.725 8.36898 15.0039C8.36898 16.052 8.40337 16.8591 8.44481 17.4487C8.45781 17.6372 8.61354 17.7899 8.81531 17.7959C9.72992 17.823 10.9874 17.8476 12.5669 17.8476C14.1461 17.8476 15.4041 17.8232 16.3187 17.7959C16.5202 17.7896 16.6762 17.6372 16.6892 17.4487C16.7304 16.8588 16.7648 16.0517 16.7648 15.0039C16.7648 13.725 16.7134 12.8968 16.6619 12.3884C16.6307 12.0802 16.4311 11.8684 16.143 11.8229C15.5304 11.7262 14.4289 11.6184 12.5669 11.6184ZM11.2298 12.7846C11.246 12.542 11.4126 12.3611 11.6547 12.3351C11.853 12.3134 12.1455 12.2955 12.5669 12.2955C12.9883 12.2955 13.2808 12.3137 13.4791 12.3351C13.7212 12.3611 13.888 12.542 13.9043 12.7846C13.9137 12.9295 13.9211 13.1235 13.9211 13.3789C13.9211 13.6342 13.9137 13.8282 13.904 13.9731C13.8877 14.2157 13.7212 14.3966 13.4791 14.4226C13.2808 14.4443 12.9883 14.4622 12.5669 14.4622C12.1455 14.4622 11.853 14.444 11.6547 14.4226C11.4126 14.3966 11.2458 14.2157 11.2295 13.9731C11.2173 13.7752 11.2117 13.5771 11.2127 13.3789C11.2127 13.1235 11.22 12.9295 11.2298 12.7846ZM10.0297 15.0434C9.7876 15.0694 9.62077 15.2503 9.60452 15.493C9.59234 15.6908 9.58674 15.889 9.58773 16.0872C9.58773 16.3426 9.59504 16.5365 9.60479 16.6814C9.62104 16.9241 9.7876 17.105 10.0297 17.131C10.228 17.1526 10.5205 17.1705 10.9419 17.1705C11.3633 17.1705 11.6558 17.1524 11.8541 17.131C12.0962 17.105 12.263 16.9241 12.2793 16.6814C12.2887 16.5365 12.2961 16.3426 12.2961 16.0872C12.2961 15.8318 12.2887 15.6379 12.279 15.493C12.2627 15.2503 12.0962 15.0694 11.8541 15.0434C11.6558 15.0217 11.3633 15.0039 10.9419 15.0039C10.5205 15.0039 10.228 15.022 10.0297 15.0434ZM13.2797 15.0434C13.0376 15.0694 12.8708 15.2503 12.8545 15.493C12.8423 15.6908 12.8367 15.889 12.8377 16.0872C12.8377 16.3426 12.845 16.5365 12.8548 16.6814C12.871 16.9241 13.0376 17.105 13.2797 17.131C13.478 17.1526 13.7705 17.1705 14.1919 17.1705C14.6133 17.1705 14.9058 17.1524 15.1041 17.131C15.3462 17.105 15.513 16.9241 15.5293 16.6814C15.5387 16.5365 15.5461 16.3426 15.5461 16.0872C15.5461 15.8318 15.5387 15.6379 15.529 15.493C15.5127 15.2503 15.3462 15.0694 15.1041 15.0434C14.9058 15.0217 14.6133 15.0039 14.1919 15.0039C13.7705 15.0039 13.478 15.022 13.2797 15.0434Z" fill="white"/>
</g>
<defs>
<clipPath id="clip0_645_24459">
<rect width="13" height="13" fill="white" transform="translate(6.06689 6.06641)"/>
</clipPath>
</defs>
</svg>
