<svg width="13" height="13" viewBox="0 0 13 13" fill="none" xmlns="http://www.w3.org/2000/svg">
<g clip-path="url(#clip0_645_24460)">
<path fill-rule="evenodd" clip-rule="evenodd" d="M7.42706 0.755028C7.13516 0.62551 6.81935 0.558594 6.5 0.558594C6.18065 0.558594 5.86484 0.62551 5.57294 0.755028C3.56525 1.64607 2.04669 2.81472 1.26019 3.49045C0.780271 3.9032 0.520271 4.4909 0.488312 5.10218C0.435274 6.1089 0.407911 7.11682 0.40625 8.12495C0.40625 9.28141 0.447146 10.3867 0.483167 11.1339C0.499672 11.4958 0.651501 11.8382 0.908574 12.0935C1.16565 12.3487 1.50921 12.498 1.87119 12.5119C2.7866 12.5487 4.34769 12.5937 6.5 12.5937C8.65231 12.5937 10.2131 12.5487 11.1288 12.5119C11.4908 12.498 11.8344 12.3487 12.0914 12.0935C12.3485 11.8382 12.5003 11.4958 12.5168 11.1339C12.5529 10.3867 12.5938 9.28141 12.5938 8.12495C12.5938 6.91432 12.5488 5.80878 12.512 5.10245C12.4797 4.49117 12.2195 3.90347 11.7398 3.49099C10.9536 2.81499 9.43475 1.64607 7.42706 0.755028ZM6.5 5.55203C4.63802 5.55203 3.53654 5.65982 2.92392 5.75651C2.63575 5.80201 2.43642 6.0138 2.405 6.32201C2.35354 6.83063 2.30208 7.65857 2.30208 8.93745C2.30208 9.98557 2.33648 10.7927 2.37792 11.3823C2.39092 11.5708 2.54665 11.7235 2.74842 11.7295C3.66302 11.7566 4.9205 11.7812 6.5 11.7812C8.07923 11.7812 9.33725 11.7568 10.2519 11.7295C10.4534 11.7232 10.6094 11.5708 10.6224 11.3823C10.6635 10.7924 10.6979 9.9853 10.6979 8.93745C10.6979 7.65857 10.6465 6.83036 10.595 6.32201C10.5639 6.0138 10.3643 5.80201 10.0761 5.75651C9.46346 5.65982 8.36198 5.55203 6.5 5.55203ZM5.1629 6.71824C5.17915 6.47557 5.34571 6.29465 5.58783 6.26865C5.78608 6.24699 6.07858 6.22911 6.5 6.22911C6.92142 6.22911 7.21392 6.24726 7.41217 6.26865C7.65429 6.29465 7.82113 6.47557 7.83738 6.71824C7.84685 6.86313 7.85417 7.05705 7.85417 7.31245C7.85417 7.56784 7.84685 7.76176 7.8371 7.90665C7.82085 8.14932 7.65429 8.33024 7.41217 8.35624C7.21392 8.3779 6.92142 8.39578 6.5 8.39578C6.07858 8.39578 5.78608 8.37763 5.58783 8.35624C5.34571 8.33024 5.17888 8.14932 5.16263 7.90665C5.15044 7.70883 5.14484 7.51065 5.14583 7.31245C5.14583 7.05705 5.15315 6.86313 5.1629 6.71824ZM3.96283 8.97699C3.72071 9.00299 3.55388 9.1839 3.53763 9.42657C3.52544 9.6244 3.51984 9.82258 3.52083 10.0208C3.52083 10.2762 3.52815 10.4701 3.5379 10.615C3.55415 10.8577 3.72071 11.0386 3.96283 11.0646C4.16108 11.0862 4.45358 11.1041 4.875 11.1041C5.29642 11.1041 5.58892 11.086 5.78717 11.0646C6.02929 11.0386 6.19613 10.8577 6.21238 10.615C6.22185 10.4701 6.22917 10.2762 6.22917 10.0208C6.22917 9.76538 6.22185 9.57147 6.2121 9.42657C6.19585 9.1839 6.02929 9.00299 5.78717 8.97699C5.58892 8.95532 5.29642 8.93745 4.875 8.93745C4.45358 8.93745 4.16108 8.95559 3.96283 8.97699ZM7.21283 8.97699C6.97071 9.00299 6.80388 9.1839 6.78763 9.42657C6.77544 9.6244 6.76984 9.82258 6.77083 10.0208C6.77083 10.2762 6.77815 10.4701 6.7879 10.615C6.80415 10.8577 6.97071 11.0386 7.21283 11.0646C7.41108 11.0862 7.70358 11.1041 8.125 11.1041C8.54642 11.1041 8.83892 11.086 9.03717 11.0646C9.27929 11.0386 9.44613 10.8577 9.46238 10.615C9.47185 10.4701 9.47917 10.2762 9.47917 10.0208C9.47917 9.76538 9.47185 9.57147 9.4621 9.42657C9.44585 9.1839 9.27929 9.00299 9.03717 8.97699C8.83892 8.95532 8.54642 8.93745 8.125 8.93745C7.70358 8.93745 7.41108 8.95559 7.21283 8.97699Z" fill="white"/>
</g>
<defs>
<clipPath id="clip0_645_24460">
<rect width="13" height="13" fill="white"/>
</clipPath>
</defs>
</svg>
