<svg width="56" height="56" viewBox="0 0 56 56" fill="none" xmlns="http://www.w3.org/2000/svg">
<path d="M0 27.9826C0 12.5282 12.5282 0 27.9826 0C43.4369 0 55.9651 12.5282 55.9651 27.9826C55.9651 43.4369 43.4369 55.9651 27.9826 55.9651C12.5282 55.9651 0 43.4369 0 27.9826Z" fill="#F3E8FF"/>
<path d="M41.315 21.3159L29.3278 28.9514C28.9211 29.1877 28.459 29.3121 27.9886 29.3121C27.5182 29.3121 27.0561 29.1877 26.6493 28.9514L14.6501 21.3159" stroke="#9333EA" stroke-width="2" stroke-linecap="round" stroke-linejoin="round"/>
<path d="M38.6485 17.3164H17.3166C15.844 17.3164 14.6501 18.5102 14.6501 19.9829V35.9818C14.6501 37.4545 15.844 38.6483 17.3166 38.6483H38.6485C40.1212 38.6483 41.315 37.4545 41.315 35.9818V19.9829C41.315 18.5102 40.1212 17.3164 38.6485 17.3164Z" stroke="#9333EA" stroke-width="2" stroke-linecap="round" stroke-linejoin="round"/>
</svg>
