<svg width="18" height="18" viewBox="0 0 18 18" fill="none" xmlns="http://www.w3.org/2000/svg">
<path d="M13.2375 4.7625C12.6824 4.2037 12.0222 3.76028 11.2949 3.45779C10.5676 3.1553 9.78767 2.99971 9 3C5.685 3 3.0075 5.685 3.0075 9C3.0075 12.315 5.685 15 9 15C11.7975 15 14.13 13.0875 14.7975 10.5H13.2375C12.9285 11.3771 12.355 12.1368 11.596 12.6741C10.837 13.2115 9.92996 13.5 9 13.5C6.5175 13.5 4.5 11.4825 4.5 9C4.5 6.5175 6.5175 4.5 9 4.5C10.245 4.5 11.355 5.0175 12.165 5.835L9.75 8.25H15V3L13.2375 4.7625Z" fill="#111827"/>
</svg>
